<?xml version="1.0" encoding="UTF-8" standalone="no"?>
<svg
   version="1.1"
   width="108"
   height="108"
   id="svg278"
   xmlns="http://www.w3.org/2000/svg"
   xmlns:svg="http://www.w3.org/2000/svg">
  <defs
     id="defs282" />
  <path
     d="m 31.421693,28.639913 c 0.11293,-5e-4 0.22586,-0.0015 0.342215,-0.002 0.372865,-0.002 0.745725,-0.0035 1.118595,-0.0045 0.1279,-4.4e-4 0.255795,-0.001 0.38757,-0.0015 0.677365,-0.0025 1.35473,-0.004 2.032095,-0.005 0.696565,-10e-4 1.393085,-0.005 2.089635,-0.0092 0.538235,-0.003 1.076465,-0.0035 1.614705,-0.004 0.25659,-5e-4 0.51318,-0.002 0.769765,-0.004 3.402945,-0.02515 3.402945,-0.02515 4.4488,0.854335 0.80636,0.873555 0.9728,1.85429 1.13341,2.98981 0.100775,0.025 0.201545,0.05004 0.305375,0.07581 1.035325,0.27314 1.735035,0.4934 2.330775,1.421845 0.42191,0.759445 0.539115,1.433315 0.508255,2.297315 0.06695,0.01065 0.1339,0.02125 0.20288,0.0322 1.05975,0.18711 1.894435,0.46764 2.548475,1.36509 0.29009,0.43266 0.461675,0.782695 0.50148,1.313415 0.06317,0.0081 0.126355,0.0162 0.191445,0.02455 1.14298,0.183305 2.134035,0.630035 2.87164,1.541285 0.43512,0.636165 0.813945,1.304455 0.928415,2.073255 0.08246,0.377865 0.08246,0.377865 0.3274,0.474795 0.17,0.05069 0.341085,0.09783 0.512915,0.14189 0.83448,0.25676 1.442695,0.990475 1.89071,1.70774 0.294025,0.597155 0.537715,1.185355 0.65057,1.84327 0.09169,0.0089 0.18338,0.0179 0.277845,0.0271 0.450365,0.09826 0.73662,0.280135 1.131715,0.51503 0.01255,-0.951955 0.0222,-1.903885 0.0281,-2.855905 0.003,-0.442085 0.0067,-0.88411 0.0128,-1.326165 0.0059,-0.426745 0.0091,-0.85344 0.01055,-1.280225 0.001,-0.16268 0.003,-0.325355 0.0059,-0.48801 0.004,-0.228205 0.0045,-0.45618 0.004,-0.684415 10e-4,-0.129775 0.0025,-0.259555 0.0035,-0.393265 -0.08394,-0.44433 -0.271995,-0.59519 -0.607335,-0.887245 -0.167725,-0.27107 -0.167725,-0.27107 -0.298175,-0.54214 -0.06625,-0.13418 -0.06625,-0.13418 -0.13384,-0.27107 -0.18148,-0.446715 -0.232485,-0.855445 -0.225325,-1.33502 0.001,-0.08568 0.002,-0.171355 0.003,-0.25963 0.002,-0.09624 0.002,-0.09624 0.004,-0.19441 -0.06821,-0.003 -0.136415,-0.0056 -0.20669,-0.0085 -0.82486,-0.05466 -1.400415,-0.24517 -2.03641,-0.77763 -1.134085,-1.34864 -1.13409,-2.829455 -1.009735,-4.526865 0.1416,-0.80777 0.43131,-1.53719 1.08428,-2.060125 1.022005,-0.65116 2.05131,-0.791605 3.24169,-0.7905 0.114035,-5e-4 0.22807,-0.0015 0.34556,-0.002 0.374625,-0.002 0.749225,-0.0025 1.123855,-0.0025 0.262375,-5e-4 0.52475,-0.0015 0.787125,-0.002 0.54931,-0.0015 1.09861,-0.0015 1.64792,-0.0015 0.700565,2e-5 1.401085,-0.003 2.10164,-0.0067 0.54186,-0.0025 1.083715,-0.003 1.625585,-0.0025 0.2581,-2.55e-4 0.516205,-0.001 0.7743,-0.003 3.208765,-0.019 3.208765,-0.019 4.50807,0.919905 0.74197,0.830875 0.9841,1.84561 1.08428,2.92755 0.10203,0.0263 0.204065,0.05255 0.30919,0.07963 0.135015,0.03635 0.270035,0.07268 0.409145,0.11012 0.13334,0.0352 0.26668,0.07044 0.40406,0.106735 0.85002,0.294865 1.285935,0.77247 1.696729,1.54679 0.27112,0.656985 0.364565,1.244625 0.32528,1.9517 0.06695,0.01065 0.1339,0.02125 0.20288,0.0322 1.05759,0.18673 1.887465,0.46651 2.544665,1.357465 0.816375,1.20918 0.77882,2.8201 0.5468,4.2181 -0.24594,0.84446 -0.72046,1.530285 -1.456575,2.02243 -0.972405,0.51547 -1.920385,0.536325 -3.030474,0.61033 -0.178905,1.538595 -0.35781,3.077185 -0.54214,4.6624 0.74116,-0.017 0.74116,-0.017 1.482174,-0.03905 1.04816,-0.012 1.78874,0.31244 2.55253,1.02297 0.85873,0.92436 0.99346,1.878075 0.99316,3.10608 4.75e-4,0.21801 0.0045,0.435775 0.0085,0.65374 0.0035,1.123205 -0.153085,2.02396 -0.92291,2.880115 -0.07282,0.08456 -0.14564,0.169125 -0.220665,0.256245 -1.01535,0.813105 -2.01919,0.866105 -3.262574,0.828035 -0.1565,-0.0025 -0.313,-0.0052 -0.469505,-0.0074 -0.37897,-0.0055 -0.757725,-0.0159 -1.136585,-0.0265 -0.0057,0.09649 -0.01135,0.192985 -0.01715,0.2924 -0.06529,1.048995 -0.163565,2.092165 -0.277565,3.13687 -0.01875,0.174035 -0.03745,0.34807 -0.05615,0.52211 -0.05031,0.467565 -0.101055,0.935085 -0.15193,1.40259 -0.0319,0.293105 -0.06366,0.58622 -0.09542,0.879335 -0.1111,1.02541 -0.22257,2.05078 -0.334365,3.07611 -0.10373,0.95145 -0.206615,1.90299 -0.309115,2.85457 -0.08849,0.821125 -0.177585,1.642185 -0.26715,2.46319 -0.05329,0.488555 -0.10633,0.977135 -0.158745,1.465785 -0.0493,0.45959 -0.0994,0.919085 -0.15005,1.378525 -0.01835,0.16736 -0.0364,0.33475 -0.05415,0.50217 -0.341595,3.214617 -0.341595,3.214617 -1.08286,3.955877 -0.64956,0.41336 -1.301215,0.440055 -2.04954,0.43922 -0.09314,4.65e-4 -0.18627,0.001 -0.282225,0.0015 -0.19601,5e-4 -0.39202,5e-4 -0.58803,2.1e-4 -0.29791,-3.45e-4 -0.595705,0.002 -0.8936,0.005 -0.191375,2.45e-4 -0.382745,3.2e-4 -0.57412,2.1e-4 -0.132015,0.0015 -0.132015,0.0015 -0.2667,0.003 -0.828955,-0.0066 -1.56571,-0.22505 -2.18648,-0.796325 -0.548115,-0.675795 -0.80385,-1.51674 -0.99999,-2.349837 -0.08524,-0.32502 -0.08524,-0.32502 -0.264295,-0.5828 -0.35204,-0.143995 -0.68037,-0.196935 -1.0559,-0.253705 -0.56491,-0.114335 -0.87889,-0.37562 -1.221085,-0.830575 -0.39149,-0.68351 -0.64012,-1.36563 -0.82676,-2.127895 -0.08649,-0.323785 -0.08649,-0.323785 -0.257515,-0.5828 -0.32387,-0.143675 -0.622585,-0.19638 -0.971615,-0.253705 -0.553795,-0.120295 -0.848005,-0.398285 -1.196945,-0.830575 -0.615715,-1.093655 -0.960075,-2.30443 -1.32824,-3.496795 -0.06102,-0.195195 -0.12211,-0.39037 -0.183265,-0.585525 -0.556345,-1.77992 -1.098375,-3.56432 -1.6329,-5.3509 -0.179745,0.334065 -0.296405,0.66432 -0.40441,1.027655 -0.03615,0.120845 -0.07226,0.241685 -0.109495,0.366195 -0.0391,0.132235 -0.07818,0.26447 -0.11845,0.400715 -0.04205,0.141275 -0.08416,0.282545 -0.126285,0.4238 -0.09072,0.3045 -0.181185,0.60907 -0.27145,0.913705 -0.11906,0.40179 -0.23855,0.803455 -0.3582,1.20507 -0.52039,1.74678 -1.036965,3.49466 -1.549955,5.24363 -0.07778,0.265075 -0.15566,0.53012 -0.233575,0.79516 -0.0254,0.08644 -0.05082,0.172895 -0.07701,0.261965 -0.05082,0.17284 -0.101635,0.345675 -0.15246,0.51851 -0.14819,0.504165 -0.29567,1.00853 -0.442625,1.513055 -0.09229,0.31631 -0.18519,0.63244 -0.278235,0.94853 -0.0427,0.145475 -0.08511,0.291025 -0.12726,0.43666 -0.832985,2.876917 -0.832985,2.876917 -1.82255,3.619092 -0.65218,0.283825 -1.25623,0.37399 -1.961865,0.368485 -0.09016,3.1e-4 -0.18033,5e-4 -0.27323,10e-4 -0.18915,2.2e-4 -0.37831,-3.7e-4 -0.56746,-0.0015 -0.286955,-0.0015 -0.573745,-1e-5 -0.860695,0.002 -0.18509,-2.15e-4 -0.37018,-5e-4 -0.55527,-0.0015 -0.0844,5e-4 -0.1688,0.0015 -0.255755,0.002 -0.708125,-0.0089 -1.400505,-0.13268 -1.96956,-0.57548 -0.667045,-0.89603 -0.718335,-2.081405 -0.82083,-3.156267 -0.186385,-0.01595 -0.186385,-0.01595 -0.376535,-0.0322 -0.165895,-0.0163 -0.331785,-0.03265 -0.497665,-0.04915 -0.08156,-0.0067 -0.16311,-0.0134 -0.24714,-0.02035 -0.56098,-0.05828 -1.05782,-0.153985 -1.48093,-0.548915 -0.42562,-0.640045 -0.530135,-1.372905 -0.62346,-2.12112 -0.01355,-0.09903 -0.0271,-0.198055 -0.0411,-0.300085 -0.0328,-0.240925 -0.06425,-0.48194 -0.09445,-0.723205 -0.17464,-0.01595 -0.17464,-0.01595 -0.35281,-0.0322 -0.155735,-0.0163 -0.31146,-0.03265 -0.467175,-0.04915 -0.07639,-0.0067 -0.15277,-0.0134 -0.231465,-0.02035 -0.553715,-0.06124 -1.01815,-0.1728 -1.44239,-0.548915 -0.36817,-0.61392 -0.51699,-1.261645 -0.605165,-1.96356 -0.0128,-0.09306 -0.0256,-0.18612 -0.0388,-0.282 -0.0404,-0.29939 -0.07814,-0.599005 -0.115035,-0.89885 -0.0183,-0.148055 -0.0183,-0.148055 -0.037,-0.2991 -0.09035,-0.740055 -0.17346,-1.480855 -0.25567,-2.221845 -0.02625,-0.2341 -0.05253,-0.4682 -0.07883,-0.702295 -0.05446,-0.485445 -0.10865,-0.970915 -0.16262,-1.456415 -0.06919,-0.62227 -0.13896,-1.244475 -0.208915,-1.86666 -0.05404,-0.48106 -0.107845,-0.96214 -0.16156,-1.443235 -0.02565,-0.22965 -0.05138,-0.45929 -0.07717,-0.688925 -0.0358,-0.31904 -0.07124,-0.638115 -0.106615,-0.9572 -0.01065,-0.09439 -0.0213,-0.18879 -0.03225,-0.286045 -0.0095,-0.08687 -0.01915,-0.17374 -0.029,-0.263245 -0.0084,-0.07514 -0.01675,-0.150285 -0.02535,-0.227705 -0.01785,-0.214995 -0.0177,-0.43123 -0.0177,-0.64697 -0.07462,10e-4 -0.14925,0.0025 -0.226135,0.0035 -0.777435,0.012 -1.554845,0.0202 -2.33235,0.02615 -0.29011,0.0025 -0.580075,0.0064 -0.870175,0.0111 -0.417195,0.0066 -0.83429,0.0097 -1.251525,0.01205 -0.12946,0.003 -0.25892,0.0056 -0.3923,0.0085 -1.005255,3.4e-4 -1.005255,3.4e-4 -1.404965,-0.32225 -0.435885,-0.500335 -0.384185,-0.914985 -0.394165,-1.55534 -0.004,-0.097 -0.0081,-0.194 -0.0123,-0.29394 -0.0065,-0.484145 -1.8e-4,-0.82021 0.313,-1.205415 0.28208,-0.262595 0.28208,-0.262595 0.498935,-0.371025 0.128135,-0.284665 0.128135,-0.284665 0.237185,-0.62346 0.03955,-0.113495 0.07911,-0.226985 0.119865,-0.34392 0.09659,-0.420515 0.06997,-0.69766 -0.14443,-1.073265 -0.156475,-0.35494 -0.14415,-0.7091 -0.14485,-1.09021 -0.004,-0.113005 -0.004,-0.113005 -0.0081,-0.22829 -0.0035,-0.6561 0.2085,-1.020065 0.655385,-1.48207 0.38833,-0.218135 0.771195,-0.186505 1.20441,-0.17823 0.13626,5e-4 0.13626,5e-4 0.27527,0.0015 0.28947,0.002 0.57886,0.0059 0.868305,0.01005 0.19652,0.0015 0.39305,0.003 0.589575,0.0045 0.48118,0.0035 0.9623,0.0092 1.443445,0.0159 -0.008,-0.05996 -0.0161,-0.119935 -0.02435,-0.181715 -0.218295,-1.63406 -0.417675,-3.269785 -0.6034,-4.907855 -0.04375,-0.38463 -0.08821,-0.76917 -0.132705,-1.153715 -0.0282,-0.2477 -0.05638,-0.4954 -0.08449,-0.74311 -0.0132,-0.1134 -0.0264,-0.226805 -0.04005,-0.34364 -0.06687,-0.597175 -0.10468,-1.17701 -0.09085,-1.777905 -0.114055,-0.0302 -0.114055,-0.0302 -0.23041,-0.06099 -0.756265,-0.37813 -1.11914,-1.12257 -1.39601,-1.89071 -0.13249,-0.441355 -0.11607,-0.842625 -0.108425,-1.301135 -0.06695,-0.0093 -0.1339,-0.01875 -0.20288,-0.0284 -0.96553,-0.16019 -1.752045,-0.49351 -2.368895,-1.27657 -0.573225,-0.87906 -0.702435,-1.693795 -0.70817,-2.72044 -0.002,-0.09756 -0.0045,-0.195115 -0.0068,-0.295635 -0.006,-1.05199 0.214185,-2.00253 0.951285,-2.78693 0.980635,-0.92539 2.181935,-1.03978 3.470115,-1.04333 z"
     fill="#3a256b"
     id="path182"
     style="stroke-width:0.108428" />
  <path
     d="m 77.561547,36.249053 c 1.124565,0.17843 2.04675,0.4396 2.747545,1.389655 0.816375,1.20918 0.77882,2.8201 0.5468,4.2181 -0.24594,0.84446 -0.72046,1.530285 -1.456575,2.02243 -0.972405,0.51547 -1.920385,0.536325 -3.030474,0.61033 -0.26836,2.30789 -0.26836,2.30789 -0.54214,4.6624 0.74116,-0.017 0.74116,-0.017 1.482174,-0.03905 1.04816,-0.012 1.78874,0.31244 2.55253,1.02297 0.85873,0.92436 0.99346,1.878075 0.99316,3.10608 4.75e-4,0.21801 0.0045,0.435775 0.0085,0.65374 0.0035,1.123205 -0.153085,2.02396 -0.92291,2.880115 -0.07282,0.08456 -0.14564,0.169125 -0.220665,0.256245 -1.01535,0.813105 -2.01919,0.866105 -3.262574,0.828035 -0.1565,-0.0025 -0.313,-0.0052 -0.469505,-0.0074 -0.37897,-0.0054 -0.757725,-0.0159 -1.136585,-0.0265 -0.0057,0.09649 -0.01135,0.192985 -0.01715,0.2924 -0.06529,1.048995 -0.163565,2.092165 -0.277565,3.13687 -0.01875,0.174035 -0.03745,0.34807 -0.05615,0.52211 -0.05031,0.467565 -0.101055,0.935085 -0.15193,1.40259 -0.0319,0.293105 -0.06366,0.58622 -0.09542,0.879335 -0.1111,1.02541 -0.22257,2.05078 -0.334365,3.07611 -0.10373,0.95145 -0.206615,1.90299 -0.309115,2.85457 -0.08849,0.821125 -0.177585,1.642185 -0.26715,2.46319 -0.05329,0.488555 -0.10633,0.977135 -0.158745,1.465785 -0.0493,0.45959 -0.0994,0.919085 -0.15005,1.378525 -0.01835,0.16736 -0.0364,0.33475 -0.05414,0.50217 -0.341595,3.214617 -0.341595,3.214617 -1.08286,3.955877 -0.64956,0.41336 -1.301215,0.440055 -2.04954,0.43922 -0.1397,5e-4 -0.1397,5e-4 -0.282225,0.0015 -0.19601,5e-4 -0.39202,5e-4 -0.58803,2.1e-4 -0.29791,-3.45e-4 -0.595705,0.002 -0.8936,0.005 -0.191375,2.45e-4 -0.382745,3.2e-4 -0.57412,2.1e-4 -0.08801,0.001 -0.17602,0.002 -0.2667,0.003 -0.828955,-0.0067 -1.56571,-0.22505 -2.18648,-0.796325 -0.548115,-0.675795 -0.80385,-1.51674 -0.99999,-2.349837 -0.08524,-0.32502 -0.08524,-0.32502 -0.264295,-0.5828 -0.35204,-0.143995 -0.68037,-0.196935 -1.0559,-0.253705 -0.56515,-0.114385 -0.87843,-0.375795 -1.221085,-0.830575 -0.51552,-0.88924 -0.791295,-1.839645 -1.084275,-2.819125 0.164775,-0.0025 0.164775,-0.0025 0.33288,-0.005 0.41167,-0.0063 0.82328,-0.0147 1.2349,-0.02365 0.177385,-0.0035 0.354785,-0.0066 0.532185,-0.0091 1.56303,0.03155 1.56303,0.03155 2.928375,-0.61978 0.55302,-0.999695 0.612635,-2.150275 0.731465,-3.26512 0.0203,-0.183325 0.04065,-0.366645 0.06113,-0.549955 0.05366,-0.483025 0.106115,-0.966175 0.15831,-1.44936 0.05169,-0.476585 0.104555,-0.953035 0.15731,-1.429505 0.124575,-1.127525 0.24704,-2.255275 0.36912,-3.383075 0.0213,-0.19652 0.0426,-0.393045 0.06388,-0.58957 0.12359,-1.14072 0.24687,-2.28147 0.36983,-3.42226 -0.118945,-0.0148 -0.23789,-0.02965 -0.36044,-0.0449 -0.402245,-0.06412 -0.617045,-0.14839 -0.940695,-0.388815 -0.30638,-0.459575 -0.264915,-0.85517 -0.27107,-1.39601 -0.0045,-0.09742 -0.0089,-0.19484 -0.01355,-0.29521 -0.0084,-0.707075 -0.0084,-0.707075 0.21262,-0.984425 0.17704,-0.144325 0.17704,-0.144325 0.50571,-0.360335 0.0358,-0.07156 0.07157,-0.143125 0.10843,-0.216855 0.214685,0 0.429375,0 0.650565,0 0,-0.429375 0,-0.85875 0,-1.301135 -0.11405,-0.0089 -0.228105,-0.0179 -0.34561,-0.0271 -0.446205,-0.08778 -0.63346,-0.202445 -0.95552,-0.515035 -0.19623,-0.392455 -0.137745,-0.84863 -0.142315,-1.2808 -0.003,-0.09791 -0.0063,-0.19582 -0.0096,-0.296695 -0.0045,-0.4585 -10e-4,-0.73265 0.23528,-1.13447 0.375995,-0.335165 0.66221,-0.4597 1.16581,-0.45878 0.144385,-5e-4 0.144385,-5e-4 0.29168,-0.001 0.154695,0.001 0.154695,0.001 0.31251,0.0025 0.10666,5e-5 0.213315,10e-5 0.323205,1.5e-4 0.2253,3.3e-4 0.450595,10e-4 0.67589,0.0025 0.34479,0.002 0.689555,0.002 1.03435,0.002 0.218975,5e-4 0.43795,10e-4 0.65692,0.002 0.10313,1.2e-4 0.20626,2.45e-4 0.312515,3.65e-4 0.09625,5e-4 0.192505,0.0015 0.291675,0.002 0.126615,5e-4 0.126615,5e-4 0.255785,10e-4 0.23507,0.01455 0.442175,0.05833 0.66818,0.122925 0.0088,-0.135025 0.0088,-0.135025 0.01765,-0.27278 0.0663,-0.979805 0.15844,-1.95494 0.26359,-2.931345 0.0166,-0.155585 0.0332,-0.31117 0.0498,-0.466755 0.03445,-0.32229 0.0691,-0.64456 0.103885,-0.966815 0.04465,-0.413645 0.08856,-0.827355 0.132325,-1.241085 0.0339,-0.31954 0.06824,-0.63903 0.1027,-0.958505 0.0164,-0.152725 0.03265,-0.305465 0.04875,-0.45822 0.02235,-0.21175 0.0454,-0.42343 0.06845,-0.635105 0.0129,-0.120385 0.02585,-0.24077 0.03915,-0.3648 0.0411,-0.270385 0.0411,-0.270385 0.14955,-0.378815 0.24605,-0.0146 0.49234,-0.02515 0.738665,-0.0339 1.09026,-0.06012 2.074025,-0.275365 2.880965,-1.058865 0.781294,-0.928495 0.867689,-2.07792 0.934339,-3.244365 z"
     fill="#3a2563"
     id="path184"
     style="stroke-width:0.108428" />
  <path
     d="m 31.421693,28.639913 c 0.11293,-5e-4 0.22586,-0.0015 0.342215,-0.002 0.372865,-0.002 0.745725,-0.0035 1.118595,-0.0045 0.1279,-4.4e-4 0.255795,-0.001 0.38757,-0.0015 0.677365,-0.0025 1.35473,-0.004 2.032095,-0.005 0.696565,-10e-4 1.393085,-0.005 2.089635,-0.0092 0.538235,-0.003 1.076465,-0.0035 1.614705,-0.004 0.25659,-5e-4 0.51318,-0.002 0.769765,-0.004 3.402945,-0.02515 3.402945,-0.02515 4.4488,0.854335 0.80636,0.873555 0.9728,1.85429 1.13341,2.98981 0.100775,0.025 0.201545,0.05004 0.305375,0.07581 1.035325,0.27314 1.735035,0.4934 2.330775,1.421845 0.42191,0.759445 0.539115,1.433315 0.508255,2.297315 0.06695,0.01065 0.1339,0.02125 0.20288,0.0322 1.05975,0.18711 1.894435,0.46764 2.548475,1.36509 0.29679,0.44265 0.431395,0.777875 0.50148,1.313415 -0.08414,-0.0025 -0.168285,-0.005 -0.254975,-0.0076 -1.646775,-0.0275 -3.22956,0.12228 -4.549735,1.19355 -1.319935,1.326235 -1.695615,3.341425 -2.21599,5.07578 -0.08247,0.27125 -0.16506,0.54246 -0.247775,0.81363 -0.15164,0.497975 -0.302665,0.99612 -0.452665,1.49459 -0.0329,0.108635 -0.06582,0.217265 -0.09973,0.32919 -0.06287,0.21136 -0.123695,0.42334 -0.182465,0.635875 -0.02745,0.09783 -0.05486,0.19567 -0.08311,0.29647 -0.02335,0.08619 -0.0467,0.172375 -0.07079,0.261175 -0.08328,0.208005 -0.08328,0.208005 -0.354345,0.397755 -0.27107,0.0271 -0.27107,0.0271 -0.596355,-0.18975 -0.30003,-0.03525 -0.30003,-0.03525 -0.64371,-0.0332 -0.132465,-0.0015 -0.26493,-0.0035 -0.40141,-0.0053 -0.144775,-5e-4 -0.28955,-0.0015 -0.434325,-0.002 -0.148695,-10e-4 -0.297395,-0.002 -0.44609,-0.003 -0.311815,-0.002 -0.62362,-0.0025 -0.93544,-0.003 -0.39853,-5e-4 -0.796945,-0.0045 -1.195445,-0.0096 -0.307255,-0.003 -0.614475,-0.004 -0.921745,-0.004 -0.218025,-5e-4 -0.43604,-0.004 -0.65404,-0.0071 -0.805835,-0.0173 -0.805835,-0.0173 -1.50399,0.32829 -0.394485,0.46766 -0.375685,0.854765 -0.385985,1.446435 -0.004,0.08666 -0.0081,0.173315 -0.0123,0.2626 -0.0098,0.661375 0.16264,0.88066 0.59508,1.390925 0.06426,0.3062 0.05217,0.59699 0.0339,0.908085 -0.0025,0.07981 -0.005,0.159615 -0.0074,0.241845 -0.0064,0.195065 -0.01605,0.39002 -0.02645,0.584915 -0.20623,-0.0319 -0.20623,-0.0319 -0.43371,-0.108425 -0.13378,-0.280785 -0.23544,-0.540285 -0.331635,-0.833965 -0.0294,-0.08443 -0.05878,-0.16886 -0.08906,-0.255845 -0.09411,-0.270945 -0.18588,-0.5426 -0.277315,-0.814455 -0.09128,-0.269055 -0.18307,-0.53789 -0.276155,-0.806325 -0.05784,-0.167015 -0.11464,-0.334395 -0.170195,-0.502185 -0.236135,-0.68543 -0.515515,-1.363495 -1.13263,-1.77491 -0.06162,-0.212195 -0.06162,-0.212195 -0.09148,-0.475825 -0.01195,-0.09917 -0.0239,-0.19834 -0.03625,-0.300515 -0.0115,-0.10819 -0.02305,-0.216375 -0.0349,-0.327845 -0.0197,-0.16834 -0.0197,-0.16834 -0.03975,-0.340085 -0.0424,-0.36552 -0.08266,-0.73124 -0.122885,-1.097005 -0.0284,-0.249255 -0.05695,-0.498495 -0.08561,-0.74772 -0.05604,-0.489565 -0.111255,-0.97921 -0.16566,-1.468965 -0.06092,-0.548205 -0.123935,-1.096135 -0.18837,-1.64394 -0.0297,-0.255955 -0.05937,-0.511915 -0.08894,-0.76789 -0.013,-0.111175 -0.026,-0.222355 -0.0394,-0.336905 -0.06401,-0.574175 -0.09483,-1.131905 -0.08259,-1.70967 -0.114055,-0.0302 -0.114055,-0.0302 -0.23041,-0.06099 -0.756265,-0.37813 -1.11914,-1.12257 -1.39601,-1.89071 -0.13249,-0.441355 -0.11607,-0.842625 -0.108425,-1.301135 -0.06695,-0.0093 -0.1339,-0.01875 -0.20288,-0.0284 -0.96553,-0.16019 -1.752045,-0.49351 -2.368895,-1.27657 -0.573225,-0.87906 -0.702435,-1.693795 -0.70817,-2.72044 -0.002,-0.09756 -0.0045,-0.195115 -0.0068,-0.295635 -0.0061,-1.05199 0.214185,-2.00253 0.951285,-2.78693 0.980635,-0.92539 2.181935,-1.03978 3.470115,-1.04333 z"
     fill="#457f13"
     id="path186"
     style="stroke-width:0.108428" />
  <path
     d="m 60.418808,28.627603 c 0.114035,-5e-4 0.22807,-0.0015 0.34556,-0.002 0.374625,-0.002 0.749225,-0.0025 1.123855,-0.0025 0.262375,-5e-4 0.52475,-0.0015 0.787125,-0.002 0.54931,-0.0015 1.09861,-0.0015 1.64792,-0.0015 0.700565,2e-5 1.401085,-0.003 2.10164,-0.0067 0.54186,-0.0025 1.083715,-0.003 1.625585,-0.0025 0.2581,-2.55e-4 0.516205,-0.001 0.7743,-0.003 3.208765,-0.019 3.208765,-0.019 4.50807,0.919905 0.74197,0.830875 0.9841,1.84561 1.08428,2.92755 0.10203,0.0263 0.204065,0.05255 0.30919,0.07963 0.135015,0.03635 0.270035,0.07268 0.409145,0.11012 0.13334,0.0352 0.26668,0.07044 0.40406,0.106735 0.599095,0.207825 1.04092,0.485535 1.391775,1.018205 0.05074,0.07408 0.101474,0.148155 0.153744,0.22448 0.40458,0.81369 0.534615,1.61147 0.52393,2.513325 -0.001,0.09941 -0.002,0.19882 -0.003,0.301245 -0.02995,1.175035 -0.2769,2.07039 -1.113079,2.928295 -0.773235,0.663375 -1.71986,0.86474 -2.71959,0.91782 -0.07415,0.004 -0.148295,0.0084 -0.22469,0.0127 -0.18032,0.0101 -0.3607,0.01915 -0.541085,0.02795 -0.01065,0.09931 -0.02125,0.19863 -0.0322,0.30096 -0.100245,0.936495 -0.200725,1.87297 -0.301475,2.809415 -0.05178,0.48142 -0.10348,0.962855 -0.154965,1.444305 -0.0497,0.46473 -0.09963,0.929435 -0.149745,1.39412 -0.01905,0.177185 -0.03805,0.35438 -0.05693,0.53159 -0.0265,0.248415 -0.0533,0.4968 -0.08017,0.745175 -0.01515,0.141335 -0.03035,0.28267 -0.04595,0.42829 -0.0384,0.308795 -0.08784,0.608195 -0.1544,0.91194 -0.06511,-0.001 -0.13023,-0.002 -0.19732,-0.003 -0.67895,-0.0096 -1.357885,-0.01615 -2.036885,-0.0209 -0.253255,-0.002 -0.5065,-0.0052 -0.759735,-0.0089 -0.36444,-0.0053 -0.72881,-0.0077 -1.09328,-0.0097 -0.169285,-0.0035 -0.169285,-0.0035 -0.34199,-0.0068 -0.65584,-2.05e-4 -1.035155,0.0444 -1.53432,0.48285 -0.273925,0.368435 -0.259725,0.77163 -0.28462,1.21981 -0.0081,0.136975 -0.0162,0.27395 -0.02455,0.415075 -0.0053,0.10455 -0.0106,0.2091 -0.0161,0.316815 -0.225855,-0.29361 -0.42733,-0.59406 -0.62346,-0.908085 -0.55362,-0.82636 -1.21652,-1.35691 -2.19566,-1.585755 -0.3923,-0.0367 -0.78462,-0.05178 -1.178305,-0.06565 -0.10573,-0.0045 -0.211455,-0.0087 -0.32039,-0.01315 -0.25941,-0.01055 -0.51883,-0.0204 -0.77829,-0.0296 -1.55e-4,-0.1129 -3.1e-4,-0.2258 -4.7e-4,-0.342125 -0.002,-1.064145 -0.0065,-2.128245 -0.01385,-3.192365 -0.0035,-0.54708 -0.0065,-1.094125 -0.0069,-1.641215 -4.65e-4,-0.528015 -0.0035,-1.05595 -0.0084,-1.583935 -0.0015,-0.201405 -0.002,-0.402815 -0.0015,-0.604225 5e-4,-0.28223 -0.0025,-0.56424 -0.0059,-0.846445 10e-4,-0.08322 0.002,-0.166435 0.003,-0.25217 -0.0093,-0.435115 -0.0527,-0.620135 -0.33939,-0.955685 -0.09143,-0.07653 -0.182875,-0.15306 -0.277085,-0.23191 -0.167725,-0.27107 -0.167725,-0.27107 -0.298175,-0.54214 -0.04415,-0.08946 -0.08833,-0.178905 -0.13384,-0.27107 -0.18148,-0.446715 -0.232485,-0.855445 -0.225325,-1.33502 10e-4,-0.08568 0.002,-0.171355 0.003,-0.25963 0.0015,-0.06415 0.0025,-0.12831 0.004,-0.19441 -0.06821,-0.003 -0.136415,-0.0056 -0.20669,-0.0084 -0.82486,-0.05466 -1.400415,-0.24517 -2.03641,-0.77763 -1.134085,-1.34864 -1.13409,-2.829455 -1.009735,-4.526865 0.1416,-0.80777 0.43131,-1.53719 1.08428,-2.060125 1.022005,-0.65116 2.05131,-0.791605 3.24169,-0.7905 z"
     fill="#8361c5"
     id="path188"
     style="stroke-width:0.108428" />
  <path
     d="m 50.129308,56.199778 c 0.0358,0 0.07156,0 0.108425,0 0.01215,0.09623 0.01215,0.09623 0.02455,0.194405 0.07508,0.451175 0.139045,0.794865 0.49047,1.10673 0.358425,0.220565 0.592985,0.270315 1.002955,0.32528 -0.25134,1.05916 -0.554385,2.10084 -0.865305,3.14356 -0.0532,0.179215 -0.106385,0.358435 -0.159545,0.537665 -0.1416,0.47718 -0.28354,0.95426 -0.42557,1.431315 -0.236105,0.793205 -0.471755,1.586545 -0.70752,2.37985 -0.08852,0.2978 -0.177085,0.59559 -0.26565,0.893375 -0.329135,1.107035 -0.656455,2.21457 -0.980895,3.32299 -0.136825,0.46725 -0.274105,0.934365 -0.41126,1.40152 -0.07119,0.243055 -0.14214,0.48618 -0.212825,0.729385 -1.091655,3.75519 -1.091655,3.75519 -2.280575,4.47787 -0.563535,0.21289 -1.071815,0.242485 -1.671735,0.245655 -0.09094,5e-4 -0.181865,0.001 -0.275555,0.002 -0.19239,10e-4 -0.384785,0.0015 -0.577175,0.002 -0.291745,0.001 -0.583405,0.0045 -0.87513,0.0079 -0.18756,5e-4 -0.37512,0.0015 -0.56268,0.0015 -0.0861,0.0015 -0.1722,0.0025 -0.26091,0.004 -0.71516,-0.003 -1.408315,-0.12237 -1.98346,-0.569915 -0.667045,-0.89603 -0.718335,-2.081405 -0.820835,-3.156265 -0.116425,-0.0106 -0.232855,-0.02125 -0.35281,-0.0322 -0.155735,-0.0163 -0.31146,-0.03265 -0.467175,-0.04915 -0.07638,-0.0067 -0.15277,-0.0134 -0.231465,-0.02035 -0.553715,-0.06124 -1.01815,-0.1728 -1.44239,-0.548915 -0.36817,-0.61392 -0.51699,-1.261645 -0.605165,-1.96356 -0.0128,-0.09306 -0.0256,-0.18612 -0.0388,-0.282 -0.0404,-0.29939 -0.07814,-0.599005 -0.115035,-0.89885 -0.0122,-0.09871 -0.0244,-0.197405 -0.037,-0.2991 -0.09035,-0.740055 -0.17346,-1.480855 -0.25567,-2.221845 -0.02625,-0.2341 -0.05253,-0.4682 -0.07883,-0.702295 -0.05446,-0.485445 -0.10865,-0.970915 -0.16262,-1.456415 -0.06919,-0.62227 -0.13896,-1.244475 -0.208915,-1.86666 -0.05404,-0.48106 -0.107845,-0.96214 -0.16156,-1.443235 -0.02565,-0.22965 -0.05139,-0.45929 -0.07718,-0.688925 -0.0358,-0.31904 -0.07124,-0.638115 -0.106615,-0.9572 -0.01065,-0.09439 -0.0213,-0.18879 -0.03225,-0.286045 -0.0096,-0.08687 -0.01915,-0.17374 -0.029,-0.263245 -0.0084,-0.07514 -0.01675,-0.150285 -0.02535,-0.227705 -0.01785,-0.214995 -0.0177,-0.43123 -0.0177,-0.64697 0.0889,-0.0065 0.17779,-0.01315 0.269375,-0.0199 0.175275,-0.01365 0.175275,-0.01365 0.354085,-0.02755 0.11573,-0.0088 0.23146,-0.0176 0.350695,-0.0267 0.31611,-0.02475 0.31611,-0.02475 0.572635,-0.09911 0.188055,-0.0436 0.188055,-0.0436 0.40491,0.0648 0.27184,0.0157 0.54114,0.0254 0.81321,0.0305 0.08136,0.002 0.16271,0.004 0.24653,0.006 0.26117,0.0064 0.522345,0.0121 0.783535,0.01765 1.961615,0.04265 1.961615,0.04265 2.820605,0.140935 0.573405,0.05779 1.23145,0.07442 1.74353,-0.215055 0.199235,-0.15925 0.199235,-0.15925 0.423545,-0.413805 0.27038,0.13053 0.5076,0.266115 0.758995,0.433715 0.207095,0.0355 0.207095,0.0355 0.43432,0.03495 0.130425,0.003 0.130425,0.003 0.263485,0.0063 0.09385,0.001 0.187705,0.002 0.2844,0.003 0.09753,0.001 0.195065,0.0025 0.295555,0.0035 0.206985,0.002 0.41398,0.0035 0.62097,0.0045 0.31279,0.002 0.625255,0.0088 0.93797,0.01565 1.138355,0.0132 2.074955,-0.0045 3.018405,-0.718335 0.22843,-0.224385 0.432955,-0.44697 0.62812,-0.700545 0.06478,-0.08261 0.06478,-0.08261 0.130875,-0.166875 z"
     fill="#8a9c20"
     id="path190"
     style="stroke-width:0.108428" />
  <path
     d="m 65.634488,55.332353 c 0.0358,0 0.07156,0 0.108425,0 0.003,0.102035 0.0056,0.204065 0.0085,0.30919 0.0368,0.822105 0.0368,0.822105 0.25582,1.60863 0.402095,0.362865 0.840415,0.46252 1.362125,0.57602 0.01085,0.69847 -0.0278,1.373905 -0.104325,2.067835 -0.0111,0.104515 -0.0222,0.209035 -0.03365,0.31672 -0.0366,0.342995 -0.07401,0.6859 -0.111475,1.028805 -0.026,0.240495 -0.05194,0.480995 -0.07788,0.721495 -0.05442,0.5034 -0.10926,1.00676 -0.164355,1.51009 -0.07016,0.64138 -0.13912,1.28288 -0.20775,1.924425 -0.05331,0.496715 -0.107355,0.993355 -0.161605,1.48997 -0.0257,0.236285 -0.05116,0.472595 -0.07636,0.708935 -0.40954,3.83104 -0.40954,3.83104 -1.149805,4.57131 -0.64956,0.413355 -1.301215,0.440055 -2.04954,0.439215 -0.09313,4.65e-4 -0.186275,0.001 -0.28223,0.0015 -0.19601,5e-4 -0.39202,5e-4 -0.588025,2.05e-4 -0.297915,-3.4e-4 -0.59571,0.002 -0.893605,0.005 -0.19137,2.45e-4 -0.382745,3.25e-4 -0.574115,2.1e-4 -0.08801,0.001 -0.176025,0.002 -0.2667,0.003 -0.816855,-0.0066 -1.570765,-0.21382 -2.174435,-0.79167 -0.784665,-0.92581 -1.093035,-2.33752 -1.44575,-3.479435 -0.05794,-0.18534 -0.115925,-0.370665 -0.173945,-0.55598 -0.171205,-0.54855 -0.340605,-1.09764 -0.50958,-1.646875 -0.08721,-0.28339 -0.1745,-0.56675 -0.26191,-0.85007 -0.33762,-1.094375 -0.673835,-2.18917 -1.009,-3.2843 -0.07861,-0.256605 -0.1574,-0.513155 -0.23623,-0.769695 -0.125265,-0.407815 -0.249885,-0.815815 -0.37403,-1.22397 -0.04645,-0.152355 -0.09309,-0.304645 -0.13995,-0.456865 -0.06461,-0.210015 -0.128385,-0.420285 -0.19212,-0.63056 -0.0362,-0.11854 -0.0724,-0.237075 -0.109695,-0.359205 -0.07695,-0.306265 -0.07695,-0.306265 -0.07695,-0.73998 0.56939,-0.23047 0.56939,-0.23047 0.920785,-0.171535 0.542365,0.08999 1.078335,0.09614 1.627265,0.10377 0.16584,0.0061 0.16584,0.0061 0.335025,0.0123 0.698435,0.0149 0.698435,0.0149 1.294785,-0.30622 0.08834,-0.09533 0.176665,-0.19065 0.26768,-0.28886 0.06709,-0.06486 0.13418,-0.129705 0.2033,-0.196525 0.04025,-0.0425 0.08051,-0.08498 0.121985,-0.12876 0.05004,0.04195 0.100075,0.08386 0.151625,0.127065 1.2324,0.98397 2.291365,1.04744 3.82399,0.883145 0.96292,-0.13074 1.681575,-0.60522 2.313195,-1.335495 0.2461,-0.385125 0.45667,-0.779055 0.65057,-1.192705 z"
     fill="#8a4e8c"
     id="path192"
     style="stroke-width:0.108428" />
  <path
     d="m 54.539268,40.208788 c 0.60402,0.639825 1.080885,1.518255 1.207955,2.39007 0.08246,0.377865 0.08246,0.377865 0.3274,0.474795 0.17,0.05069 0.341085,0.09783 0.512915,0.14189 0.83448,0.25676 1.442695,0.990475 1.89071,1.70774 0.294025,0.597155 0.537715,1.185355 0.65057,1.84327 0.08945,0.0067 0.178905,0.0134 0.27107,0.02035 0.933925,0.216805 0.933925,0.216805 1.24692,0.63024 0.07634,0.551415 0.05007,1.07353 0,1.626415 -0.07352,0.02 -0.14704,0.03995 -0.222785,0.06057 -0.871595,0.271615 -1.418315,0.70517 -2.0542,1.348995 -0.08176,0.08163 -0.16353,0.16325 -0.247775,0.24735 -0.06136,0.0615 -0.12272,0.122995 -0.185935,0.18636 -0.04475,-0.06415 -0.08946,-0.12831 -0.135535,-0.19441 -0.50387,-0.68944 -0.99774,-1.1592 -1.81617,-1.43201 -0.157865,-0.012 -0.316205,-0.0183 -0.474505,-0.0209 -0.09556,-0.0015 -0.19112,-0.0035 -0.28958,-0.0053 -0.43645,-0.005 -0.872885,-0.0092 -1.30936,-0.01175 -0.229995,-0.002 -0.459985,-0.005 -0.689955,-0.0089 -0.33217,-0.0059 -0.6642,-0.0083 -0.99642,-0.0099 -0.10235,-0.0025 -0.204695,-0.005 -0.31015,-0.0074 -0.4816,0.0015 -0.813655,0.0147 -1.197595,0.32365 -0.2488,0.26819 -0.35151,0.39729 -0.41134,0.750285 -0.02235,0.131945 -0.04475,0.26389 -0.06777,0.39983 -0.046,-0.0407 -0.09197,-0.08134 -0.139345,-0.123255 -0.324265,-0.28293 -0.65166,-0.5625 -0.99237,-0.82549 -0.05353,-0.04195 -0.107065,-0.08386 -0.16222,-0.127065 -0.66449,-0.34669 -1.39241,-0.3685 -2.12493,-0.37865 -0.09504,-0.002 -0.19008,-0.004 -0.287995,-0.0064 -0.30043,-0.0065 -0.600865,-0.0115 -0.90132,-0.0165 -0.205,-0.004 -0.409995,-0.0084 -0.61499,-0.0127 -0.49977,-0.01035 -0.99955,-0.0195 -1.499355,-0.02795 0.211915,-0.877555 0.448115,-1.74426 0.709865,-2.6082 0.03625,-0.119705 0.07249,-0.23941 0.109835,-0.362745 0.07635,-0.25135 0.152895,-0.502645 0.229635,-0.75388 0.07733,-0.254015 0.15407,-0.508215 0.2302,-0.762595 1.23699,-4.13315 1.23699,-4.13315 2.72086,-5.026275 0.606145,-0.318705 1.181215,-0.557075 1.85471,-0.678525 0.07016,-0.01315 0.14033,-0.02625 0.21262,-0.0398 1.7497,-0.266685 3.628045,0.0816 4.956335,1.28885 z"
     fill="#e05027"
     id="path194"
     style="stroke-width:0.108428" />
  <path
     d="m 51.755723,57.826193 c 0.715625,0 1.43125,0 2.16856,0 0.140095,0.4721 0.28014,0.944215 0.420155,1.41634 0.05934,0.199905 0.05934,0.199905 0.119865,0.40385 0.0765,0.258 0.152435,0.516165 0.22776,0.77451 0.07436,0.248405 0.156605,0.49448 0.2428,0.739035 0.2026,0.969925 -0.15628,1.9404 -0.43964,2.861475 -0.04235,0.14031 -0.08459,0.28065 -0.126755,0.421015 -0.114135,0.37916 -0.229445,0.75796 -0.344965,1.1367 -0.1216,0.399375 -0.24214,0.799065 -0.362695,1.198755 -0.03675,0.121895 -0.03675,0.121895 -0.07428,0.24626 -0.05019,0.1664 -0.10037,0.3328 -0.15055,0.4992 -0.07694,0.254985 -0.154015,0.509925 -0.231105,0.76486 -0.347325,1.14955 -0.68891,2.30069 -1.02659,3.453105 -0.07775,0.265315 -0.15559,0.530605 -0.233455,0.795885 -0.3006,1.024205 -0.3006,1.024205 -0.5998,2.048825 -0.116105,0.39863 -0.2329,0.797045 -0.350185,1.19533 -0.0427,0.14546 -0.08513,0.29099 -0.127265,0.43661 -0.83298,2.876922 -0.83298,2.876922 -1.82255,3.619102 -0.65218,0.283825 -1.25623,0.37399 -1.961865,0.368485 -0.09016,3.1e-4 -0.18033,5e-4 -0.27323,0.001 -0.18915,2.2e-4 -0.37831,-3.7e-4 -0.56746,-0.0015 -0.286955,-0.0015 -0.573745,-10e-6 -0.860695,0.002 -0.18509,-2.15e-4 -0.37018,-5e-4 -0.55527,-0.0015 -0.0844,5e-4 -0.1688,0.0015 -0.255755,0.002 -0.708155,-0.0089 -1.40087,-0.13247 -1.96956,-0.5759 -0.689825,-0.92492 -0.722045,-2.155555 -0.82083,-3.264277 0.12621,-0.0025 0.12621,-0.0025 0.254975,-0.005 0.384915,-0.0081 0.76973,-0.0186 1.154585,-0.0291 0.132365,-0.0025 0.264725,-0.005 0.4011,-0.0074 0.932075,-0.0277 1.76624,-0.09642 2.487065,-0.7609 1.34889,-1.584655 1.694035,-4.38145 2.267455,-6.34727 0.117415,-0.402155 0.23528,-0.80418 0.353155,-1.2062 0.0239,-0.08148 0.0478,-0.16296 0.0724,-0.246905 0.0487,-0.166095 0.09741,-0.33219 0.146115,-0.498285 0.0739,-0.252035 0.14775,-0.50408 0.2216,-0.756125 0.487015,-1.661795 0.977675,-3.322505 1.47013,-4.982695 0.09127,-0.30773 0.182435,-0.615495 0.273495,-0.92329 0.126385,-0.4272 0.2531,-0.854295 0.37986,-1.28138 0.0376,-0.12727 0.07524,-0.25454 0.114,-0.385665 0.0343,-0.11539 0.06864,-0.23078 0.103995,-0.349665 0.0298,-0.100555 0.05963,-0.201115 0.09035,-0.30472 0.07666,-0.23991 0.07666,-0.23991 0.185085,-0.456765 z"
     fill="#5e4712"
     id="path196"
     style="stroke-width:0.108428" />
  <path
     d="m 50.129308,56.199778 c 0.0358,0 0.07156,0 0.108425,0 0.01215,0.09623 0.01215,0.09623 0.02455,0.194405 0.07508,0.451175 0.139045,0.794865 0.49047,1.10673 0.358425,0.220565 0.592985,0.270315 1.002955,0.32528 -0.25134,1.05916 -0.554385,2.10084 -0.865305,3.14356 -0.0532,0.179215 -0.106385,0.358435 -0.159545,0.537665 -0.1416,0.47718 -0.28354,0.95426 -0.42557,1.431315 -0.236105,0.793205 -0.471755,1.586545 -0.70752,2.37985 -0.08852,0.2978 -0.177085,0.59559 -0.26565,0.893375 -0.329135,1.107035 -0.656455,2.21457 -0.980895,3.32299 -0.136825,0.46725 -0.274105,0.934365 -0.41126,1.40152 -0.07119,0.243055 -0.14214,0.48618 -0.212825,0.729385 -1.091655,3.75519 -1.091655,3.75519 -2.280575,4.47787 -0.563535,0.21289 -1.071815,0.242485 -1.671735,0.245655 -0.09094,5e-4 -0.181865,0.001 -0.275555,0.002 -0.19239,10e-4 -0.384785,0.0015 -0.577175,0.002 -0.291745,0.001 -0.583405,0.0045 -0.87513,0.0079 -0.18756,5e-4 -0.37512,0.0015 -0.56268,0.0015 -0.0861,0.0015 -0.1722,0.0025 -0.26091,0.004 -0.715185,-0.003 -1.408685,-0.12216 -1.98346,-0.570335 -0.689825,-0.92492 -0.72205,-2.155555 -0.820835,-3.264275 0.13114,-0.0025 0.13114,-0.0025 0.26493,-0.005 0.399665,-0.0081 0.79924,-0.0186 1.19885,-0.0291 0.13753,-0.0025 0.275065,-0.005 0.416765,-0.0074 0.94672,-0.0271 1.7929,-0.08546 2.52561,-0.7609 1.387225,-1.62969 1.741795,-4.540095 2.333575,-6.56561 0.1166,-0.398775 0.23365,-0.797425 0.35065,-1.196085 0.60414,-2.05963 1.203325,-4.120695 1.800705,-6.182295 0.07488,-0.0144 0.14975,-0.02875 0.226895,-0.0436 0.09799,-0.01915 0.19599,-0.0383 0.29695,-0.058 0.09724,-0.01885 0.19448,-0.0377 0.294665,-0.05715 0.8161,-0.178435 1.348755,-0.65887 1.8583,-1.29698 0.04695,-0.05633 0.09392,-0.112655 0.142315,-0.17069 z"
     fill="#84681a"
     id="path198"
     style="stroke-width:0.108428" />
  <path
     d="m 67.369333,57.826193 c 1.21656,0 2.43312,0 3.686545,0 -0.07414,1.601665 -0.240755,3.189245 -0.415235,4.78271 -0.033,0.302015 -0.06578,0.60406 -0.09855,0.906105 -0.07741,0.713305 -0.1553,1.426555 -0.233505,2.139775 -0.08015,0.731075 -0.15937,1.462245 -0.23816,2.19347 -0.06822,0.63282 -0.13706,1.26557 -0.206375,1.898275 -0.04115,0.375715 -0.08208,0.75145 -0.122385,1.127255 -0.045,0.419215 -0.09127,0.83828 -0.137645,1.25734 -0.01285,0.121425 -0.0257,0.24285 -0.03895,0.36795 -0.30797,2.739515 -0.30797,2.739515 -1.03013,3.461675 -0.64956,0.41336 -1.301215,0.44006 -2.04954,0.43922 -0.09314,4.65e-4 -0.186275,0.001 -0.28223,0.0015 -0.19601,5e-4 -0.39202,5e-4 -0.588025,2.05e-4 -0.297915,-3.45e-4 -0.59571,0.002 -0.893605,0.005 -0.19137,2.45e-4 -0.382745,3.25e-4 -0.574115,2.1e-4 -0.08801,0.001 -0.176025,0.002 -0.2667,0.003 -0.82876,-0.0066 -1.56643,-0.224725 -2.18648,-0.796755 -0.693615,-0.853555 -0.956135,-2.00839 -1.264285,-3.04064 0.164775,-0.0025 0.164775,-0.0025 0.33288,-0.005 0.41167,-0.0063 0.82328,-0.0147 1.2349,-0.02365 0.177385,-0.0035 0.354785,-0.0066 0.532185,-0.0091 1.56303,0.03155 1.56303,0.03155 2.928375,-0.61978 0.55302,-0.999695 0.612635,-2.150275 0.731465,-3.26512 0.0203,-0.183325 0.04065,-0.366645 0.06113,-0.549955 0.05366,-0.483025 0.106115,-0.966175 0.15831,-1.44936 0.05169,-0.476585 0.104555,-0.953035 0.15731,-1.429505 0.124575,-1.127525 0.24704,-2.255275 0.36912,-3.383075 0.0213,-0.19652 0.0426,-0.393045 0.06388,-0.58957 0.123585,-1.14072 0.246755,-2.281485 0.36983,-3.42226 z"
     fill="#533588"
     id="path200"
     style="stroke-width:0.108428" />
  <path
     d="m 45.250053,32.454078 c 1.034555,0.215315 1.99824,0.42554 2.64293,1.321465 0.47205,0.78938 0.660675,1.559675 0.609905,2.47351 0.06695,0.01065 0.1339,0.02125 0.20288,0.0322 1.05975,0.18711 1.894435,0.46764 2.548475,1.36509 0.29679,0.44265 0.431395,0.777875 0.50148,1.313415 -0.12621,-0.004 -0.12621,-0.004 -0.254975,-0.0076 -1.646775,-0.0275 -3.22956,0.12228 -4.549735,1.19355 -1.319935,1.326235 -1.695615,3.341425 -2.21599,5.07578 -0.08247,0.27125 -0.16506,0.54246 -0.247775,0.81363 -0.15164,0.497975 -0.302665,0.99612 -0.452665,1.49459 -0.0329,0.108635 -0.06582,0.217265 -0.09973,0.32919 -0.06287,0.21136 -0.123695,0.42334 -0.182465,0.635875 -0.02745,0.09783 -0.05486,0.19567 -0.08311,0.29647 -0.02335,0.08619 -0.0467,0.172375 -0.07079,0.261175 -0.08328,0.208005 -0.08328,0.208005 -0.354345,0.397755 -0.27107,0.0271 -0.27107,0.0271 -0.596355,-0.18975 -0.21961,-0.0394 -0.21961,-0.0394 -0.4587,-0.0449 -0.13051,-0.0063 -0.13051,-0.0063 -0.263655,-0.0127 -0.09036,-0.0035 -0.180725,-0.0067 -0.273825,-0.01015 -0.137425,-0.0063 -0.137425,-0.0063 -0.277635,-0.0127 -0.22592,-0.0102 -0.4519,-0.0192 -0.677885,-0.02795 -0.0025,-1.595635 -0.0045,-3.19127 -0.0056,-4.786905 -5e-4,-0.740835 -0.0015,-1.481665 -0.0025,-2.222495 -10e-4,-0.71428 -0.002,-1.42856 -0.002,-2.14284 -2e-4,-0.273185 -5e-4,-0.54637 -0.001,-0.81956 -10e-4,-0.38117 -10e-4,-0.762335 -10e-4,-1.14351 -3.9e-4,-0.11418 -10e-4,-0.228355 -10e-4,-0.345995 2.25e-4,-0.154865 2.25e-4,-0.154865 4.5e-4,-0.312855 -1e-4,-0.09025 -2e-4,-0.180505 -3e-4,-0.273495 0.01335,-0.20469 0.01335,-0.20469 0.12177,-0.31312 0.20142,-0.01035 0.402905,-0.02 0.604505,-0.02595 1.00658,-0.03205 1.92325,-0.11846 2.743205,-0.76016 0.88383,-1.14378 1.02159,-2.12248 1.09783,-3.551015 z"
     fill="#646e18"
     id="path202"
     style="stroke-width:0.108428" />
  <path
     d="m 74.308713,32.454078 c 1.03456,0.215315 1.998245,0.42554 2.64293,1.321465 0.538154,0.82297 0.668749,1.768245 0.657344,2.73103 -0.001,0.09941 -0.002,0.19882 -0.003,0.301245 -0.02995,1.175035 -0.2769,2.07039 -1.113079,2.928295 -0.773235,0.663375 -1.71986,0.86474 -2.71959,0.91782 -0.07415,0.004 -0.148295,0.0084 -0.22469,0.0127 -0.18032,0.0101 -0.3607,0.01915 -0.541085,0.02795 -0.01065,0.09931 -0.02125,0.19863 -0.0322,0.30096 -0.100245,0.936495 -0.200725,1.87297 -0.301475,2.809415 -0.05178,0.48142 -0.10348,0.962855 -0.154965,1.444305 -0.0497,0.46473 -0.09963,0.929435 -0.149745,1.39412 -0.01905,0.177185 -0.03805,0.35438 -0.05693,0.53159 -0.0265,0.248415 -0.0533,0.4968 -0.08017,0.745175 -0.01515,0.141335 -0.03035,0.28267 -0.04595,0.42829 -0.03805,0.30595 -0.09394,0.60962 -0.1544,0.91194 -1.82484,-0.05367 -1.82484,-0.05367 -3.686545,-0.108425 0.26712,-2.648915 0.54476,-5.296645 0.828455,-7.94383 0.0397,-0.37052 0.07916,-0.74107 0.118435,-1.111635 0.047,-0.4432 0.09445,-0.886345 0.14226,-1.329455 0.01785,-0.166255 0.03555,-0.33253 0.05309,-0.49882 0.02415,-0.229005 0.04895,-0.457935 0.07384,-0.686855 0.01385,-0.129545 0.0277,-0.25909 0.042,-0.39256 0.04305,-0.28919 0.04305,-0.28919 0.151475,-0.39762 0.24605,-0.01465 0.49234,-0.02515 0.738665,-0.0339 1.09026,-0.06012 2.074025,-0.275365 2.880965,-1.058865 0.781295,-0.928495 0.867685,-2.07792 0.93434,-3.244365 z"
     fill="#5957a8"
     id="path204"
     style="stroke-width:0.108428" />
  <path
     d="m 77.561547,36.249053 c 1.124565,0.17843 2.04675,0.4396 2.747545,1.389655 0.816375,1.20918 0.77882,2.8201 0.5468,4.2181 -0.24594,0.84446 -0.72046,1.530285 -1.456575,2.02243 -0.972405,0.51547 -1.920385,0.536325 -3.030474,0.61033 -0.178905,1.538595 -0.35781,3.077185 -0.54214,4.6624 -0.64406,0.0358 -1.28812,0.07156 -1.9517,0.108425 -0.842785,0.219695 -0.842785,0.219695 -1.08428,0.65057 -0.42685,-0.142285 -0.6752,-0.316515 -0.97585,-0.65057 0.07156,0 0.143125,0 0.216855,0 0.0058,-0.09002 0.01165,-0.180035 0.01765,-0.27278 0.0663,-0.979805 0.15844,-1.95494 0.26359,-2.931345 0.0166,-0.155585 0.0332,-0.31117 0.0498,-0.466755 0.03445,-0.32229 0.0691,-0.64456 0.103885,-0.966815 0.04465,-0.413645 0.08856,-0.827355 0.132325,-1.241085 0.0339,-0.31954 0.06824,-0.63903 0.1027,-0.958505 0.0164,-0.152725 0.03265,-0.305465 0.04875,-0.45822 0.02235,-0.21175 0.0454,-0.42343 0.06845,-0.635105 0.0129,-0.120385 0.02585,-0.24077 0.03915,-0.3648 0.0411,-0.270385 0.0411,-0.270385 0.14955,-0.378815 0.24605,-0.0146 0.49234,-0.02515 0.738665,-0.0339 1.09026,-0.06012 2.074025,-0.275365 2.880965,-1.058865 0.781294,-0.928495 0.867689,-2.07792 0.934339,-3.244365 z"
     fill="#3f4075"
     id="path206"
     style="stroke-width:0.108428" />
  <path
     d="m 36.714748,49.752558 c 0.10916,4.15e-4 0.218325,10e-4 0.33079,0.0015 0.17003,0.004 0.17003,0.004 0.343495,0.008 0.113355,1.4e-4 0.22671,2.8e-4 0.3435,4.25e-4 0.91662,0.01055 0.91662,0.01055 1.337135,0.25709 0.07156,-0.07156 0.143125,-0.143125 0.216855,-0.216855 0.4972,-0.05315 0.997945,-0.04015 1.49766,-0.04065 0.20892,-0.004 0.20892,-0.004 0.422065,-0.0081 0.134245,-4.2e-4 0.268495,-10e-4 0.406815,-0.0015 0.12297,-10e-4 0.24594,-0.002 0.37264,-0.0025 0.410175,0.06415 0.58968,0.19309 0.87894,0.48639 0.072,0.331635 0.072,0.331635 0.06777,0.698 0.002,0.180935 0.002,0.180935 0.004,0.36552 -0.072,0.34604 -0.072,0.34604 -0.343495,0.570915 -0.388005,0.45484 -0.344215,0.82262 -0.33587,1.40239 -10e-4,0.104355 -0.0015,0.20871 -0.0025,0.316225 -0.0025,0.332585 -0.0015,0.665025 9e-5,0.997615 4.2e-4,0.333335 5e-5,0.66661 -0.002,0.999935 -0.0015,0.207195 -10e-4,0.414405 0.001,0.62159 -5e-4,0.14061 -5e-4,0.14061 -0.001,0.28406 4.3e-4,0.0824 0.001,0.164795 0.0015,0.249685 -0.05131,0.280735 -0.135825,0.3748 -0.364865,0.54187 -0.31689,0.03235 -0.605405,0.0454 -0.92164,0.04065 -0.08372,0.0015 -0.167445,0.0025 -0.253705,0.004 -0.620755,-0.003 -0.620755,-0.003 -0.857045,-0.209815 -0.06741,-0.07917 -0.06741,-0.07917 -0.13617,-0.15994 -0.07498,0.03505 -0.149955,0.07006 -0.227205,0.10615 -0.590945,0.20773 -1.219345,0.15074 -1.8397,0.151365 -0.13872,0.0025 -0.277445,0.0053 -0.42037,0.008 -0.199695,5e-4 -0.199695,5e-4 -0.403425,0.0015 -0.12147,10e-4 -0.24294,0.002 -0.36809,0.0025 -0.391035,-0.06451 -0.51739,-0.17283 -0.75304,-0.48639 -0.0576,-0.35917 -0.0576,-0.35917 -0.05421,-0.758995 -0.001,-0.131945 -0.002,-0.26389 -0.0035,-0.39983 0.06633,-0.41358 0.15964,-0.545365 0.49131,-0.79288 0.07156,0 0.143125,0 0.21686,0 0,-0.858745 0,-1.717495 0,-2.602265 -0.143125,-0.07156 -0.28625,-0.143125 -0.433715,-0.216855 -0.255335,-0.38301 -0.25236,-0.568945 -0.257515,-1.02329 -0.003,-0.12286 -0.0062,-0.245715 -0.0093,-0.372295 0.09257,-0.62836 0.45013,-0.828385 1.056325,-0.82295 z"
     fill="#1a6e0b"
     id="path208"
     style="stroke-width:0.108428" />
  <path
     d="m 61.609103,49.646668 c 0.137745,-0.0035 0.137745,-0.0035 0.27827,-0.0065 0.96604,5e-4 1.763875,0.34688 2.460805,1.015875 0.889265,1.01604 0.957895,2.059135 0.90088,3.356605 -0.08188,1.14796 -0.47404,1.96793 -1.349415,2.729335 -1.03359,0.665105 -2.172455,0.64994 -3.361265,0.542135 -0.845575,-0.207595 -1.485,-0.79552 -1.9517,-1.51799 -0.393985,-0.768245 -0.511285,-1.45982 -0.50148,-2.317645 0.001,-0.109515 0.002,-0.219035 0.003,-0.331875 0.0358,-1.160135 0.343835,-1.909735 1.196495,-2.72443 0.729685,-0.62487 1.39362,-0.753165 2.32442,-0.745445 z"
     fill="#eb5a27"
     id="path210"
     style="stroke-width:0.108428" />
  <path
     d="m 74.648398,49.744933 c 0.08586,-4.15e-4 0.171725,-0.001 0.260185,-0.0015 0.18173,-2.95e-4 0.363465,5e-4 0.54519,0.0025 0.274915,0.0025 0.549525,3e-5 0.82443,-0.003 1.142809,-0.002 2.114789,0.04745 3.004639,0.8454 0.73515,0.804505 0.90224,1.634805 0.90808,2.690365 0.002,0.09805 0.0045,0.196095 0.0068,0.297115 0.0061,1.061625 -0.218365,1.99845 -0.951285,2.79604 -0.93501,0.897695 -2.14639,0.8585 -3.364229,0.851835 -0.26057,-0.001 -0.520895,0.002 -0.78144,0.0056 -0.166595,1.75e-4 -0.33319,1.15e-4 -0.499785,-2.1e-4 -0.07737,10e-4 -0.154745,0.0025 -0.23446,0.0035 -0.367245,-0.0052 -0.56743,-0.03325 -0.86533,-0.25525 -0.239105,-0.33519 -0.22598,-0.587205 -0.222525,-0.994935 -10e-4,-0.131945 -0.002,-0.26389 -0.0035,-0.39983 0.06633,-0.41358 0.15964,-0.545365 0.49131,-0.79288 0.07156,0 0.143125,0 0.21686,0 0,-0.858745 0,-1.717495 0,-2.602265 -0.143125,-0.07156 -0.28625,-0.143125 -0.433715,-0.216855 -0.30898,-0.308985 -0.25304,-0.531835 -0.257515,-0.9623 -0.003,-0.1339 -0.0062,-0.2678 -0.0093,-0.405755 0.05,-0.36679 0.05,-0.36679 0.214845,-0.60297 0.371505,-0.27296 0.70692,-0.25988 1.15067,-0.255135 z"
     fill="#eb5a27"
     id="path212"
     style="stroke-width:0.108428" />
  <path
     d="m 44.613888,49.744933 c 0.08586,-4.15e-4 0.17172,-0.001 0.260185,-0.0015 0.18173,-2.95e-4 0.363465,5e-4 0.545185,0.0025 0.27492,0.0025 0.549525,3e-5 0.824435,-0.003 1.14281,-0.002 2.11479,0.04745 3.004635,0.8454 0.735155,0.804505 0.90224,1.634805 0.908085,2.690365 0.002,0.09805 0.0045,0.196095 0.0068,0.297115 0.0061,1.061625 -0.21836,1.99845 -0.951285,2.79604 -0.935005,0.897695 -2.14639,0.8585 -3.364225,0.851835 -0.260575,-0.001 -0.520895,0.002 -0.781445,0.0056 -0.166595,1.75e-4 -0.33319,1.15e-4 -0.499785,-2.1e-4 -0.07737,10e-4 -0.15474,0.0025 -0.234455,0.0035 -0.36725,-0.0052 -0.56743,-0.03325 -0.865335,-0.25525 -0.2391,-0.33519 -0.225975,-0.587205 -0.22252,-0.994935 -10e-4,-0.131945 -0.002,-0.26389 -0.0035,-0.39983 0.06633,-0.41358 0.159645,-0.545365 0.491315,-0.79288 0.07156,0 0.143125,0 0.216855,0 0,-0.858745 0,-1.717495 0,-2.602265 -0.143125,-0.07156 -0.28625,-0.143125 -0.43371,-0.216855 -0.30898,-0.308985 -0.25304,-0.531835 -0.257515,-0.9623 -0.003,-0.1339 -0.0061,-0.2678 -0.0093,-0.405755 0.05,-0.36679 0.05,-0.36679 0.214845,-0.60297 0.371505,-0.27296 0.70692,-0.25988 1.15067,-0.255135 z"
     fill="#eb5a27"
     id="path214"
     style="stroke-width:0.108428" />
  <path
     d="m 67.870388,49.744933 c 0.15238,-5e-4 0.15238,-5e-4 0.30784,-0.0015 0.214635,-2.95e-4 0.42927,5e-4 0.643895,0.0025 0.327975,0.0025 0.65569,2e-5 0.98366,-0.003 0.20874,2.85e-4 0.417475,10e-4 0.626215,0.0015 0.09783,-10e-4 0.19565,-0.002 0.29644,-0.0025 0.450515,0.0067 0.70038,0.0238 1.09382,0.25999 0.357825,0.399695 0.28316,0.7969 0.26072,1.308945 -0.05125,0.3346 -0.05125,0.3346 -0.261325,0.693765 -0.33206,0.182975 -0.33206,0.182975 -1.307915,0.182975 0,0.858745 0,1.717495 0,2.602265 0.322035,0 0.644065,0 0.975855,0 0.32782,0.17323 0.32782,0.17323 0.542135,0.433715 0.07201,0.331635 0.07201,0.331635 0.06777,0.698 0.0015,0.120625 0.003,0.241245 0.004,0.365525 -0.09638,0.46318 -0.239365,0.6006 -0.61414,0.888175 -0.343675,0.07896 -0.6786,0.07605 -1.030065,0.072 -0.09903,5e-4 -0.198055,0.001 -0.300085,0.0015 -0.20888,3.65e-4 -0.417765,-5e-4 -0.626635,-0.003 -0.319215,-0.003 -0.638015,-2.5e-5 -0.957215,0.0035 -0.203305,-3.6e-4 -0.406605,-10e-4 -0.609905,-0.002 -0.142675,0.0015 -0.142675,0.0015 -0.288225,0.0035 -0.47881,-0.0091 -0.68186,-0.02935 -1.07303,-0.329275 -0.261555,-0.35733 -0.280595,-0.56035 -0.27194,-0.999755 -2.1e-4,-0.18135 -2.1e-4,-0.18135 -4.25e-4,-0.366365 0.06141,-0.331635 0.06141,-0.331635 0.214315,-0.59212 0.28081,-0.17323 0.28081,-0.17323 1.36509,-0.17323 0,-0.858745 0,-1.717495 0,-2.602265 -0.32203,0 -0.64406,0 -0.97585,0 -0.33206,-0.182975 -0.33206,-0.182975 -0.54214,-0.54214 -0.1647,-1.161725 -0.1647,-1.161725 0.155495,-1.643545 0.421935,-0.302905 0.81403,-0.261875 1.32141,-0.25733 z"
     fill="#196d0c"
     id="path216"
     style="stroke-width:0.108428" />
  <path
     d="m 52.883418,50.418158 c 0.111285,3.55e-4 0.111285,3.55e-4 0.22482,5e-4 0.223015,3.4e-4 0.445865,-0.002 0.66886,-0.005 0.949465,-4.65e-4 1.774955,0.0132 2.532595,0.628755 0.37035,0.47451 0.36576,0.87352 0.325285,1.47055 -0.17975,0.55816 -0.37065,0.874265 -0.867425,1.19271 -0.07156,0 -0.143125,0 -0.216855,0 0.07044,0.107065 0.14089,0.214125 0.21347,0.324435 0.09151,0.14032 0.182995,0.280655 0.274455,0.421005 0.04655,0.07059 0.09309,0.14117 0.14104,0.21389 0.346885,0.534095 0.346885,0.534095 0.346885,0.775515 0.08275,-0.0067 0.16549,-0.0134 0.25074,-0.02035 0.2914,0.02035 0.2914,0.02035 0.4947,0.149085 0.121985,0.196525 0.121985,0.196525 0.101655,0.474375 -0.0881,0.26429 -0.0881,0.26429 -0.304955,0.481145 -0.44709,0.08888 -0.854425,0.09141 -1.301135,0 -0.34621,-0.266365 -0.53939,-0.602365 -0.758995,-0.97585 -0.14508,-0.23601 -0.29195,-0.470925 -0.440485,-0.70478 -0.06611,-0.110695 -0.132225,-0.221395 -0.20034,-0.33545 -0.2106,-0.292175 -0.2106,-0.292175 -0.578565,-0.35239 -0.09853,-0.0056 -0.197075,-0.0112 -0.2986,-0.01695 0,0.429375 0,0.85875 0,1.301135 0.143125,0.0358 0.28625,0.07156 0.433715,0.108425 0.108425,0.10843 0.108425,0.10843 0.13553,0.426935 -0.0134,0.16437 -0.0134,0.16437 -0.0271,0.33206 -0.331585,0.22106 -0.40233,0.244495 -0.77636,0.24566 -0.08603,2.8e-4 -0.172055,5e-4 -0.26069,0.001 -0.08939,-0.001 -0.17877,-0.0015 -0.27086,-0.0025 -0.0898,0.001 -0.179605,0.0015 -0.27213,0.0025 -0.08589,-2.8e-4 -0.171775,-5e-4 -0.26027,-0.001 -0.07856,-2.45e-4 -0.157115,-4.9e-4 -0.238055,-5e-4 -0.19862,-0.02805 -0.19862,-0.02805 -0.415475,-0.244915 -0.0271,-0.32528 -0.0271,-0.32528 0,-0.650565 0.07156,-0.07156 0.143125,-0.143125 0.216855,-0.216855 0.107345,0 0.21469,0 0.325285,0 0,-1.288125 0,-2.576245 0,-3.903405 -0.143125,-0.0358 -0.28625,-0.07156 -0.43371,-0.108425 -0.10843,-0.10843 -0.10843,-0.10843 -0.12876,-0.426935 0.04775,-0.77998 0.75395,-0.580545 1.36488,-0.58386 z"
     fill="#eb5a27"
     id="path218"
     style="stroke-width:0.108428" />
  <path
     d="m 74.874148,49.104953 c 0.13909,-0.001 0.13909,-0.001 0.280985,-0.0015 0.194905,-5e-4 0.389815,-5e-4 0.58472,3.7e-4 0.295795,0.001 0.591365,-0.002 0.88714,-0.0056 0.190525,-1.75e-4 0.381049,-1.1e-4 0.571574,2.15e-4 0.08711,-0.001 0.174225,-0.0025 0.263975,-0.0035 0.95763,0.0116 1.705435,0.396295 2.398865,1.041375 0.85873,0.92436 0.99346,1.878075 0.99316,3.10608 4.75e-4,0.21801 0.0045,0.435775 0.0085,0.65374 0.0035,1.123205 -0.153085,2.02396 -0.92291,2.880115 -0.07282,0.08456 -0.14564,0.169125 -0.220665,0.256245 -1.109835,0.888765 -2.23518,0.879345 -3.599959,0.86483 -0.32795,-0.003 -0.655505,-1e-5 -0.983445,0.0035 -0.20987,-3.55e-4 -0.419735,-0.001 -0.629605,-0.002 -0.09726,10e-4 -0.19451,0.002 -0.294715,0.0035 -0.47096,-0.0088 -0.78639,-0.03845 -1.16236,-0.337345 -0.25871,-0.280125 -0.25871,-0.280125 -0.25871,-0.49698 -0.161015,0.05367 -0.161015,0.05367 -0.32528,0.10843 0.0025,-0.06285 0.0045,-0.125705 0.0069,-0.190465 0.0091,-0.286625 0.01465,-0.57322 0.02025,-0.85993 0.0035,-0.09889 0.0072,-0.197775 0.011,-0.29966 0.0067,-0.46147 0.0066,-0.74097 -0.227865,-1.147175 -0.23757,-0.207875 -0.406285,-0.31547 -0.70478,-0.40999 -0.13418,-0.0425 -0.26836,-0.08498 -0.406605,-0.12876 0,-0.429375 0,-0.85875 0,-1.301135 0.24354,-0.09883 0.487075,-0.197655 0.730615,-0.29648 0.285045,-0.159505 0.39888,-0.294375 0.57052,-0.57094 0.0443,-0.250735 0.0443,-0.250735 0.03175,-0.51673 -0.001,-0.09644 -0.002,-0.19288 -0.003,-0.292245 -0.0025,-0.0998 -0.0054,-0.19959 -0.0083,-0.30241 -0.0015,-0.101475 -0.003,-0.20295 -0.0045,-0.307495 -0.004,-0.24996 -0.0092,-0.499785 -0.0159,-0.74968 0.10734,0.0358 0.214685,0.07156 0.32528,0.10843 0.0179,-0.06486 0.0358,-0.12971 0.05421,-0.196525 0.42914,-0.625825 1.340365,-0.611995 2.02921,-0.609485 z m -1.37761,0.894875 c -0.232675,0.336085 -0.22132,0.59036 -0.21789,0.995415 -0.001,0.13194 -0.002,0.263885 -0.0035,0.399825 0.06632,0.41358 0.15964,0.545365 0.49131,0.79288 0.07157,0 0.143125,0 0.21686,0 0,0.858745 0,1.717495 0,2.602265 -0.143125,0.07156 -0.28625,0.143125 -0.433715,0.21686 -0.30898,0.30898 -0.25304,0.53183 -0.257515,0.962295 -0.003,0.1339 -0.0062,0.2678 -0.0093,0.405755 0.0208,0.364365 0.0208,0.364365 0.21781,0.60321 0.35888,0.2663 0.670455,0.25785 1.10027,0.251085 0.08104,1.6e-4 0.162095,3.15e-4 0.2456,4.8e-4 0.171525,-1.8e-4 0.34305,-0.0015 0.51456,-0.0035 0.25918,-0.003 0.51812,-0.002 0.77731,-0.001 1.277119,-0.0015 2.313144,-0.07464 3.275709,-0.998085 0.711105,-0.837365 0.772485,-1.82117 0.78356,-2.87376 0.003,-0.09798 0.0063,-0.19596 0.0095,-0.29691 0.0096,-1.02528 -0.33391,-1.775945 -1.026045,-2.524755 -0.67171,-0.598585 -1.421125,-0.746905 -2.296889,-0.755185 -0.08756,-10e-4 -0.175115,-0.0015 -0.265325,-0.0025 -0.185105,-0.0015 -0.370215,-0.0025 -0.55532,-0.0035 -0.28298,-0.002 -0.56582,-0.0067 -0.84876,-0.0114 -0.179935,-0.001 -0.359875,-0.002 -0.53981,-0.003 -0.0845,-0.002 -0.16899,-0.004 -0.256045,-0.0058 -0.38416,0.0015 -0.60815,0.01955 -0.9225,0.249215 z"
     fill="#3a266d"
     id="path220"
     style="stroke-width:0.108428" />
  <path
     d="m 37.361928,50.378558 c 0.14145,-0.0093 0.282895,-0.01875 0.42863,-0.0284 0.450315,0.11258 0.49458,0.14867 0.7429,0.510375 0.10988,0.1875 0.216055,0.377195 0.319355,0.5684 0.06024,0.106985 0.12048,0.21397 0.182545,0.324195 0.1914,0.344075 0.377745,0.69046 0.562895,1.03793 0.09644,0.17957 0.09644,0.17957 0.19483,0.362765 0.156865,0.292225 0.31314,0.58477 0.46929,0.877375 0.0358,-0.822965 0.07156,-1.645935 0.10843,-2.49384 -0.21469,0 -0.429375,0 -0.65057,0 -0.216855,-0.216855 -0.216855,-0.216855 -0.24396,-0.542135 0.0271,-0.325285 0.0271,-0.325285 0.24396,-0.54214 0.218525,-0.02805 0.218525,-0.02805 0.484115,-0.0288 0.09567,-2.75e-4 0.191345,-5e-4 0.289915,-0.001 0.100145,0.001 0.20029,0.0015 0.30347,0.0025 0.09973,-0.001 0.199455,-0.0015 0.302205,-0.0025 0.143715,4.2e-4 0.143715,4.2e-4 0.29034,0.001 0.13165,3.7e-4 0.13165,3.7e-4 0.26596,5e-4 0.232555,0.02805 0.232555,0.02805 0.557835,0.244915 0.04065,0.325285 0.04065,0.325285 0,0.650565 -0.32528,0.216855 -0.32528,0.216855 -0.650565,0.216855 2.4e-4,0.06224 4.8e-4,0.12449 5e-4,0.188625 0.0025,0.64546 0.004,1.29092 0.0052,1.93639 5e-4,0.24117 0.0015,0.482345 0.002,0.72352 0.0015,0.345835 0.002,0.691665 0.0025,1.037505 5e-4,0.10854 10e-4,0.21708 0.0015,0.328905 5e-6,0.09985 1.5e-5,0.1997 2.5e-5,0.302575 2.4e-4,0.08837 4.8e-4,0.17673 5e-4,0.26777 -0.01305,0.20239 -0.01305,0.20239 -0.12147,0.31082 -0.208805,0.02965 -0.208805,0.02965 -0.467595,0.04065 -0.08456,0.0053 -0.16912,0.01065 -0.256245,0.0161 -0.37194,-0.08377 -0.4643,-0.293415 -0.68572,-0.598895 -0.146095,-0.245385 -0.286085,-0.489915 -0.421855,-0.74078 -0.0379,-0.06903 -0.07578,-0.138055 -0.114825,-0.20917 -0.119775,-0.21845 -0.23882,-0.43728 -0.35785,-0.656135 -0.08155,-0.149045 -0.16316,-0.298065 -0.24481,-0.447055 -0.19914,-0.36341 -0.397295,-0.72734 -0.595505,-1.091265 -0.0358,0.822965 -0.07156,1.645935 -0.10843,2.49384 0.21469,0 0.429375,0 0.65057,0 0.216855,0.216855 0.216855,0.216855 0.250735,0.54214 -0.0112,0.10734 -0.02235,0.214685 -0.0339,0.32528 -0.34314,0.22876 -0.430885,0.244565 -0.8238,0.24566 -0.143715,4.2e-4 -0.143715,4.2e-4 -0.29034,10e-4 -0.09972,-10e-4 -0.19945,-0.0015 -0.3022,-0.0025 -0.100145,10e-4 -0.20029,0.0015 -0.30347,0.0025 -0.14351,-4.2e-4 -0.14351,-4.2e-4 -0.28992,-10e-4 -0.08765,-2.45e-4 -0.17529,-4.9e-4 -0.26559,-5e-4 -0.21852,-0.02805 -0.21852,-0.02805 -0.435375,-0.244915 -0.0271,-0.32528 -0.0271,-0.32528 0,-0.650565 0.07156,-0.07156 0.14312,-0.143125 0.216855,-0.216855 0.143125,0 0.28625,0 0.43371,0 0,-1.288125 0,-2.576245 0,-3.903405 -0.178905,-0.0358 -0.35781,-0.07156 -0.54214,-0.108425 -0.06777,-0.365945 -0.06777,-0.365945 -0.108425,-0.758995 0.31445,-0.314455 0.564535,-0.27206 1.002955,-0.2914 z"
     fill="#ec5a27"
     id="path222"
     style="stroke-width:0.108428" />
  <path
     d="m 30.924023,50.405663 c 0.119505,-0.0035 0.23901,-0.0071 0.362135,-0.0108 0.11503,-10e-4 0.23006,-0.0015 0.34858,-0.0025 0.15805,-0.002 0.15805,-0.002 0.3193,-0.0045 0.284675,0.06499 0.284675,0.06499 0.51588,0.279195 0.25713,0.416385 0.4166,0.8374 0.57692,1.298275 0.0331,0.09258 0.06616,0.18516 0.100245,0.280545 0.06936,0.19475 0.13823,0.389685 0.206615,0.58479 0.105,0.299485 0.211505,0.5984 0.318295,0.897255 0.06729,0.189505 0.134495,0.37904 0.20161,0.56861 0.04775,0.134515 0.04775,0.134515 0.09649,0.27175 0.220315,0.629955 0.220315,0.629955 0.220315,0.87225 0.08722,0.01565 0.174435,0.0313 0.264295,0.04745 0.277845,0.06099 0.277845,0.06099 0.386275,0.16942 0.0271,0.318505 0.0271,0.318505 0,0.650565 -0.348695,0.232465 -0.445675,0.244595 -0.84752,0.24566 -0.151055,4.2e-4 -0.151055,4.2e-4 -0.305165,10e-4 -0.104895,-10e-4 -0.209795,-0.0015 -0.31787,-0.0025 -0.157975,0.0015 -0.157975,0.0015 -0.31914,0.0025 -0.100565,-2.8e-4 -0.20113,-5e-4 -0.304745,-10e-4 -0.09219,-2.45e-4 -0.184375,-4.9e-4 -0.279355,-5e-4 -0.228475,-0.02805 -0.228475,-0.02805 -0.44533,-0.244915 -0.0271,-0.32528 -0.0271,-0.32528 0,-0.650565 0.216855,-0.216855 0.216855,-0.216855 0.50148,-0.23041 0.08498,0.0045 0.16996,0.0089 0.257515,0.01355 -0.05367,-0.32203 -0.05367,-0.32203 -0.10843,-0.65057 -0.751405,0 -1.50281,0 -2.276985,0 -0.0358,0.21469 -0.07156,0.429375 -0.108425,0.65057 0.105105,0.01565 0.210215,0.0313 0.318505,0.04745 0.33206,0.06099 0.33206,0.06099 0.44049,0.16942 -0.0339,0.379495 -0.0339,0.379495 -0.10843,0.758995 -0.383405,0.1917 -0.82467,0.12845 -1.24692,0.12876 -0.09546,0.0015 -0.190925,0.0025 -0.28928,0.004 -0.09127,2.1e-4 -0.18254,4.2e-4 -0.276575,5e-4 -0.08379,4.45e-4 -0.167585,0.001 -0.25392,0.0015 -0.21029,-0.02635 -0.21029,-0.02635 -0.427145,-0.243195 -0.0271,-0.32528 -0.0271,-0.32528 0,-0.650565 0.07156,-0.07157 0.143125,-0.143125 0.216855,-0.216855 0.143125,0 0.28625,0 0.433715,0 0.0176,-0.06951 0.03515,-0.13902 0.05328,-0.210635 0.215185,-0.82191 0.48745,-1.614815 0.78025,-2.411965 0.06761,-0.18586 0.06761,-0.18586 0.136595,-0.375475 0.10991,-0.301935 0.22025,-0.6037 0.331,-0.90533 -0.18114,0.0067 -0.18114,0.0067 -0.36594,0.01355 -0.393055,-0.01355 -0.393055,-0.01355 -0.60991,-0.23041 -0.0271,-0.32528 -0.0271,-0.32528 0,-0.650565 0.387315,-0.387315 0.980345,-0.261555 1.504435,-0.264295 z"
     fill="#ea5a27"
     id="path224"
     style="stroke-width:0.108428" />
  <path
     d="m 52.278803,49.744933 c 0.14001,-5e-4 0.14001,-5e-4 0.282845,-0.0015 0.1975,-2.95e-4 0.395,5e-4 0.592495,0.0025 0.29966,0.0025 0.599035,2.5e-5 0.898685,-0.003 0.1925,2.85e-4 0.385005,10e-4 0.577505,0.0015 0.08847,-10e-4 0.176945,-0.002 0.268095,-0.0025 0.822875,0.0132 1.52953,0.254865 2.122825,0.839585 0.4438,0.65338 0.390155,1.609535 0.26429,2.365085 -0.11635,0.35491 -0.271025,0.675145 -0.47437,0.989405 -0.09735,0.21874 -0.09735,0.21874 0.04745,0.487925 0.239985,0.29417 0.40187,0.346195 0.75222,0.47437 0.297675,0.23639 0.4199,0.364455 0.495125,0.74163 -1.4e-4,0.110835 -2.8e-4,0.221675 -4.25e-4,0.33587 0.0025,0.11056 0.005,0.22112 0.0072,0.335025 -0.09567,0.4522 -0.231545,0.599645 -0.61033,0.86446 -0.363775,0.07746 -0.71358,0.07582 -1.084275,0.06777 -0.144665,0.003 -0.144665,0.003 -0.29225,0.0063 -0.467965,-0.0035 -0.78852,-0.0083 -1.130865,-0.349425 -0.06709,-0.08805 -0.13418,-0.17611 -0.203305,-0.266835 -0.07799,0.0882 -0.155985,0.17639 -0.23634,0.26726 -0.53005,0.440565 -1.182785,0.34919 -1.83734,0.33587 -0.12789,0.001 -0.25578,0.0025 -0.387545,0.0035 -0.936225,-0.008 -0.936225,-0.008 -1.26148,-0.262835 -0.25578,-0.33331 -0.23843,-0.579025 -0.23491,-0.99446 -10e-4,-0.131945 -0.002,-0.26389 -0.0035,-0.39983 0.0576,-0.359165 0.0576,-0.359165 0.27446,-0.5612 0.27318,-0.29185 0.2726,-0.433815 0.274455,-0.82803 5e-4,-0.114055 0.001,-0.228105 0.0015,-0.345615 -0.0015,-0.118525 -0.0035,-0.23705 -0.0051,-0.359165 0.0015,-0.118525 0.0035,-0.237055 0.0051,-0.35917 -5e-4,-0.11405 -10e-4,-0.228105 -0.0015,-0.345615 -4.85e-4,-0.103985 -10e-4,-0.207975 -0.0015,-0.315115 -0.07115,-0.35658 -0.228525,-0.471505 -0.48983,-0.71495 -0.05761,-0.359165 -0.05761,-0.359165 -0.05421,-0.75899 -0.001,-0.131945 -0.002,-0.26389 -0.0035,-0.39983 0.13733,-0.85629 0.71467,-0.85767 1.448105,-0.85048 z m -0.739935,0.925025 c -0.03615,0.325285 -0.03615,0.325285 0,0.650565 0.07156,0.07156 0.143125,0.143125 0.216855,0.216855 0.107345,0 0.21469,0 0.325285,0 0,1.288125 0,2.576245 0,3.903405 -0.21469,0.05367 -0.21469,0.05367 -0.43371,0.108425 -0.144415,0.12054 -0.144415,0.12054 -0.12876,0.426935 -0.01575,0.343875 -0.01575,0.343875 0.237185,0.548915 0.204475,0.0335 0.204475,0.0335 0.436675,0.0288 0.08589,2.8e-4 0.17178,5e-4 0.26027,0.001 0.0898,-0.001 0.179605,-0.0015 0.27213,-0.0025 0.08939,0.001 0.178765,0.0015 0.27086,0.0025 0.08602,-2.8e-4 0.172055,-5e-4 0.26069,-0.001 0.118025,-3.7e-4 0.118025,-3.7e-4 0.23843,-5e-4 0.2475,-0.01675 0.2475,-0.01675 0.53793,-0.244915 0.0452,-0.32528 0.0452,-0.32528 0,-0.650565 -0.07156,-0.07156 -0.143125,-0.143125 -0.216855,-0.216855 -0.107345,0 -0.214685,0 -0.325285,0 0,-0.429375 0,-0.85875 0,-1.301135 0.40954,0.0577 0.65579,0.104385 0.940115,0.41423 0.17786,0.25435 0.342475,0.51305 0.50333,0.778475 0.11236,0.17856 0.224875,0.357015 0.33757,0.535365 0.04855,0.07925 0.09708,0.1585 0.1471,0.24015 0.131865,0.21474 0.131865,0.21474 0.34887,0.41719 0.30289,0.03885 0.30289,0.03885 0.64379,0.0339 0.11503,0.002 0.230065,0.0035 0.34858,0.0055 0.308385,-0.01445 0.308385,-0.01445 0.51376,-0.18678 0.14891,-0.18066 0.14891,-0.18066 0.09996,-0.45574 -0.07143,-0.27995 -0.07143,-0.27995 -0.304955,-0.481145 -0.28013,-0.0181 -0.28013,-0.0181 -0.54214,0 -0.02765,-0.07645 -0.05535,-0.15291 -0.08386,-0.23168 -0.14552,-0.339695 -0.32462,-0.631095 -0.526045,-0.940695 -0.06849,-0.10581 -0.136975,-0.211615 -0.20754,-0.320625 -0.05228,-0.07981 -0.104545,-0.15962 -0.158405,-0.241845 0.08442,-0.03045 0.168845,-0.06094 0.25582,-0.09233 0.41073,-0.17863 0.635305,-0.454845 0.80135,-0.869965 0.07843,-0.66666 0.0465,-1.15909 -0.298175,-1.748395 -0.79398,-0.64891 -1.754275,-0.562345 -2.71988,-0.562235 -0.22843,-2.35e-4 -0.4568,-0.002 -0.68522,-0.0045 -0.145065,-3.2e-4 -0.29013,-5e-4 -0.435195,-5e-4 -0.197535,-5e-4 -0.197535,-5e-4 -0.39906,-0.0015 -0.32834,-0.0066 -0.32834,-0.0066 -0.53147,0.243195 z"
     fill="#1b6d0c"
     id="path226"
     style="stroke-width:0.108428" />
  <path
     d="m 30.682128,49.728123 c 0.240585,-1.3e-4 0.480455,-0.0066 0.72093,-0.01345 0.154025,-10e-4 0.308055,-0.0015 0.462085,-0.0015 0.208795,-0.002 0.208795,-0.002 0.4218,-0.0035 0.5382,0.12991 0.747625,0.392555 1.03605,0.85204 0.15073,0.297825 0.26408,0.600945 0.37187,0.916555 0.04555,0.12719 0.04555,0.12719 0.09202,0.256955 0.06325,0.177585 0.12572,0.35546 0.187415,0.533595 0.0946,0.27305 0.19156,0.54517 0.288965,0.81723 0.06141,0.173325 0.12269,0.346695 0.18382,0.520115 0.0288,0.08132 0.05759,0.162645 0.08725,0.246435 0.11252,0.32597 0.198225,0.59037 0.198225,0.9378 0.12747,0.04695 0.12747,0.04695 0.257515,0.09487 0.284625,0.121985 0.284625,0.121985 0.50148,0.33884 0.04025,0.33799 0.04025,0.33799 0.04745,0.74544 0.0065,0.20085 0.0065,0.20085 0.01315,0.405755 -0.06057,0.366795 -0.06057,0.366795 -0.289835,0.60345 -0.378845,0.23861 -0.597265,0.25016 -1.042215,0.247035 -0.138655,-4.2e-4 -0.277305,-0.001 -0.42016,-0.0015 -0.107395,-0.002 -0.107395,-0.002 -0.21696,-0.004 -0.219415,-0.004 -0.438635,-0.0045 -0.658085,-0.0045 -1.07415,-0.0097 -1.07415,-0.0097 -1.44514,-0.25709 -0.107345,0.07156 -0.214685,0.143125 -0.325285,0.216855 -0.484055,0.05103 -0.97054,0.04015 -1.457,0.04065 -0.134525,0.0025 -0.269055,0.0053 -0.40766,0.008 -0.193825,5e-4 -0.193825,5e-4 -0.39157,0.0015 -0.118305,10e-4 -0.236615,0.002 -0.358505,0.0025 -0.386415,-0.06508 -0.512705,-0.17701 -0.746525,-0.48639 -0.0576,-0.35917 -0.0576,-0.35917 -0.05421,-0.758995 -0.001,-0.131945 -0.002,-0.26389 -0.0035,-0.39983 0.06657,-0.415095 0.154235,-0.548615 0.491315,-0.79288 0.107345,0 0.214685,0 0.325285,0 0.0246,-0.129705 0.0492,-0.25941 0.07454,-0.39305 0.15838,-0.722535 0.426655,-1.409065 0.684455,-2.10079 -0.0882,-0.07366 -0.17639,-0.147315 -0.26726,-0.223205 -0.337245,-0.39129 -0.345125,-0.57567 -0.33587,-1.084705 -1.4e-4,-0.130965 -2.8e-4,-0.26193 -4.25e-4,-0.39686 0.17825,-1.03141 1.139245,-0.866155 1.97452,-0.86348 z m -1.26254,0.941835 c -0.03615,0.325285 -0.03615,0.325285 0,0.650565 0.212125,0.261445 0.212125,0.261445 0.60991,0.23041 0.12076,-0.0045 0.24152,-0.0089 0.36594,-0.01355 -0.0394,0.110545 -0.07883,0.221085 -0.11944,0.334975 -0.14583,0.40927 -0.291215,0.8187 -0.436465,1.228175 -0.06299,0.17737 -0.12609,0.354695 -0.189325,0.531975 -0.09074,0.254495 -0.181055,0.509135 -0.27128,0.763815 -0.02845,0.07952 -0.05692,0.15904 -0.08624,0.240965 -0.147125,0.39213 -0.147125,0.39213 -0.198375,0.8035 -0.08722,0.01565 -0.174435,0.0313 -0.264295,0.04745 -0.269285,0.03295 -0.269285,0.03295 -0.386275,0.16942 -0.0271,0.32075 -0.0271,0.32075 0,0.650565 0.30576,0.30576 0.534445,0.24826 0.952345,0.2518 0.09497,-3.5e-4 0.189945,-5e-4 0.2878,-10e-4 0.14183,0.0025 0.14183,0.0025 0.28653,0.0053 0.09092,7e-5 0.18184,1.4e-4 0.275515,2.1e-4 0.08323,3.25e-4 0.16645,5e-4 0.252195,0.001 0.280905,-0.05094 0.376435,-0.141015 0.547885,-0.36565 0.05423,-0.27569 0.05423,-0.27569 0,-0.54214 -0.320275,-0.256955 -0.320275,-0.256955 -0.758995,-0.216855 0.0358,-0.21469 0.07156,-0.429375 0.108425,-0.65057 0.751405,0 1.50281,0 2.276985,0 0.05367,0.322035 0.05367,0.322035 0.10843,0.65057 -0.08498,-0.0045 -0.16996,-0.0089 -0.257515,-0.01355 -0.3021,-0.0176 -0.3021,-0.0176 -0.50148,0.23041 -0.03615,0.325285 -0.03615,0.325285 0,0.650565 0.26937,0.26937 0.353505,0.244675 0.724685,0.24566 0.100565,2.8e-4 0.20113,5e-4 0.304745,10e-4 0.157975,-0.0015 0.157975,-0.0015 0.31914,-0.0025 0.1049,10e-4 0.209795,0.0015 0.31787,0.0025 0.100705,-2.8e-4 0.20141,-5e-4 0.305165,-10e-4 0.138465,-3.7e-4 0.138465,-3.7e-4 0.27973,-5e-4 0.273375,-0.013 0.273375,-0.013 0.56779,-0.244915 0.05421,-0.32528 0.05421,-0.32528 0,-0.650565 -0.305235,-0.24693 -0.305235,-0.24693 -0.65057,-0.216855 -0.01665,-0.05838 -0.0333,-0.11676 -0.05043,-0.17691 -0.23581,-0.80749 -0.506215,-1.6021 -0.785145,-2.395475 -0.05314,-0.151745 -0.105795,-0.30366 -0.157985,-0.455735 -0.07648,-0.22282 -0.15438,-0.445105 -0.232605,-0.66732 -0.06844,-0.19662 -0.06844,-0.19662 -0.13826,-0.39721 -0.15905,-0.365505 -0.30016,-0.61811 -0.587275,-0.89503 -0.2879,-0.07751 -0.2879,-0.07751 -0.603975,-0.06057 -0.17255,10e-4 -0.17255,10e-4 -0.34858,0.0025 -0.179255,0.0053 -0.179255,0.0053 -0.362135,0.0108 -0.18051,10e-4 -0.18051,10e-4 -0.36467,0.002 -0.631315,-0.0325 -0.631315,-0.0325 -1.139765,0.26239 z"
     fill="#1a6d0c"
     id="path228"
     style="stroke-width:0.108428" />
  <path
     d="m 74.648398,49.744933 c 0.08586,-4.15e-4 0.171725,-0.001 0.260185,-0.0015 0.18173,-2.95e-4 0.363465,5e-4 0.54519,0.0025 0.274915,0.0025 0.549525,3e-5 0.82443,-0.003 1.142809,-0.002 2.114789,0.04745 3.004639,0.8454 0.73515,0.804505 0.90224,1.634805 0.90808,2.690365 0.002,0.09805 0.0045,0.196095 0.0068,0.297115 0.0061,1.061625 -0.218365,1.99845 -0.951285,2.79604 -0.93501,0.897695 -2.14639,0.8585 -3.364229,0.851835 -0.26057,-0.001 -0.520895,0.002 -0.78144,0.0056 -0.166595,1.75e-4 -0.33319,1.15e-4 -0.499785,-2.1e-4 -0.07737,10e-4 -0.154745,0.0025 -0.23446,0.0035 -0.367245,-0.0052 -0.56743,-0.03325 -0.86533,-0.25525 -0.239105,-0.33519 -0.22598,-0.587205 -0.222525,-0.994935 -10e-4,-0.131945 -0.002,-0.26389 -0.0035,-0.39983 0.06633,-0.41358 0.15964,-0.545365 0.49131,-0.79288 0.07156,0 0.143125,0 0.21686,0 0,-0.858745 0,-1.717495 0,-2.602265 -0.143125,-0.07156 -0.28625,-0.143125 -0.433715,-0.216855 -0.30898,-0.308985 -0.25304,-0.531835 -0.257515,-0.9623 -0.003,-0.1339 -0.0062,-0.2678 -0.0093,-0.405755 0.05,-0.36679 0.05,-0.36679 0.214845,-0.60297 0.371505,-0.27296 0.70692,-0.25988 1.15067,-0.255135 z m -0.664965,0.925025 c 0.03505,0.38999 0.03505,0.38999 0.108425,0.758995 0.178905,0.0358 0.357815,0.07156 0.54214,0.108425 0,1.288125 0,2.576245 0,3.903405 -0.26836,0.05367 -0.26836,0.05367 -0.54214,0.108425 -0.14441,0.12054 -0.14441,0.12054 -0.128755,0.426935 -0.01575,0.343875 -0.01575,0.343875 0.237185,0.548915 0.4344,0.04595 0.86955,0.0403 1.30619,0.0402 0.215115,4.7e-4 0.43022,0.0045 0.6453,0.0085 1.024039,0.003 1.680969,-0.16029 2.527934,-0.719605 0.764685,-0.800255 0.87443,-1.810505 0.86361,-2.87588 -0.04355,-0.51655 -0.191065,-0.895615 -0.463785,-1.332475 -0.04345,-0.0703 -0.08693,-0.14061 -0.13172,-0.213045 -0.43721,-0.59942 -1.007645,-0.804945 -1.71155,-0.97966 -0.528099,-0.05298 -1.048749,-0.05118 -1.578979,-0.04065 -0.137605,1.4e-4 -0.27521,2.75e-4 -0.416985,4.2e-4 -0.692395,-0.04535 -0.692395,-0.04535 -1.25687,0.257095 z"
     fill="#1a6d0c"
     id="path230"
     style="stroke-width:0.108428" />
  <path
     d="m 44.613888,49.744933 c 0.08586,-4.15e-4 0.17172,-0.001 0.260185,-0.0015 0.18173,-2.95e-4 0.363465,5e-4 0.545185,0.0025 0.27492,0.0025 0.549525,3e-5 0.824435,-0.003 1.14281,-0.002 2.11479,0.04745 3.004635,0.8454 0.735155,0.804505 0.90224,1.634805 0.908085,2.690365 0.002,0.09805 0.0045,0.196095 0.0068,0.297115 0.0061,1.061625 -0.21836,1.99845 -0.951285,2.79604 -0.935005,0.897695 -2.14639,0.8585 -3.364225,0.851835 -0.260575,-0.001 -0.520895,0.002 -0.781445,0.0056 -0.166595,1.75e-4 -0.33319,1.15e-4 -0.499785,-2.1e-4 -0.07737,10e-4 -0.15474,0.0025 -0.234455,0.0035 -0.36725,-0.0052 -0.56743,-0.03325 -0.865335,-0.25525 -0.2391,-0.33519 -0.225975,-0.587205 -0.22252,-0.994935 -10e-4,-0.131945 -0.002,-0.26389 -0.0035,-0.39983 0.06633,-0.41358 0.159645,-0.545365 0.491315,-0.79288 0.07156,0 0.143125,0 0.216855,0 0,-0.858745 0,-1.717495 0,-2.602265 -0.143125,-0.07156 -0.28625,-0.143125 -0.43371,-0.216855 -0.30898,-0.308985 -0.25304,-0.531835 -0.257515,-0.9623 -0.003,-0.1339 -0.0061,-0.2678 -0.0093,-0.405755 0.05,-0.36679 0.05,-0.36679 0.214845,-0.60297 0.371505,-0.27296 0.70692,-0.25988 1.15067,-0.255135 z m -0.66497,0.925025 c 0.03505,0.38999 0.03505,0.38999 0.10843,0.758995 0.178905,0.0358 0.35781,0.07156 0.54214,0.108425 0,1.288125 0,2.576245 0,3.903405 -0.26836,0.05367 -0.26836,0.05367 -0.54214,0.108425 -0.144415,0.12054 -0.144415,0.12054 -0.12876,0.426935 -0.01575,0.343875 -0.01575,0.343875 0.237185,0.548915 0.4344,0.04595 0.869555,0.0403 1.30619,0.0402 0.21512,4.7e-4 0.43022,0.0045 0.6453,0.0085 1.02404,0.003 1.68097,-0.16029 2.527935,-0.719605 0.76469,-0.800255 0.874435,-1.810505 0.863615,-2.87588 -0.04355,-0.51655 -0.191065,-0.895615 -0.463785,-1.332475 -0.04345,-0.0703 -0.08694,-0.14061 -0.131725,-0.213045 -0.437205,-0.59942 -1.00764,-0.804945 -1.71155,-0.97966 -0.528095,-0.05298 -1.048745,-0.05118 -1.57898,-0.04065 -0.137605,1.4e-4 -0.275205,2.75e-4 -0.41698,4.2e-4 -0.692395,-0.04535 -0.692395,-0.04535 -1.256875,0.257095 z"
     fill="#1a6d0c"
     id="path232"
     style="stroke-width:0.108428" />
  <path
     d="m 61.609103,49.646668 c 0.137745,-0.0035 0.137745,-0.0035 0.27827,-0.0065 0.96604,5e-4 1.763875,0.34688 2.460805,1.015875 0.889265,1.01604 0.957895,2.059135 0.90088,3.356605 -0.08188,1.14796 -0.47404,1.96793 -1.349415,2.729335 -1.03359,0.665105 -2.172455,0.64994 -3.361265,0.542135 -0.845575,-0.207595 -1.485,-0.79552 -1.9517,-1.51799 -0.393985,-0.768245 -0.511285,-1.45982 -0.50148,-2.317645 0.001,-0.109515 0.002,-0.219035 0.003,-0.331875 0.0358,-1.160135 0.343835,-1.909735 1.196495,-2.72443 0.729685,-0.62487 1.39362,-0.753165 2.32442,-0.745445 z m -2.09401,1.612865 c -0.674985,0.88282 -0.80409,1.812295 -0.685725,2.90087 0.13331,0.774255 0.47601,1.416515 1.089785,1.91612 0.78271,0.53413 1.40974,0.64046 2.35407,0.556965 0.670305,-0.18019 1.285155,-0.552825 1.734845,-1.08428 0.535205,-0.93538 0.688095,-1.91785 0.49216,-2.982185 -0.22275,-0.75342 -0.637105,-1.343175 -1.251155,-1.8293 -1.272865,-0.68947 -2.734185,-0.583615 -3.73398,0.52181 z"
     fill="#1c6d0d"
     id="path234"
     style="stroke-width:0.108428" />
  <path
     d="m 55.875983,42.971578 c 1.167645,0.32275 1.956095,0.9172 2.602265,1.951705 0.294025,0.597155 0.537715,1.185355 0.65057,1.84327 0.08945,0.0067 0.178905,0.0134 0.27107,0.02035 0.933925,0.216805 0.933925,0.216805 1.24692,0.63024 0.07634,0.551415 0.05007,1.07353 0,1.626415 -0.07352,0.02 -0.14704,0.03995 -0.222785,0.06057 -0.77448,0.241355 -1.263015,0.58062 -1.83777,1.150775 -0.21643,0.19822 -0.21643,0.19822 -0.433285,0.19822 -0.2491,-0.799285 -0.49797,-1.59864 -0.74656,-2.398085 -0.11547,-0.37133 -0.23102,-0.742635 -0.346745,-1.113885 -0.11197,-0.359195 -0.22373,-0.718455 -0.33535,-1.07776 -0.06274,-0.201755 -0.12568,-0.40344 -0.188625,-0.60513 -0.235395,-0.75842 -0.457,-1.51884 -0.659705,-2.286665 z"
     fill="#862e1d"
     id="path236"
     style="stroke-width:0.108428" />
  <path
     d="m 67.855733,50.422968 c 0.121305,5e-4 0.121305,5e-4 0.245065,0.0015 0.12473,-3.1e-4 0.12473,-3.1e-4 0.251985,-5e-4 0.176,-1.5e-4 0.352,2.5e-4 0.528,10e-4 0.269395,10e-4 0.53871,1.5e-5 0.8081,-0.0015 0.1709,1.45e-4 0.341805,4.2e-4 0.512705,10e-4 0.08065,-4.35e-4 0.1613,-10e-4 0.244395,-0.0015 0.40671,0.0035 0.588115,0.0156 0.93518,0.24699 -0.0277,0.25406 -0.06427,0.50727 -0.10843,0.758995 -0.216855,0.108425 -0.216855,0.108425 -1.40956,0.108425 0,1.288125 0,2.576245 0,3.903405 0.393595,0 0.787185,0 1.192705,0 0.107345,0.07156 0.21469,0.143125 0.325285,0.216855 -0.0277,0.25406 -0.06427,0.50727 -0.10843,0.758995 -0.335915,0.167955 -0.691755,0.12836 -1.06056,0.13045 -0.08341,5e-4 -0.16682,10e-4 -0.25276,0.002 -0.176455,10e-4 -0.35291,0.0015 -0.52937,0.002 -0.270595,0.001 -0.5411,0.0045 -0.81167,0.0079 -0.171255,5e-4 -0.34251,0.0015 -0.513765,0.0015 -0.121815,0.002 -0.121815,0.002 -0.246095,0.004 -0.228065,-0.001 -0.228065,-0.001 -0.59761,-0.03965 -0.233025,-0.34954 -0.258365,-0.462665 -0.216855,-0.86742 0.07156,-0.07156 0.143125,-0.143125 0.216855,-0.216855 0.429375,0 0.85875,0 1.301135,0 0,-1.288125 0,-2.576245 0,-3.903405 -0.429375,0 -0.85875,0 -1.301135,0 -0.233025,-0.34954 -0.258365,-0.462665 -0.216855,-0.86742 0.2724,-0.2724 0.439935,-0.243595 0.811685,-0.24699 z"
     fill="#ec5a27"
     id="path238"
     style="stroke-width:0.108428" />
  <path
     d="m 62.164798,51.428953 c 0.48471,0.287235 0.75286,0.602285 0.9246,1.14527 0.156805,0.80864 0.18517,1.648105 -0.253705,2.36889 -0.25904,0.34681 -0.462345,0.565545 -0.89961,0.65057 -0.47034,0.0308 -0.703445,-0.01775 -1.11308,-0.268105 -0.610575,-0.68326 -0.66512,-1.24748 -0.640405,-2.144415 0.05678,-0.63793 0.209815,-1.043255 0.640405,-1.535355 0.468185,-0.277445 0.810475,-0.333025 1.341795,-0.216855 z"
     fill="#1f6d0c"
     id="path240"
     style="stroke-width:0.108428" />
  <path
     d="m 46.659613,40.477738 c -0.0394,0.05032 -0.07883,0.100635 -0.11944,0.15248 -1.009465,1.387365 -1.39462,3.20974 -1.87292,4.835205 -0.05966,0.20106 -0.11938,0.4021 -0.17916,0.60313 -0.14423,0.485475 -0.287705,0.97117 -0.430745,1.456995 -0.0358,0 -0.07156,0 -0.10843,0 0,-2.289995 0,-4.57999 0,-6.93938 0.644065,-0.0358 1.288125,-0.07156 1.951705,-0.10843 0.43371,-0.108425 0.43371,-0.108425 0.75899,0 z"
     fill="#1e450b"
     id="path242"
     style="stroke-width:0.108428" />
  <path
     d="m 75.935133,51.537378 c 1.227399,0 1.227399,0 1.843269,0.54214 0.446305,0.571825 0.388985,1.259225 0.325285,1.9517 -0.09099,0.54326 -0.266575,0.869635 -0.718335,1.19271 -0.500889,0.321245 -0.768764,0.216855 -1.450219,0.216855 0,-1.288125 0,-2.576245 0,-3.903405 z"
     fill="#1c6e0c"
     id="path244"
     style="stroke-width:0.108428" />
  <path
     d="m 45.900623,51.537378 c 1.2274,0 1.2274,0 1.84327,0.54214 0.446305,0.571825 0.38898,1.259225 0.325285,1.9517 -0.09099,0.54326 -0.266575,0.869635 -0.718335,1.19271 -0.500895,0.321245 -0.76877,0.216855 -1.45022,0.216855 0,-1.288125 0,-2.576245 0,-3.903405 z"
     fill="#1c6e0c"
     id="path246"
     style="stroke-width:0.108428" />
  <path
     d="m 48.502888,36.249053 c 1.12661,0.178755 2.05403,0.44044 2.751355,1.39728 0.29679,0.44265 0.431395,0.777875 0.50148,1.313415 -0.08414,-0.0025 -0.168285,-0.005 -0.254975,-0.0076 -1.297785,-0.0217 -2.52723,0.124775 -3.756855,0.54976 0.0379,-0.07981 0.07576,-0.159615 0.11478,-0.241845 0.04935,-0.105805 0.09868,-0.21161 0.149515,-0.320625 0.04905,-0.104405 0.09811,-0.208815 0.148665,-0.316385 0.223815,-0.543765 0.26038,-1.064635 0.2986,-1.648865 0.0091,-0.136 0.01815,-0.271995 0.02755,-0.412115 0.0066,-0.10329 0.01315,-0.20658 0.0199,-0.313 z"
     fill="#6a5215"
     id="path248"
     style="stroke-width:0.108428" />
  <path
     d="m 73.116008,49.368823 c 0.07157,0.0358 0.143125,0.07156 0.216855,0.10843 -0.08805,0.08945 -0.17611,0.178905 -0.266835,0.271065 -0.323125,0.389125 -0.356995,0.75308 -0.34307,1.246925 -0.002,0.07435 -0.004,0.148715 -0.0064,0.225325 0.004,0.43982 0.05747,0.622585 0.345615,0.96018 0.363335,0.446345 0.348555,0.75768 0.331635,1.31511 10e-4,0.08561 0.0025,0.17122 0.0035,0.25942 -0.007,0.55804 -0.09392,0.839625 -0.4983,1.251795 -0.252,0.504 -0.15341,1.18633 -0.10843,1.734845 0.2304,0.49493 0.53625,0.766785 0.97585,1.084275 -0.464945,-0.05166 -0.67946,-0.179885 -0.97585,-0.54214 0,-0.07156 0,-0.143125 0,-0.216855 -0.161015,0.05368 -0.161015,0.05368 -0.32528,0.10843 0.0025,-0.06286 0.0045,-0.125705 0.0069,-0.190465 0.0091,-0.286625 0.01465,-0.57322 0.02025,-0.85993 0.0035,-0.09889 0.0072,-0.197775 0.011,-0.29966 0.0067,-0.46147 0.0067,-0.74097 -0.227865,-1.147175 -0.23757,-0.207875 -0.406285,-0.31547 -0.70478,-0.40999 -0.13418,-0.0425 -0.26836,-0.08498 -0.406605,-0.12876 0,-0.429375 0,-0.85875 0,-1.301135 0.24354,-0.09882 0.487075,-0.197655 0.730615,-0.29648 0.285045,-0.159505 0.39888,-0.294375 0.57052,-0.57094 0.0443,-0.250735 0.0443,-0.250735 0.03175,-0.51673 -0.001,-0.09644 -0.002,-0.19288 -0.003,-0.292245 -0.0025,-0.0998 -0.0055,-0.19959 -0.0083,-0.30241 -0.0015,-0.101475 -0.003,-0.20295 -0.0045,-0.307495 -0.004,-0.24996 -0.0091,-0.499785 -0.0159,-0.74968 0.10734,0.0358 0.214685,0.07156 0.32528,0.10843 0.03355,-0.06932 0.06709,-0.138655 0.101655,-0.21008 0.1152,-0.22363 0.1152,-0.22363 0.22363,-0.33206 z"
     fill="#3c287a"
     id="path250"
     style="stroke-width:0.108428" />
  <path
     d="m 30.287013,36.791193 c 0.429375,0 0.858745,0 1.301135,0 0.148725,0.29745 0.15588,0.57118 0.19017,0.902155 0.0143,0.136275 0.02865,0.27255 0.0434,0.412955 0.01475,0.14443 0.0295,0.28886 0.04425,0.43329 0.01515,0.14528 0.0303,0.290555 0.04555,0.43583 0.03715,0.356165 0.07391,0.712365 0.110335,1.068605 -0.751725,-0.28606 -1.11244,-0.75733 -1.443445,-1.484105 -0.258535,-0.61416 -0.302435,-1.10675 -0.2914,-1.76873 z"
     fill="#052002"
     id="path252"
     style="stroke-width:0.108428" />
  <path
     d="m 61.676873,52.106628 c 0.27107,0.08132 0.27107,0.08132 0.51503,0.35239 0.264665,0.529325 0.394875,0.94931 0.210925,1.515445 -0.27774,0.638605 -0.27774,0.638605 -0.454885,0.81575 -0.25752,0.0339 -0.25752,0.0339 -0.54214,0 -0.35643,-0.343225 -0.536485,-0.80152 -0.546375,-1.29605 0.0467,-0.582485 0.199175,-1.202055 0.817445,-1.387535 z"
     fill="#3a286a"
     id="path254"
     style="stroke-width:0.108428" />
  <path
     d="m 59.345673,36.791193 c 0.429375,0 0.85875,0 1.301135,0 0,1.037655 0,2.07531 0,3.14441 -0.63941,-0.319705 -0.917285,-0.873415 -1.17407,-1.53112 -0.15195,-0.539415 -0.14439,-1.05894 -0.127065,-1.61329 z"
     fill="#783020"
     id="path256"
     style="stroke-width:0.108428" />
  <path
     d="m 53.382143,51.537378 c 0.22363,-0.0067 0.447265,-0.0134 0.67767,-0.02035 0.18869,-0.0057 0.18869,-0.0057 0.381195,-0.01145 0.378415,0.0343 0.52609,0.08239 0.784405,0.35705 0.08106,0.64846 0.08106,0.64846 -0.149085,0.962295 -0.364235,0.252165 -0.617095,0.24187 -1.057175,0.23719 -0.21021,-0.002 -0.420425,-0.0045 -0.63701,-0.0068 0,-0.500935 0,-1.00187 0,-1.51799 z"
     fill="#1d6d0d"
     id="path258"
     style="stroke-width:0.108428" />
  <path
     d="m 65.742913,51.862663 c 0.143125,0.178905 0.28625,0.35781 0.433715,0.54214 0.38575,0.27695 0.59982,0.33682 1.084275,0.43371 0,0.429375 0,0.85875 0,1.301135 -0.20824,0.04235 -0.416485,0.08471 -0.62473,0.127065 -0.317535,0.103 -0.317535,0.103 -0.78483,0.5235 -0.0358,-0.96609 -0.07156,-1.93218 -0.10843,-2.92755 z"
     fill="#7b58fc"
     id="path260"
     style="stroke-width:0.108428" />
  <path
     d="m 59.128818,46.766553 c 0.494785,0.0371 0.929435,0.160855 1.347725,0.425665 0.374445,0.49461 0.223715,1.261145 0.170265,1.85132 -0.25047,0.07156 -0.50094,0.143125 -0.758995,0.216855 -0.12675,-0.395225 -0.25316,-0.790565 -0.3795,-1.185925 -0.0362,-0.112865 -0.0724,-0.22573 -0.109695,-0.342015 -0.03425,-0.107275 -0.06849,-0.21455 -0.10377,-0.325075 -0.0318,-0.09936 -0.06359,-0.198735 -0.09636,-0.301115 -0.06967,-0.23128 -0.06967,-0.23128 -0.06967,-0.33971 z"
     fill="#621f14"
     id="path262"
     style="stroke-width:0.108428" />
  <path
     d="m 50.454588,47.200268 c 0.28053,0.28053 0.332395,0.529425 0.447265,0.90808 0.0383,0.12384 0.07659,0.247675 0.116055,0.375265 0.08725,0.34307 0.08725,0.34307 0.08725,0.77678 -0.162895,0.127485 -0.32602,0.254715 -0.491315,0.379075 -0.286565,0.293425 -0.309095,0.63512 -0.37611,1.03049 -0.277845,-0.16942 -0.277845,-0.16942 -0.54214,-0.43371 0.0352,-0.668925 0.252105,-1.305465 0.44049,-1.944925 0.0458,-0.157765 0.0458,-0.157765 0.09255,-0.31872 0.07487,-0.257585 0.150195,-0.51502 0.22596,-0.772335 z"
     fill="#a0431a"
     id="path264"
     style="stroke-width:0.108428" />
  <path
     d="m 31.479718,51.645808 c 0.282615,0.282615 0.37302,0.59975 0.50148,0.969075 0.0249,0.06869 0.04975,0.137395 0.07539,0.20817 0.109265,0.309255 0.182125,0.552375 0.182125,0.882885 -0.465155,0 -0.93031,0 -1.40956,0 0.140925,-0.728135 0.357735,-1.379225 0.650565,-2.06013 z"
     fill="#256d0c"
     id="path266"
     style="stroke-width:0.108428" />
  <path
     d="m 76.585698,52.296373 c 0.542139,0.216855 0.542139,0.216855 0.745439,0.50148 0.18052,0.541555 0.104765,0.944545 -0.06776,1.490885 -0.135535,0.176195 -0.135535,0.176195 -0.677674,0.39305 0,-0.787185 0,-1.574375 0,-2.385415 z"
     fill="#372667"
     id="path268"
     style="stroke-width:0.108428" />
  <path
     d="m 46.551188,52.296373 c 0.54214,0.216855 0.54214,0.216855 0.74544,0.50148 0.18052,0.541555 0.10476,0.944545 -0.06777,1.490885 -0.135535,0.176195 -0.135535,0.176195 -0.677675,0.39305 0,-0.787185 0,-1.574375 0,-2.385415 z"
     fill="#372667"
     id="path270"
     style="stroke-width:0.108428" />
  <path
     d="m 42.973068,52.513228 c 0.107345,0.0358 0.21469,0.07156 0.325285,0.10843 0.0117,0.282485 0.0203,0.564485 0.0271,0.847095 0.0035,0.08002 0.0072,0.160035 0.011,0.24248 0.004,0.234005 0.004,0.234005 -0.0381,0.64527 -0.21855,0.218125 -0.21855,0.218125 -0.43371,0.325285 -0.003,-0.341095 -0.0051,-0.682185 -0.0068,-1.02329 -0.001,-0.09735 -0.002,-0.1947 -0.003,-0.295 -3.5e-4,-0.0926 -5e-4,-0.185195 -0.001,-0.2806 -10e-4,-0.12861 -10e-4,-0.12861 -0.0015,-0.259815 0.0123,-0.201425 0.0123,-0.201425 0.120735,-0.309855 z"
     fill="#eab531"
     id="path272"
     style="stroke-width:0.108428" />
  <path
     d="m 71.164308,52.838513 c 0.143125,0 0.28625,0 0.43371,0 0.0155,0.92938 0.0155,0.92938 -0.108425,1.301135 -0.107345,0 -0.21469,0 -0.325285,0 0,-0.429375 0,-0.85875 0,-1.301135 z"
     fill="#564ba8"
     id="path274"
     style="stroke-width:0.108428" />
  <path
     d="m 28.877448,49.260393 c -0.16166,0.41151 -0.40736,0.60833 -0.758995,0.867425 0.30477,-0.867425 0.30477,-0.867425 0.758995,-0.867425 z"
     fill="#473187"
     id="path276"
     style="stroke-width:0.108428" />
</svg>
