<?xml version="1.0" encoding="UTF-8" standalone="no"?>
<svg
   version="1.1"
   width="108"
   height="108"
   id="svg825"
   xmlns="http://www.w3.org/2000/svg"
   xmlns:svg="http://www.w3.org/2000/svg">
  <defs
     id="defs829" />
  <path
     d="m 8.8432713,2.9743355 c 0.22586,-10e-4 0.45172,-0.003 0.68443,-0.004 0.7457297,-0.004 1.4914497,-0.007 2.2371897,-0.009 0.2558,-8.8e-4 0.51159,-0.002 0.77514,-0.003 1.35473,-0.005 2.70946,-0.008 4.06419,-0.01 1.39313,-0.002 2.78617,-0.01 4.17927,-0.0185 1.07647,-0.006 2.15293,-0.007 3.22941,-0.008 0.51318,-10e-4 1.02636,-0.004 1.53953,-0.008 6.80589,-0.0503 6.80589,-0.0503 8.8976,1.70867 1.61272,1.74711 1.9456,3.70858 2.26682,5.9796205 0.20155,0.05 0.40309,0.10008 0.61075,0.15163 2.07065,0.54628 3.47007,0.9868 4.66155,2.84369 0.84382,1.51889 1.07823,2.86663 1.01651,4.59463 0.1339,0.0213 0.2678,0.0425 0.40576,0.0644 2.1195,0.37422 3.78887,0.93528 5.09695,2.73018 0.58018,0.86532 0.92335,1.56539 1.00296,2.62683 0.12635,0.0162 0.25271,0.0324 0.38289,0.0491 2.28596,0.36661 4.26807,1.26007 5.74328,3.08257 0.87024,1.27233 1.62789,2.60891 1.85683,4.14651 0.16491,0.75573 0.16491,0.75573 0.6548,0.94959 0.34,0.10137 0.68217,0.19566 1.02583,0.28378 1.66896,0.51352 2.88539,1.98095 3.78142,3.41548 0.58805,1.19431 1.07543,2.37071 1.30114,3.68654 0.18338,0.0179 0.36676,0.0358 0.55569,0.0542 0.90073,0.19652 1.47324,0.56027 2.26343,1.03006 0.0251,-1.90391 0.0444,-3.80777 0.0562,-5.71181 0.006,-0.88417 0.0133,-1.76822 0.0256,-2.65233 0.0118,-0.85349 0.0183,-1.70688 0.0211,-2.56045 0.002,-0.32536 0.006,-0.65071 0.0118,-0.97602 0.008,-0.45641 0.009,-0.91236 0.008,-1.36883 0.002,-0.25955 0.005,-0.51911 0.007,-0.78653 -0.16788,-0.88866 -0.54399,-1.19038 -1.21467,-1.77449 -0.33545,-0.54214 -0.33545,-0.54214 -0.59635,-1.08428 -0.1325,-0.26836 -0.1325,-0.26836 -0.26768,-0.54214 -0.36296,-0.89343 -0.46497,-1.71089 -0.45065,-2.67004 0.002,-0.17135 0.004,-0.34271 0.006,-0.51926 0.004,-0.19247 0.004,-0.19247 0.008,-0.38882 -0.13642,-0.006 -0.27283,-0.0112 -0.41338,-0.0169 -1.64972,-0.10932 -2.80083,-0.49034 -4.07282,-1.55526 -2.26817,-2.69728 -2.26818,-5.65891 -2.01947,-9.0537305 0.2832,-1.61554 0.86262,-3.07438 2.16856,-4.12025 2.04401,-1.30232 4.10262,-1.58321 6.48338,-1.581 0.22807,-10e-4 0.45614,-0.003 0.69112,-0.004 0.74925,-0.004 1.49845,-0.005 2.24771,-0.005 0.52475,-10e-4 1.0495,-0.003 1.57425,-0.004 1.09862,-0.003 2.19722,-0.003 3.29584,-0.003 1.40113,4e-5 2.80217,-0.006 4.20328,-0.0133 1.08372,-0.005 2.16743,-0.006 3.25117,-0.005 0.5162,-5.1e-4 1.03241,-0.002 1.5486,-0.006 6.41753,-0.038 6.41753,-0.038 9.01614,1.83981 1.48394,1.66175 1.9682,3.69122 2.16856,5.8551005 0.20406,0.0526 0.40813,0.10511 0.61838,0.15926 0.27003,0.0727 0.54007,0.14536 0.81829,0.22024 0.26668,0.0704 0.53336,0.14089 0.80812,0.21347 1.70004,0.58973 2.57187,1.54494 3.393459,3.09358 0.54224,1.31397 0.72913,2.48925 0.65056,3.9034 0.1339,0.0213 0.2678,0.0425 0.40576,0.0644 2.11518,0.37346 3.77493,0.93302 5.08933,2.71493 1.63275,2.41836 1.55764,5.6402 1.0936,8.4362 -0.49188,1.68892 -1.44092,3.06057 -2.91315,4.04486 -1.94481,1.03094 -3.84077,1.07265 -6.060949,1.22066 -0.35781,3.07719 -0.71562,6.15437 -1.08428,9.3248 1.48232,-0.034 1.48232,-0.034 2.964349,-0.0781 2.09632,-0.024 3.57748,0.62488 5.10506,2.04594 1.71746,1.84872 1.98692,3.75615 1.98632,6.21216 9.5e-4,0.43602 0.009,0.87155 0.017,1.30748 0.007,2.24641 -0.30617,4.04792 -1.84582,5.76023 -0.14564,0.16913 -0.29128,0.33825 -0.44133,0.51249 -2.0307,1.62621 -4.03838,1.73221 -6.525149,1.65607 -0.313,-0.005 -0.626,-0.0104 -0.93901,-0.0148 -0.75794,-0.0109 -1.51545,-0.0318 -2.27317,-0.053 -0.0113,0.19299 -0.0227,0.38597 -0.0343,0.5848 -0.13057,2.09799 -0.32713,4.18433 -0.55513,6.27374 -0.0375,0.34807 -0.0749,0.69614 -0.1123,1.04422 -0.10062,0.93513 -0.20211,1.87017 -0.30386,2.80518 -0.0638,0.58621 -0.12732,1.17244 -0.19083,1.75867 -0.2222,2.05082 -0.44514,4.10156 -0.66873,6.15222 -0.20746,1.9029 -0.41323,3.80598 -0.61823,5.70914 -0.17697,1.64225 -0.35517,3.28437 -0.5343,4.92638 -0.10657,0.97711 -0.21266,1.95427 -0.31749,2.93157 -0.0986,0.91918 -0.1988,1.83817 -0.3001,2.75705 -0.0367,0.33472 -0.0728,0.6695 -0.10829,1.00434 -0.68319,6.429234 -0.68319,6.429234 -2.16572,7.911754 -1.29912,0.82672 -2.60243,0.88011 -4.09908,0.87844 -0.18627,9.3e-4 -0.37254,0.002 -0.56445,0.003 -0.39202,0.001 -0.78404,0.001 -1.17606,4.2e-4 -0.59582,-6.9e-4 -1.19141,0.004 -1.7872,0.01 -0.38275,4.9e-4 -0.76549,6.4e-4 -1.14824,4.2e-4 -0.26403,0.003 -0.26403,0.003 -0.5334,0.006 -1.65791,-0.0133 -3.13142,-0.4501 -4.37296,-1.59265 -1.09623,-1.35159 -1.6077,-3.03348 -1.99998,-4.699674 -0.17048,-0.65004 -0.17048,-0.65004 -0.52859,-1.1656 -0.70408,-0.28799 -1.36074,-0.39387 -2.1118,-0.50741 -1.12982,-0.22867 -1.75778,-0.75124 -2.44217,-1.66115 -0.78298,-1.36702 -1.28024,-2.73126 -1.65352,-4.25579 -0.17298,-0.64757 -0.17298,-0.64757 -0.51503,-1.1656 -0.64774,-0.28735 -1.24517,-0.39276 -1.94323,-0.50741 -1.10759,-0.24059 -1.69601,-0.79657 -2.39389,-1.66115 -1.23143,-2.18731 -1.92015,-4.60886 -2.65648,-6.99359 -0.12204,-0.39039 -0.24422,-0.78074 -0.36653,-1.17105 -1.11269,-3.55984 -2.19675,-7.12864 -3.2658,-10.7018 -0.35949,0.66813 -0.59281,1.32864 -0.80882,2.05531 -0.0723,0.24169 -0.14453,0.48337 -0.21899,0.73239 -0.0782,0.26447 -0.15635,0.52894 -0.2369,0.80143 -0.0841,0.28255 -0.16832,0.56509 -0.25257,0.8476 -0.18145,0.609 -0.36237,1.21814 -0.5429,1.82741 -0.23812,0.80358 -0.4771,1.60691 -0.7164,2.41014 -1.04078,3.49356 -2.07393,6.98932 -3.09991,10.48726 -0.15556,0.53015 -0.31132,1.06024 -0.46715,1.59032 -0.0508,0.17289 -0.10165,0.34579 -0.15402,0.52393 -0.10163,0.34568 -0.20327,0.69135 -0.30492,1.03702 -0.29638,1.00833 -0.59134,2.01706 -0.88525,3.02611 -0.18458,0.63262 -0.37038,1.26488 -0.55647,1.89706 -0.0854,0.29095 -0.17023,0.58205 -0.25452,0.87332 -1.66597,5.753834 -1.66597,5.753834 -3.6451,7.238184 -1.30436,0.56765 -2.51246,0.74798 -3.92373,0.73697 -0.18033,6.2e-4 -0.36066,0.001 -0.54646,0.002 -0.3783,4.4e-4 -0.75662,-7.4e-4 -1.13492,-0.003 -0.57391,-0.003 -1.14749,-2e-5 -1.72139,0.004 -0.37018,-4.3e-4 -0.74036,-10e-4 -1.11054,-0.003 -0.1688,0.001 -0.3376,0.003 -0.51151,0.004 -1.41625,-0.0178 -2.80101,-0.26536 -3.93912,-1.15096 -1.33409,-1.79206 -1.43667,-4.16281 -1.64166,-6.312534 -0.37277,-0.0319 -0.37277,-0.0319 -0.75307,-0.0644 -0.33179,-0.0326 -0.66357,-0.0653 -0.99533,-0.0983 -0.16311,-0.0134 -0.32622,-0.0268 -0.49428,-0.0407 -1.12196,-0.11657 -2.11564,-0.30797 -2.96186,-1.09783 -0.85124,-1.28009 -1.06027,-2.74581 -1.24692,-4.24224 -0.0271,-0.19806 -0.0542,-0.39611 -0.0822,-0.60017 -0.0656,-0.48185 -0.12851,-0.96388 -0.18891,-1.44641 -0.34928,-0.0319 -0.34928,-0.0319 -0.70562,-0.0644 -0.31147,-0.0326 -0.62292,-0.0653 -0.93435,-0.0983 -0.15277,-0.0134 -0.30554,-0.0268 -0.46293,-0.0407 -1.10743,-0.12248 -2.0363,-0.3456 -2.88478,-1.09783 -0.73634,-1.22784 -1.03398,-2.52329 -1.21033,-3.92712 -0.0256,-0.18612 -0.0512,-0.37224 -0.0776,-0.564 -0.0808,-0.59878 -0.15628,-1.19801 -0.23007,-1.7977 -0.0366,-0.29611 -0.0366,-0.29611 -0.074,-0.5982 -0.1807,-1.48011 -0.34692,-2.96171 -0.51134,-4.44369 -0.0525,-0.4682 -0.10505,-0.9364 -0.15765,-1.40459 -0.10892,-0.97089 -0.2173,-1.94183 -0.32524,-2.91283 -0.13838,-1.24454 -0.27792,-2.48895 -0.41783,-3.73332 -0.10809,-0.96212 -0.21569,-1.92428 -0.32312,-2.88647 -0.0513,-0.4593 -0.10277,-0.91858 -0.15435,-1.37785 -0.0716,-0.63808 -0.14248,-1.27623 -0.21323,-1.9144 -0.0213,-0.18879 -0.0426,-0.37758 -0.0645,-0.57209 -0.0191,-0.17374 -0.0383,-0.34748 -0.058,-0.52649 -0.0167,-0.15028 -0.0335,-0.30057 -0.0507,-0.45541 -0.0357,-0.42999 -0.0354,-0.86246 -0.0354,-1.29394 -0.14925,0.002 -0.2985,0.005 -0.45227,0.007 -1.55487,0.024 -3.10969,0.0404 -4.6646997,0.0523 -0.58022,0.005 -1.16015,0.0128 -1.74035,0.0222 -0.83439,0.0132 -1.66858,0.0193 -2.50305,0.0241 -0.25892,0.006 -0.51784,0.0112 -0.7846,0.017 -2.01051,6.8e-4 -2.01051,6.8e-4 -2.80993004,-0.6445 -0.87177,-1.00067 -0.76837,-1.82997 -0.78833,-3.11068 -0.008,-0.194 -0.0162,-0.388 -0.0246,-0.58788 -0.0129,-0.96829 -3.6e-4,-1.64042 0.626,-2.41083 0.56416004,-0.52519 0.56416004,-0.52519 0.99787004,-0.74205 0.25627,-0.56933 0.25627,-0.56933 0.47437,-1.24692 0.0791,-0.22699 0.15822,-0.45397 0.23973,-0.68784 0.19318,-0.84103 0.13994,-1.39532 -0.28886,-2.14653 -0.31295,-0.70988 -0.2883,-1.4182 -0.2897,-2.18042 -0.008,-0.22601 -0.008,-0.22601 -0.0161,-0.45658 -0.007,-1.3122 0.417,-2.04013 1.31077,-2.96414 0.77666,-0.43627 1.54239,-0.37301 2.40882,-0.35646 0.27252,10e-4 0.27252,10e-4 0.55054,0.003 0.57894,0.004 1.15772,0.0118 1.73661,0.0201 0.39304,0.003 0.7861,0.006 1.17915,0.009 0.9623597,0.007 1.9245997,0.0184 2.8868897,0.0318 -0.0161,-0.11993 -0.0322,-0.23987 -0.0487,-0.36343 -0.43659,-3.26812 -0.83535,-6.53957 -1.2068,-9.81571 -0.0875,-0.76926 -0.17643,-1.53834 -0.26541,-2.30743 -0.0564,-0.4954 -0.11275,-0.9908 -0.16899,-1.48622 -0.0264,-0.2268 -0.0528,-0.45361 -0.0801,-0.68728 -0.13374,-1.19435 -0.20936,-2.35402 -0.18169,-3.55581 -0.2281097,-0.0604 -0.2281097,-0.0604 -0.4608197,-0.12198 -1.51253,-0.75626 -2.23828,-2.24514 -2.79202,-3.78142 -0.26498,-0.88271 -0.23214,-1.68525 -0.21685,-2.60227 -0.1339,-0.0187 -0.2678,-0.0375 -0.40576,-0.0568 -1.93106,-0.32038 -3.50409,-0.98702 -4.73779,-2.55314 -1.14645004,-1.75812 -1.40487004,-3.38759 -1.41634004,-5.44088 -0.004,-0.19512 -0.009,-0.39023 -0.0134999998,-0.59127 C -0.01185874,8.5321555 0.42861126,6.6310755 1.9028113,5.0622755 c 1.96127,-1.85078 4.36387,-2.07956 6.94023,-2.08666 z"
     fill="#3a256b"
     id="path729"
     style="stroke-width:0.216856" />
  <path
     d="m 101.12298,18.192616 c 2.24913,0.35686 4.0935,0.8792 5.49509,2.77931 1.63275,2.41836 1.55764,5.6402 1.0936,8.4362 -0.49188,1.68892 -1.44092,3.06057 -2.91315,4.04486 -1.94481,1.03094 -3.84077,1.07265 -6.060949,1.22066 -0.53672,4.61578 -0.53672,4.61578 -1.08428,9.3248 1.48232,-0.034 1.48232,-0.034 2.964349,-0.0781 2.09632,-0.024 3.57748,0.62488 5.10506,2.04594 1.71746,1.84872 1.98692,3.75615 1.98632,6.21216 9.5e-4,0.43602 0.009,0.87155 0.017,1.30748 0.007,2.24641 -0.30617,4.04792 -1.84582,5.76023 -0.14564,0.16913 -0.29128,0.33825 -0.44133,0.51249 -2.0307,1.62621 -4.03838,1.73221 -6.525149,1.65607 -0.313,-0.005 -0.626,-0.0104 -0.93901,-0.0148 -0.75794,-0.0109 -1.51545,-0.0318 -2.27317,-0.053 -0.0113,0.19299 -0.0227,0.38597 -0.0343,0.5848 -0.13057,2.09799 -0.32713,4.18433 -0.55513,6.27374 -0.0375,0.34807 -0.0749,0.69614 -0.1123,1.04422 -0.10062,0.93513 -0.20211,1.87017 -0.30386,2.80518 -0.0638,0.58621 -0.12732,1.17244 -0.19083,1.75867 -0.2222,2.05082 -0.44514,4.10156 -0.66873,6.15222 -0.20746,1.9029 -0.41323,3.80598 -0.61823,5.70914 -0.17697,1.64225 -0.35517,3.28437 -0.5343,4.92638 -0.10657,0.97711 -0.21266,1.95427 -0.31749,2.93157 -0.0986,0.91918 -0.1988,1.83817 -0.3001,2.75705 -0.0367,0.33472 -0.0728,0.6695 -0.10829,1.00434 -0.68319,6.429234 -0.68319,6.429234 -2.16572,7.911754 -1.29912,0.82672 -2.60243,0.88011 -4.09908,0.87844 -0.2794,0.001 -0.2794,0.001 -0.56445,0.003 -0.39202,0.001 -0.78404,0.001 -1.17606,4.2e-4 -0.59582,-6.9e-4 -1.19141,0.004 -1.7872,0.01 -0.38275,4.9e-4 -0.76549,6.4e-4 -1.14824,4.2e-4 -0.17602,0.002 -0.35204,0.004 -0.5334,0.006 -1.65791,-0.0133 -3.13142,-0.4501 -4.37296,-1.59265 -1.09623,-1.35159 -1.6077,-3.03348 -1.99998,-4.699674 -0.17048,-0.65004 -0.17048,-0.65004 -0.52859,-1.1656 -0.70408,-0.28799 -1.36074,-0.39387 -2.1118,-0.50741 -1.1303,-0.22877 -1.75686,-0.75159 -2.44217,-1.66115 -1.03104,-1.77848 -1.58259,-3.67929 -2.16855,-5.63825 0.32955,-0.005 0.32955,-0.005 0.66576,-0.01 0.82334,-0.0127 1.64656,-0.0294 2.4698,-0.0473 0.35477,-0.007 0.70957,-0.0133 1.06437,-0.0182 3.12606,0.0631 3.12606,0.0631 5.85675,-1.23956 1.10604,-1.99939 1.22527,-4.30055 1.46293,-6.53024 0.0406,-0.36665 0.0813,-0.73329 0.12225,-1.09991 0.10733,-0.96605 0.21223,-1.93235 0.31662,-2.89872 0.10339,-0.95317 0.20911,-1.90607 0.31462,-2.85901 0.24915,-2.25505 0.49408,-4.51055 0.73824,-6.76615 0.0426,-0.39304 0.0852,-0.78609 0.12776,-1.17914 0.24718,-2.28144 0.49374,-4.56294 0.73966,-6.84452 -0.23789,-0.0296 -0.47578,-0.0593 -0.72088,-0.0898 -0.80449,-0.12824 -1.23409,-0.29678 -1.88139,-0.77763 -0.61276,-0.91915 -0.52983,-1.71034 -0.54214,-2.79202 -0.009,-0.19484 -0.0179,-0.38968 -0.0271,-0.59042 -0.0167,-1.41415 -0.0167,-1.41415 0.42524,-1.96885 0.35408,-0.28865 0.35408,-0.28865 1.01142,-0.72067 0.0716,-0.14312 0.14313,-0.28625 0.21686,-0.43371 0.42937,0 0.85875,0 1.30113,0 0,-0.85875 0,-1.7175 0,-2.60227 -0.2281,-0.0179 -0.45621,-0.0358 -0.69122,-0.0542 -0.89241,-0.17556 -1.26692,-0.40489 -1.91104,-1.03007 -0.39246,-0.78491 -0.27549,-1.69726 -0.28463,-2.5616 -0.006,-0.19582 -0.0126,-0.39164 -0.0191,-0.59339 -0.009,-0.917 -0.002,-1.4653 0.47056,-2.26894 0.75199,-0.67033 1.32442,-0.9194 2.33162,-0.91756 0.28877,-0.001 0.28877,-0.001 0.58336,-0.002 0.30939,0.002 0.30939,0.002 0.62502,0.005 0.21332,1e-4 0.42663,2e-4 0.64641,3e-4 0.4506,6.6e-4 0.90119,0.002 1.35178,0.005 0.68958,0.004 1.37911,0.004 2.0687,0.004 0.43795,10e-4 0.8759,0.002 1.31384,0.004 0.20626,2.4e-4 0.41252,4.9e-4 0.62503,7.3e-4 0.1925,10e-4 0.38501,0.003 0.58335,0.004 0.25323,10e-4 0.25323,10e-4 0.51157,0.002 0.47014,0.0291 0.88435,0.11665 1.33636,0.24585 0.0175,-0.27005 0.0175,-0.27005 0.0353,-0.54556 0.1326,-1.95961 0.31688,-3.90988 0.52718,-5.86269 0.0332,-0.31117 0.0664,-0.62234 0.0996,-0.93351 0.0689,-0.64458 0.13819,-1.28912 0.20777,-1.93363 0.0893,-0.82729 0.17712,-1.65471 0.26465,-2.48217 0.0678,-0.63908 0.13647,-1.27806 0.2054,-1.91701 0.0328,-0.30545 0.0653,-0.61093 0.0975,-0.91644 0.0447,-0.4235 0.0908,-0.84686 0.1369,-1.27021 0.0258,-0.24077 0.0517,-0.48154 0.0783,-0.7296 0.0822,-0.54077 0.0822,-0.54077 0.2991,-0.75763 0.4921,-0.0292 0.98468,-0.0503 1.47733,-0.0678 2.18052,-0.12025 4.14805,-0.55073 5.76193,-2.11773 1.562589,-1.85699 1.735379,-4.15584 1.868679,-6.48873 z"
     fill="#3a2563"
     id="path731"
     style="stroke-width:0.216856" />
  <path
     d="m 8.8432713,2.9743355 c 0.22586,-10e-4 0.45172,-0.003 0.68443,-0.004 0.7457297,-0.004 1.4914497,-0.007 2.2371897,-0.009 0.2558,-8.8e-4 0.51159,-0.002 0.77514,-0.003 1.35473,-0.005 2.70946,-0.008 4.06419,-0.01 1.39313,-0.002 2.78617,-0.01 4.17927,-0.0185 1.07647,-0.006 2.15293,-0.007 3.22941,-0.008 0.51318,-10e-4 1.02636,-0.004 1.53953,-0.008 6.80589,-0.0503 6.80589,-0.0503 8.8976,1.70867 1.61272,1.74711 1.9456,3.70858 2.26682,5.9796205 0.20155,0.05 0.40309,0.10008 0.61075,0.15163 2.07065,0.54628 3.47007,0.9868 4.66155,2.84369 0.84382,1.51889 1.07823,2.86663 1.01651,4.59463 0.1339,0.0213 0.2678,0.0425 0.40576,0.0644 2.1195,0.37422 3.78887,0.93528 5.09695,2.73018 0.59358,0.8853 0.86279,1.55575 1.00296,2.62683 -0.16828,-0.005 -0.33657,-0.0101 -0.50995,-0.0152 -3.29355,-0.055 -6.45912,0.24456 -9.09947,2.3871 -2.63987,2.65247 -3.39123,6.68285 -4.43198,10.15156 -0.16494,0.5425 -0.33012,1.08492 -0.49555,1.62726 -0.30328,0.99595 -0.60533,1.99224 -0.90533,2.98918 -0.0658,0.21727 -0.13165,0.43453 -0.19947,0.65838 -0.12573,0.42272 -0.24739,0.84668 -0.36493,1.27175 -0.0549,0.19567 -0.10971,0.39134 -0.16622,0.59294 -0.0467,0.17237 -0.0934,0.34475 -0.14158,0.52235 -0.16655,0.41601 -0.16655,0.41601 -0.70869,0.79551 -0.54214,0.0542 -0.54214,0.0542 -1.19271,-0.3795 -0.60006,-0.0705 -0.60006,-0.0705 -1.28742,-0.0664 -0.26493,-0.003 -0.52986,-0.007 -0.80282,-0.0105 -0.28955,-10e-4 -0.5791,-0.003 -0.86865,-0.004 -0.29739,-0.002 -0.59479,-0.004 -0.89218,-0.006 -0.62363,-0.004 -1.24724,-0.005 -1.87088,-0.006 -0.79706,-10e-4 -1.59389,-0.009 -2.39089,-0.0192 -0.61451,-0.006 -1.22895,-0.008 -1.84349,-0.008 -0.43605,-10e-4 -0.87208,-0.008 -1.30808,-0.0142 -1.61167,-0.0346 -1.61167,-0.0346 -3.00798,0.65658 -0.78897,0.93532 -0.75137,1.70953 -0.77197,2.89287 -0.008,0.17332 -0.0162,0.34663 -0.0246,0.5252 -0.0196,1.32275 0.32528,1.76132 1.19016,2.78185 0.12853,0.6124 0.10433,1.19398 0.0678,1.81617 -0.005,0.15961 -0.01,0.31923 -0.0148,0.48369 -0.0127,0.39013 -0.0321,0.78004 -0.0529,1.16983 -0.41246,-0.0638 -0.41246,-0.0638 -0.86742,-0.21685 -0.26756,-0.56157 -0.47088,-1.08057 -0.66327,-1.66793 -0.0588,-0.16886 -0.11755,-0.33772 -0.17811,-0.51169 -0.18822,-0.54189 -0.37176,-1.0852 -0.55463,-1.62891 -0.18255,-0.53811 -0.36614,-1.07578 -0.55231,-1.61265 -0.11568,-0.33403 -0.22928,-0.66879 -0.34039,-1.00437 -0.47227,-1.37086 -1.03103,-2.72699 -2.26526,-3.54982 -0.12325,-0.42439 -0.12325,-0.42439 -0.18297,-0.95165 -0.0239,-0.19834 -0.0478,-0.39668 -0.0725,-0.60103 -0.023,-0.21638 -0.0461,-0.43275 -0.0698,-0.65569 -0.0394,-0.33668 -0.0394,-0.33668 -0.0795,-0.68017 -0.0848,-0.73104 -0.16533,-1.46248 -0.24577,-2.19401 -0.0568,-0.49851 -0.1139,-0.99699 -0.17122,-1.49544 -0.11209,-0.97913 -0.22251,-1.95842 -0.33132,-2.93793 -0.12184,-1.09641 -0.24787,-2.19227 -0.37674,-3.28788 -0.0594,-0.51191 -0.11875,-1.02383 -0.17789,-1.53578 -0.026,-0.22235 -0.052,-0.44471 -0.0788,-0.67381 -0.12802,-1.14835 -0.18965,-2.26381 -0.16518,-3.41934 -0.2281097,-0.0604 -0.2281097,-0.0604 -0.4608197,-0.12198 -1.51253,-0.75626 -2.23828,-2.24514 -2.79202,-3.78142 -0.26498,-0.88271 -0.23214,-1.68525 -0.21685,-2.60227 -0.1339,-0.0187 -0.2678,-0.0375 -0.40576,-0.0568 -1.93106,-0.32038 -3.50409,-0.98702 -4.73779,-2.55314 -1.14645004,-1.75812 -1.40487004,-3.38759 -1.41634004,-5.44088 -0.004,-0.19512 -0.009,-0.39023 -0.0134999998,-0.59127 C -0.01150874,8.5300155 0.42896126,6.6289355 1.9031613,5.0601355 c 1.96127,-1.85078 4.36387,-2.07956 6.94023,-2.08666 z"
     fill="#457f13"
     id="path733"
     style="stroke-width:0.216856" />
  <path
     d="m 66.837501,2.9497155 c 0.22807,-10e-4 0.45614,-0.003 0.69112,-0.004 0.74925,-0.004 1.49845,-0.005 2.24771,-0.005 0.52475,-10e-4 1.0495,-0.003 1.57425,-0.004 1.09862,-0.003 2.19722,-0.003 3.29584,-0.003 1.40113,4e-5 2.80217,-0.006 4.20328,-0.0133 1.08372,-0.005 2.16743,-0.006 3.25117,-0.005 0.5162,-5.1e-4 1.03241,-0.002 1.5486,-0.006 6.41753,-0.038 6.41753,-0.038 9.01614,1.83981 1.48394,1.66175 1.9682,3.69122 2.16856,5.8551005 0.20406,0.0526 0.40813,0.10511 0.61838,0.15926 0.27003,0.0727 0.54007,0.14536 0.81829,0.22024 0.26668,0.0704 0.53336,0.14089 0.80812,0.21347 1.19819,0.41565 2.08184,0.97107 2.78355,2.03641 0.10147,0.14816 0.202949,0.29631 0.307489,0.44896 0.80916,1.62738 1.06923,3.22294 1.04786,5.02665 -0.002,0.19882 -0.004,0.39764 -0.006,0.60249 -0.0599,2.35007 -0.5538,4.14078 -2.226159,5.85659 -1.54647,1.32675 -3.43972,1.72948 -5.43918,1.83564 -0.1483,0.008 -0.29659,0.0168 -0.44938,0.0254 -0.36064,0.0202 -0.7214,0.0383 -1.08217,0.0559 -0.0213,0.19863 -0.0425,0.39726 -0.0644,0.60192 -0.20049,1.87299 -0.40145,3.74594 -0.60295,5.61883 -0.10357,0.96284 -0.20696,1.92571 -0.30993,2.88861 -0.0994,0.92946 -0.19927,1.85887 -0.29949,2.78824 -0.0381,0.35437 -0.0761,0.70876 -0.11386,1.06318 -0.053,0.49683 -0.10659,0.9936 -0.16034,1.49035 -0.0303,0.28267 -0.0607,0.56534 -0.0919,0.85658 -0.0768,0.61759 -0.17568,1.21639 -0.3088,1.82388 -0.13023,-0.002 -0.26046,-0.004 -0.39464,-0.006 -1.3579,-0.0192 -2.71577,-0.0323 -4.07377,-0.0418 -0.50651,-0.004 -1.013,-0.0103 -1.51947,-0.0178 -0.72888,-0.0105 -1.45762,-0.0154 -2.18656,-0.0193 -0.33857,-0.007 -0.33857,-0.007 -0.68398,-0.0136 -1.31168,-4.1e-4 -2.07031,0.0888 -3.06864,0.9657 -0.54785,0.73687 -0.51945,1.54326 -0.56924,2.43962 -0.0162,0.27395 -0.0324,0.5479 -0.0491,0.83015 -0.0106,0.2091 -0.0212,0.4182 -0.0322,0.63363 -0.45171,-0.58722 -0.85466,-1.18812 -1.24692,-1.81617 -1.10724,-1.65272 -2.43304,-2.71382 -4.39132,-3.17151 -0.7846,-0.0734 -1.56924,-0.10356 -2.35661,-0.1313 -0.21146,-0.009 -0.42291,-0.0174 -0.64078,-0.0263 -0.51882,-0.0211 -1.03766,-0.0408 -1.55658,-0.0592 -3.1e-4,-0.2258 -6.2e-4,-0.4516 -9.4e-4,-0.68425 -0.004,-2.12829 -0.0129,-4.25649 -0.0277,-6.38473 -0.007,-1.09416 -0.0129,-2.18825 -0.0138,-3.28243 -9.3e-4,-1.05603 -0.007,-2.1119 -0.0169,-3.16787 -0.003,-0.40281 -0.004,-0.80563 -0.003,-1.20845 0.001,-0.56446 -0.005,-1.12848 -0.0118,-1.69289 0.002,-0.16643 0.004,-0.33287 0.006,-0.50434 -0.0186,-0.87023 -0.1054,-1.24027 -0.67878,-1.91137 -0.18287,-0.15306 -0.36575,-0.30612 -0.55417,-0.46382 -0.33545,-0.54214 -0.33545,-0.54214 -0.59635,-1.08428 -0.0883,-0.17891 -0.17667,-0.35781 -0.26768,-0.54214 -0.36296,-0.89343 -0.46497,-1.71089 -0.45065,-2.67004 0.002,-0.17135 0.004,-0.34271 0.006,-0.51926 0.003,-0.12831 0.005,-0.25662 0.008,-0.38882 -0.13642,-0.006 -0.27283,-0.0112 -0.41338,-0.0169 -1.64972,-0.10932 -2.80083,-0.49034 -4.07282,-1.55526 -2.26817,-2.69728 -2.26818,-5.65891 -2.01947,-9.0537305 0.2832,-1.61554 0.86262,-3.07438 2.16856,-4.12025 2.04401,-1.30232 4.10262,-1.58321 6.48338,-1.581 z"
     fill="#8361c5"
     id="path735"
     style="stroke-width:0.216856" />
  <path
     d="m 46.258501,58.094066 c 0.0716,0 0.14312,0 0.21685,0 0.0243,0.19246 0.0243,0.19246 0.0491,0.38881 0.15015,0.90235 0.27809,1.58973 0.98094,2.21346 0.71685,0.44113 1.18597,0.54063 2.00591,0.65056 -0.50268,2.11832 -1.10877,4.20168 -1.73061,6.28712 -0.10641,0.35843 -0.21277,0.71687 -0.31909,1.07533 -0.2832,0.95436 -0.56708,1.90852 -0.85114,2.86263 -0.47221,1.58641 -0.94351,3.17309 -1.41504,4.7597 -0.17704,0.5956 -0.35417,1.19118 -0.5313,1.78675 -0.65827,2.21407 -1.31291,4.42914 -1.96179,6.64598 -0.27365,0.9345 -0.54821,1.86873 -0.82252,2.80304 -0.14239,0.48611 -0.28428,0.97236 -0.42565,1.45877 -2.18331,7.51038 -2.18331,7.51038 -4.56115,8.95574 -1.12707,0.42578 -2.14363,0.48497 -3.34347,0.49131 -0.18187,0.001 -0.36373,0.002 -0.55111,0.004 -0.38478,0.002 -0.76957,0.003 -1.15435,0.004 -0.58349,0.002 -1.16681,0.009 -1.75026,0.0157 -0.37512,0.001 -0.75024,0.003 -1.12536,0.003 -0.1722,0.003 -0.3444,0.005 -0.52182,0.008 -1.43032,-0.006 -2.81663,-0.24474 -3.96692,-1.13983 -1.33409,-1.79206 -1.43667,-4.16281 -1.64167,-6.31253 -0.23285,-0.0212 -0.46571,-0.0425 -0.70562,-0.0644 -0.31147,-0.0326 -0.62292,-0.0653 -0.93435,-0.0983 -0.15277,-0.0134 -0.30554,-0.0268 -0.46293,-0.0407 -1.10743,-0.12248 -2.0363,-0.3456 -2.88478,-1.09783 -0.73634,-1.22784 -1.03398,-2.52329 -1.21033,-3.92712 -0.0256,-0.18612 -0.0512,-0.37224 -0.0776,-0.564 -0.0808,-0.59878 -0.15628,-1.19801 -0.23007,-1.7977 -0.0244,-0.19741 -0.0488,-0.39481 -0.074,-0.5982 -0.1807,-1.48011 -0.34692,-2.96171 -0.51134,-4.44369 -0.0525,-0.4682 -0.10505,-0.9364 -0.15765,-1.40459 -0.10892,-0.97089 -0.2173,-1.94183 -0.32524,-2.91283 -0.13838,-1.24454 -0.27792,-2.48895 -0.41783,-3.73332 -0.10809,-0.96212 -0.21569,-1.92428 -0.32312,-2.88647 -0.0513,-0.4593 -0.10277,-0.91858 -0.15435,-1.37785 -0.0716,-0.63808 -0.14248,-1.27623 -0.21323,-1.9144 -0.0213,-0.18879 -0.0426,-0.37758 -0.0645,-0.57209 -0.0191,-0.17374 -0.0383,-0.34748 -0.058,-0.52649 -0.0167,-0.15028 -0.0335,-0.30057 -0.0507,-0.45541 -0.0357,-0.42999 -0.0354,-0.86246 -0.0354,-1.29394 0.17779,-0.0131 0.35558,-0.0263 0.53875,-0.0398 0.35055,-0.0273 0.35055,-0.0273 0.70817,-0.0551 0.23146,-0.0176 0.46292,-0.0352 0.70139,-0.0534 0.63222,-0.0495 0.63222,-0.0495 1.14527,-0.19822 0.37611,-0.0872 0.37611,-0.0872 0.80982,0.12961 0.54368,0.0314 1.08228,0.0508 1.62642,0.061 0.16271,0.004 0.32542,0.008 0.49306,0.0121 0.52234,0.0128 1.04469,0.0242 1.56707,0.0353 3.92323,0.0853 3.92323,0.0853 5.64121,0.28187 1.14681,0.11559 2.4629,0.14885 3.48706,-0.43011 0.39847,-0.3185 0.39847,-0.3185 0.84709,-0.82761 0.54076,0.26106 1.0152,0.53223 1.51799,0.86743 0.41419,0.071 0.41419,0.071 0.86864,0.0699 0.26085,0.006 0.26085,0.006 0.52697,0.0126 0.1877,0.002 0.37541,0.004 0.5688,0.006 0.19507,0.002 0.39013,0.005 0.59111,0.007 0.41397,0.004 0.82796,0.007 1.24194,0.009 0.62558,0.004 1.25051,0.0176 1.87594,0.0313 2.27671,0.0264 4.14991,-0.009 6.03681,-1.43667 0.45686,-0.44877 0.86591,-0.89394 1.25624,-1.40109 0.12956,-0.16521 0.12956,-0.16521 0.26175,-0.33375 z"
     fill="#8a9c20"
     id="path737"
     style="stroke-width:0.216856" />
  <path
     d="m 77.268861,56.359216 c 0.0716,0 0.14312,0 0.21685,0 0.006,0.20407 0.0112,0.40813 0.017,0.61838 0.0736,1.64421 0.0736,1.64421 0.51164,3.21726 0.80419,0.72573 1.68083,0.92504 2.72425,1.15204 0.0217,1.39694 -0.0556,2.74781 -0.20865,4.13567 -0.0222,0.20903 -0.0444,0.41807 -0.0673,0.63344 -0.0732,0.68599 -0.14802,1.3718 -0.22295,2.05761 -0.052,0.48099 -0.10389,0.96199 -0.15577,1.44299 -0.10885,1.0068 -0.21852,2.01352 -0.32871,3.02018 -0.14032,1.28276 -0.27824,2.56576 -0.4155,3.84885 -0.10662,0.99343 -0.21471,1.98671 -0.32321,2.97994 -0.0514,0.47257 -0.10233,0.94519 -0.15273,1.41787 -0.81908,7.66208 -0.81908,7.66208 -2.29961,9.14262 -1.29912,0.82671 -2.60243,0.88011 -4.09908,0.87843 -0.18627,9.3e-4 -0.37255,0.002 -0.56446,0.003 -0.39202,0.001 -0.78404,0.001 -1.17605,4.1e-4 -0.59583,-6.8e-4 -1.19142,0.004 -1.78721,0.01 -0.38274,4.9e-4 -0.76549,6.5e-4 -1.14823,4.2e-4 -0.17603,0.002 -0.35205,0.004 -0.5334,0.006 -1.63371,-0.0131 -3.14153,-0.42764 -4.34887,-1.58334 -1.56933,-1.85162 -2.18607,-4.67504 -2.8915,-6.95887 -0.11588,-0.37068 -0.23185,-0.74133 -0.34789,-1.11196 -0.34241,-1.0971 -0.68121,-2.19528 -1.01916,-3.29375 -0.17441,-0.56678 -0.349,-1.1335 -0.52382,-1.70014 -0.67524,-2.18875 -1.34767,-4.37834 -2.018,-6.5686 -0.15721,-0.51321 -0.3148,-1.02631 -0.47246,-1.53939 -0.25053,-0.81563 -0.49977,-1.63163 -0.74806,-2.44794 -0.0929,-0.30471 -0.18618,-0.60929 -0.2799,-0.91373 -0.12922,-0.42003 -0.25677,-0.84057 -0.38424,-1.26112 -0.0724,-0.23708 -0.1448,-0.47415 -0.21939,-0.71841 -0.15391,-0.61253 -0.15391,-0.61253 -0.15391,-1.47996 1.13878,-0.46094 1.13878,-0.46094 1.84157,-0.34307 1.08473,0.17998 2.15667,0.19227 3.25453,0.20754 0.33168,0.0122 0.33168,0.0122 0.67005,0.0246 1.39687,0.0298 1.39687,0.0298 2.58957,-0.61244 0.17667,-0.19065 0.35333,-0.3813 0.53536,-0.57772 0.13418,-0.12971 0.26836,-0.25941 0.4066,-0.39305 0.0805,-0.085 0.16102,-0.16996 0.24397,-0.25752 0.10007,0.0839 0.20015,0.16773 0.30325,0.25413 2.4648,1.96794 4.58273,2.09488 7.64798,1.76629 1.92584,-0.26148 3.36315,-1.21044 4.62639,-2.67099 0.4922,-0.77025 0.91334,-1.55811 1.30114,-2.38541 z"
     fill="#8a4e8c"
     id="path739"
     style="stroke-width:0.216856" />
  <path
     d="m 55.078421,26.112086 c 1.20804,1.27965 2.16177,3.03651 2.41591,4.78014 0.16491,0.75573 0.16491,0.75573 0.6548,0.94959 0.34,0.10137 0.68217,0.19566 1.02583,0.28378 1.66896,0.51352 2.88539,1.98095 3.78142,3.41548 0.58805,1.19431 1.07543,2.37071 1.30114,3.68654 0.1789,0.0134 0.35781,0.0268 0.54214,0.0407 1.86785,0.43361 1.86785,0.43361 2.49384,1.26048 0.15268,1.10283 0.10014,2.14706 0,3.25283 -0.14704,0.04 -0.29408,0.0799 -0.44557,0.12114 -1.74319,0.54323 -2.83663,1.41034 -4.1084,2.69799 -0.16353,0.16325 -0.32706,0.3265 -0.49555,0.4947 -0.12272,0.123 -0.24544,0.24599 -0.37187,0.37272 -0.0895,-0.12831 -0.17891,-0.25662 -0.27107,-0.38882 -1.00774,-1.37888 -1.99548,-2.3184 -3.63234,-2.86402 -0.31573,-0.024 -0.63241,-0.0366 -0.94901,-0.0418 -0.19112,-0.003 -0.38224,-0.007 -0.57916,-0.0106 -0.8729,-0.01 -1.74577,-0.0185 -2.61872,-0.0235 -0.45999,-0.004 -0.91997,-0.01 -1.37991,-0.0178 -0.66434,-0.0119 -1.3284,-0.0166 -1.99284,-0.0198 -0.2047,-0.005 -0.40939,-0.01 -0.6203,-0.0149 -0.9632,0.003 -1.62731,0.0294 -2.39519,0.6473 -0.4976,0.53638 -0.70302,0.79458 -0.82268,1.50057 -0.0447,0.26389 -0.0895,0.52778 -0.13554,0.79966 -0.092,-0.0814 -0.18394,-0.16269 -0.27869,-0.24651 -0.64853,-0.56586 -1.30332,-1.125 -1.98474,-1.65098 -0.10706,-0.0839 -0.21413,-0.16772 -0.32444,-0.25413 -1.32898,-0.69338 -2.78482,-0.737 -4.24986,-0.7573 -0.19008,-0.004 -0.38016,-0.008 -0.57599,-0.0127 -0.60086,-0.0129 -1.20173,-0.023 -1.80264,-0.033 -0.41,-0.008 -0.81999,-0.0168 -1.22998,-0.0254 -0.99954,-0.0207 -1.9991,-0.039 -2.99871,-0.0559 0.42383,-1.75511 0.89623,-3.48852 1.41973,-5.2164 0.0725,-0.23941 0.14498,-0.47882 0.21967,-0.72549 0.15269,-0.5027 0.30579,-1.00529 0.45927,-1.50776 0.15467,-0.50803 0.30814,-1.01643 0.4604,-1.52519 2.47398,-8.2663 2.47398,-8.2663 5.44172,-10.05255 1.21229,-0.63741 2.36243,-1.11415 3.70942,-1.35705 0.14033,-0.0263 0.28066,-0.0525 0.42524,-0.0796 3.4994,-0.53337 7.25609,0.16319 9.91267,2.5777 z"
     fill="#e05027"
     id="path741"
     style="stroke-width:0.216856" />
  <path
     d="m 49.511331,61.346896 c 1.43125,0 2.8625,0 4.33712,0 0.28019,0.9442 0.56028,1.88843 0.84031,2.83268 0.11867,0.39981 0.11867,0.39981 0.23973,0.8077 0.15299,0.516 0.30487,1.03233 0.45552,1.54902 0.14872,0.49681 0.31321,0.98896 0.4856,1.47807 0.4052,1.93985 -0.31256,3.8808 -0.87928,5.72295 -0.0847,0.28062 -0.16918,0.5613 -0.25351,0.84203 -0.22827,0.75832 -0.45889,1.51592 -0.68993,2.2734 -0.2432,0.79875 -0.48428,1.59813 -0.72539,2.39751 -0.0735,0.24379 -0.0735,0.24379 -0.14856,0.49252 -0.10038,0.3328 -0.20074,0.6656 -0.3011,0.9984 -0.15388,0.50997 -0.30803,1.01985 -0.46221,1.52972 -0.69465,2.2991 -1.37782,4.60138 -2.05318,6.90621 -0.15549,0.53063 -0.31118,1.06121 -0.46691,1.59177 -0.6012,2.04841 -0.6012,2.04841 -1.1996,4.09765 -0.23221,0.79726 -0.4658,1.59409 -0.70037,2.39066 -0.0854,0.29092 -0.17025,0.58198 -0.25453,0.87322 -1.66596,5.753844 -1.66596,5.753844 -3.6451,7.238204 -1.30436,0.56765 -2.51246,0.74798 -3.92373,0.73697 -0.18033,6.2e-4 -0.36066,10e-4 -0.54646,0.002 -0.3783,4.4e-4 -0.75662,-7.4e-4 -1.13492,-0.003 -0.57391,-0.003 -1.14749,-2e-5 -1.72139,0.004 -0.37018,-4.3e-4 -0.74036,-0.001 -1.11054,-0.003 -0.1688,10e-4 -0.3376,0.003 -0.51151,0.004 -1.41631,-0.0178 -2.80174,-0.26494 -3.93912,-1.1518 -1.37965,-1.84984 -1.44409,-4.31111 -1.64166,-6.528554 0.25242,-0.005 0.25242,-0.005 0.50995,-0.01 0.76983,-0.0162 1.53946,-0.0372 2.30917,-0.0582 0.26473,-0.005 0.52945,-0.01 0.8022,-0.0148 1.86415,-0.0554 3.53248,-0.19284 4.97413,-1.5218 2.69778,-3.16931 3.38807,-8.7629 4.53491,-12.69454 0.23483,-0.80431 0.47056,-1.60836 0.70631,-2.4124 0.0478,-0.16296 0.0956,-0.32592 0.14479,-0.49381 0.0974,-0.33219 0.19481,-0.66438 0.29223,-0.99657 0.14779,-0.50407 0.2955,-1.00816 0.4432,-1.51225 0.97403,-3.32359 1.95535,-6.64501 2.94026,-9.96539 0.18255,-0.61546 0.36487,-1.23099 0.54699,-1.84658 0.25277,-0.8544 0.5062,-1.70859 0.75972,-2.56276 0.0752,-0.25454 0.15048,-0.50908 0.228,-0.77133 0.0686,-0.23078 0.13727,-0.46156 0.20799,-0.69933 0.0596,-0.20111 0.11926,-0.40223 0.1807,-0.60944 0.15332,-0.47982 0.15332,-0.47982 0.37017,-0.91353 z"
     fill="#5e4712"
     id="path743"
     style="stroke-width:0.216856" />
  <path
     d="m 46.258501,58.094066 c 0.0716,0 0.14312,0 0.21685,0 0.0243,0.19246 0.0243,0.19246 0.0491,0.38881 0.15015,0.90235 0.27809,1.58973 0.98094,2.21346 0.71685,0.44113 1.18597,0.54063 2.00591,0.65056 -0.50268,2.11832 -1.10877,4.20168 -1.73061,6.28712 -0.10641,0.35843 -0.21277,0.71687 -0.31909,1.07533 -0.2832,0.95436 -0.56708,1.90852 -0.85114,2.86263 -0.47221,1.58641 -0.94351,3.17309 -1.41504,4.7597 -0.17704,0.5956 -0.35417,1.19118 -0.5313,1.78675 -0.65827,2.21407 -1.31291,4.42914 -1.96179,6.64598 -0.27365,0.9345 -0.54821,1.86873 -0.82252,2.80304 -0.14239,0.48611 -0.28428,0.97236 -0.42565,1.45877 -2.18331,7.51038 -2.18331,7.51038 -4.56115,8.95574 -1.12707,0.42578 -2.14363,0.48497 -3.34347,0.49131 -0.18187,0.001 -0.36373,0.002 -0.55111,0.004 -0.38478,0.002 -0.76957,0.003 -1.15435,0.004 -0.58349,0.002 -1.16681,0.009 -1.75026,0.0157 -0.37512,0.001 -0.75024,0.003 -1.12536,0.003 -0.1722,0.003 -0.3444,0.005 -0.52182,0.008 -1.43037,-0.006 -2.81737,-0.24432 -3.96692,-1.14067 -1.37965,-1.84984 -1.4441,-4.31111 -1.64167,-6.52855 0.26228,-0.005 0.26228,-0.005 0.52986,-0.01 0.79933,-0.0162 1.59848,-0.0372 2.3977,-0.0582 0.27506,-0.005 0.55013,-0.01 0.83353,-0.0148 1.89344,-0.0542 3.5858,-0.17093 5.05122,-1.5218 2.77445,-3.25938 3.48359,-9.08019 4.66715,-13.13122 0.2332,-0.79755 0.4673,-1.59485 0.7013,-2.39217 1.20828,-4.11926 2.40665,-8.24139 3.60141,-12.36459 0.14975,-0.0288 0.2995,-0.0575 0.45379,-0.0872 0.19599,-0.0383 0.39198,-0.0766 0.5939,-0.116 0.19448,-0.0377 0.38896,-0.0754 0.58933,-0.1143 1.6322,-0.35687 2.69751,-1.31774 3.7166,-2.59396 0.0939,-0.11266 0.18785,-0.22531 0.28463,-0.34138 z"
     fill="#84681a"
     id="path745"
     style="stroke-width:0.216856" />
  <path
     d="m 80.738551,61.346896 c 2.43312,0 4.86624,0 7.37309,0 -0.14828,3.20333 -0.48151,6.37849 -0.83047,9.56542 -0.066,0.60403 -0.13157,1.20812 -0.19711,1.81221 -0.15481,1.42661 -0.3106,2.85311 -0.46701,4.27955 -0.16029,1.46215 -0.31874,2.92449 -0.47632,4.38694 -0.13644,1.26564 -0.27412,2.53114 -0.41275,3.79655 -0.0823,0.75143 -0.16415,1.5029 -0.24477,2.25451 -0.09,0.83843 -0.18253,1.67656 -0.27529,2.51468 -0.0257,0.24285 -0.0514,0.4857 -0.0779,0.7359 -0.61594,5.47903 -0.61594,5.47903 -2.06026,6.92335 -1.29912,0.82672 -2.60243,0.88012 -4.09908,0.87844 -0.18627,9.3e-4 -0.37255,0.002 -0.56446,0.003 -0.39202,0.001 -0.78404,0.001 -1.17605,4.1e-4 -0.59583,-6.9e-4 -1.19142,0.004 -1.78721,0.01 -0.38274,4.9e-4 -0.76549,6.5e-4 -1.14823,4.2e-4 -0.17603,0.002 -0.35205,0.004 -0.5334,0.006 -1.65752,-0.0133 -3.13286,-0.44945 -4.37296,-1.59351 -1.38723,-1.70711 -1.91227,-4.01678 -2.52857,-6.08128 0.32955,-0.005 0.32955,-0.005 0.66576,-0.01 0.82334,-0.0127 1.64656,-0.0294 2.4698,-0.0473 0.35477,-0.007 0.70957,-0.0133 1.06437,-0.0182 3.12606,0.0631 3.12606,0.0631 5.85675,-1.23956 1.10604,-1.99939 1.22527,-4.30055 1.46293,-6.53024 0.0406,-0.36665 0.0813,-0.73329 0.12225,-1.09991 0.10733,-0.96605 0.21223,-1.93235 0.31662,-2.89872 0.10339,-0.95317 0.20911,-1.90607 0.31462,-2.85901 0.24915,-2.25505 0.49408,-4.51055 0.73824,-6.76615 0.0426,-0.39304 0.0852,-0.78609 0.12776,-1.17914 0.24717,-2.28144 0.49351,-4.56297 0.73966,-6.84452 z"
     fill="#533588"
     id="path747"
     style="stroke-width:0.216856" />
  <path
     d="m 36.499991,10.602666 c 2.06911,0.43063 3.99648,0.85108 5.28586,2.64293 0.9441,1.57876 1.32135,3.11935 1.21981,4.94702 0.1339,0.0213 0.2678,0.0425 0.40576,0.0644 2.1195,0.37422 3.78887,0.93528 5.09695,2.73018 0.59358,0.8853 0.86279,1.55575 1.00296,2.62683 -0.25242,-0.008 -0.25242,-0.008 -0.50995,-0.0152 -3.29355,-0.055 -6.45912,0.24456 -9.09947,2.3871 -2.63987,2.65247 -3.39123,6.68285 -4.43198,10.15156 -0.16494,0.5425 -0.33012,1.08492 -0.49555,1.62726 -0.30328,0.99595 -0.60533,1.99224 -0.90533,2.98918 -0.0658,0.21727 -0.13165,0.43453 -0.19947,0.65838 -0.12573,0.42272 -0.24739,0.84668 -0.36493,1.27175 -0.0549,0.19567 -0.10971,0.39134 -0.16622,0.59294 -0.0467,0.17237 -0.0934,0.34475 -0.14158,0.52235 -0.16655,0.41601 -0.16655,0.41601 -0.70869,0.79551 -0.54214,0.0542 -0.54214,0.0542 -1.19271,-0.3795 -0.43922,-0.0788 -0.43922,-0.0788 -0.9174,-0.0898 -0.26102,-0.0126 -0.26102,-0.0126 -0.52731,-0.0254 -0.18072,-0.007 -0.36145,-0.0134 -0.54765,-0.0203 -0.27485,-0.0126 -0.27485,-0.0126 -0.55527,-0.0254 -0.45184,-0.0204 -0.9038,-0.0384 -1.35577,-0.0559 -0.005,-3.19127 -0.009,-6.38254 -0.0112,-9.57381 -0.001,-1.48167 -0.003,-2.96333 -0.005,-4.44499 -0.002,-1.42856 -0.004,-2.85712 -0.004,-4.28568 -4e-4,-0.54637 -0.001,-1.09274 -0.002,-1.63912 -0.002,-0.76234 -0.002,-1.52467 -0.002,-2.28702 -7.8e-4,-0.22836 -0.002,-0.45671 -0.002,-0.69199 4.5e-4,-0.30973 4.5e-4,-0.30973 9e-4,-0.62571 -2e-4,-0.18051 -4e-4,-0.36101 -6e-4,-0.54699 0.0267,-0.40938 0.0267,-0.40938 0.24354,-0.62624 0.40284,-0.0207 0.80581,-0.04 1.20901,-0.0519 2.01316,-0.0641 3.8465,-0.23692 5.48641,-1.52032 1.76766,-2.28756 2.04318,-4.24496 2.19566,-7.10203 z"
     fill="#646e18"
     id="path749"
     style="stroke-width:0.216856" />
  <path
     d="m 94.617311,10.602666 c 2.06912,0.43063 3.99649,0.85108 5.28586,2.64293 1.076309,1.64594 1.337499,3.53649 1.314689,5.46206 -0.002,0.19882 -0.004,0.39764 -0.006,0.60249 -0.0599,2.35007 -0.5538,4.14078 -2.226159,5.85659 -1.54647,1.32675 -3.43972,1.72948 -5.43918,1.83564 -0.1483,0.008 -0.29659,0.0168 -0.44938,0.0254 -0.36064,0.0202 -0.7214,0.0383 -1.08217,0.0559 -0.0213,0.19863 -0.0425,0.39726 -0.0644,0.60192 -0.20049,1.87299 -0.40145,3.74594 -0.60295,5.61883 -0.10357,0.96284 -0.20696,1.92571 -0.30993,2.88861 -0.0994,0.92946 -0.19927,1.85887 -0.29949,2.78824 -0.0381,0.35437 -0.0761,0.70876 -0.11386,1.06318 -0.053,0.49683 -0.10659,0.9936 -0.16034,1.49035 -0.0303,0.28267 -0.0607,0.56534 -0.0919,0.85658 -0.0761,0.6119 -0.18787,1.21924 -0.3088,1.82388 -3.64968,-0.10734 -3.64968,-0.10734 -7.37309,-0.21685 0.53424,-5.29783 1.08952,-10.59329 1.65691,-15.88766 0.0794,-0.74104 0.15832,-1.48214 0.23687,-2.22327 0.094,-0.8864 0.18889,-1.77269 0.28452,-2.65891 0.0357,-0.33251 0.0711,-0.66506 0.10618,-0.99764 0.0483,-0.45801 0.0979,-0.91587 0.14768,-1.37371 0.0277,-0.25909 0.0554,-0.51818 0.084,-0.78512 0.0861,-0.57838 0.0861,-0.57838 0.30295,-0.79524 0.4921,-0.0293 0.98468,-0.0503 1.47733,-0.0678 2.18052,-0.12025 4.14805,-0.55073 5.76193,-2.11773 1.56259,-1.85699 1.73537,-4.15584 1.86868,-6.48873 z"
     fill="#5957a8"
     id="path751"
     style="stroke-width:0.216856" />
  <path
     d="m 101.12298,18.192616 c 2.24913,0.35686 4.0935,0.8792 5.49509,2.77931 1.63275,2.41836 1.55764,5.6402 1.0936,8.4362 -0.49188,1.68892 -1.44092,3.06057 -2.91315,4.04486 -1.94481,1.03094 -3.84077,1.07265 -6.060949,1.22066 -0.35781,3.07719 -0.71562,6.15437 -1.08428,9.3248 -1.28812,0.0716 -2.57624,0.14312 -3.9034,0.21685 -1.68557,0.43939 -1.68557,0.43939 -2.16856,1.30114 -0.8537,-0.28457 -1.3504,-0.63303 -1.9517,-1.30114 0.14313,0 0.28625,0 0.43371,0 0.0117,-0.18003 0.0233,-0.36007 0.0353,-0.54556 0.1326,-1.95961 0.31688,-3.90988 0.52718,-5.86269 0.0332,-0.31117 0.0664,-0.62234 0.0996,-0.93351 0.0689,-0.64458 0.13819,-1.28912 0.20777,-1.93363 0.0893,-0.82729 0.17712,-1.65471 0.26465,-2.48217 0.0678,-0.63908 0.13647,-1.27806 0.2054,-1.91701 0.0328,-0.30545 0.0653,-0.61093 0.0975,-0.91644 0.0447,-0.4235 0.0908,-0.84686 0.1369,-1.27021 0.0258,-0.24077 0.0517,-0.48154 0.0783,-0.7296 0.0822,-0.54077 0.0822,-0.54077 0.2991,-0.75763 0.4921,-0.0292 0.98468,-0.0503 1.47733,-0.0678 2.18052,-0.12025 4.14805,-0.55073 5.76193,-2.11773 1.562589,-1.85699 1.735379,-4.15584 1.868679,-6.48873 z"
     fill="#3f4075"
     id="path753"
     style="stroke-width:0.216856" />
  <path
     d="m 19.429381,45.199626 c 0.21832,8.3e-4 0.43665,0.002 0.66158,0.003 0.34006,0.008 0.34006,0.008 0.68699,0.0161 0.22671,2.8e-4 0.45342,5.6e-4 0.687,8.5e-4 1.83324,0.0211 1.83324,0.0211 2.67427,0.51418 0.14312,-0.14312 0.28625,-0.28625 0.43371,-0.43371 0.9944,-0.10629 1.99589,-0.0803 2.99532,-0.0813 0.41784,-0.008 0.41784,-0.008 0.84413,-0.0161 0.26849,-8.4e-4 0.53699,-0.002 0.81363,-0.003 0.24594,-0.002 0.49188,-0.004 0.74528,-0.005 0.82035,0.12831 1.17936,0.38618 1.75788,0.97278 0.144,0.66327 0.144,0.66327 0.13553,1.396 0.004,0.36187 0.004,0.36187 0.008,0.73104 -0.144,0.69208 -0.144,0.69208 -0.68699,1.14183 -0.77601,0.90968 -0.68843,1.64524 -0.67174,2.80478 -0.002,0.20871 -0.003,0.41742 -0.005,0.63245 -0.005,0.66517 -0.003,1.33005 1.8e-4,1.99523 8.4e-4,0.66667 10e-5,1.33322 -0.004,1.99987 -0.003,0.41439 -0.002,0.82881 0.002,1.24318 -0.001,0.28122 -0.001,0.28122 -0.002,0.56812 8.6e-4,0.1648 0.002,0.32959 0.003,0.49937 -0.10262,0.56147 -0.27165,0.7496 -0.72973,1.08374 -0.63378,0.0647 -1.21081,0.0908 -1.84328,0.0813 -0.16744,0.003 -0.33489,0.005 -0.50741,0.008 -1.24151,-0.006 -1.24151,-0.006 -1.71409,-0.41963 -0.13481,-0.15834 -0.13481,-0.15834 -0.27234,-0.31988 -0.14995,0.0701 -0.29991,0.14012 -0.45441,0.2123 -1.18189,0.41546 -2.43869,0.30148 -3.6794,0.30273 -0.27744,0.005 -0.55489,0.0106 -0.84074,0.0161 -0.39939,10e-4 -0.39939,10e-4 -0.80685,0.003 -0.24294,0.002 -0.48588,0.004 -0.73618,0.005 -0.78207,-0.12902 -1.03478,-0.34566 -1.50608,-0.97278 -0.1152,-0.71834 -0.1152,-0.71834 -0.10843,-1.51799 -0.002,-0.26389 -0.004,-0.52778 -0.007,-0.79966 0.13265,-0.82716 0.31928,-1.09073 0.98262,-1.58576 0.14313,0 0.28625,0 0.43372,0 0,-1.71749 0,-3.43499 0,-5.20453 -0.28625,-0.14313 -0.5725,-0.28625 -0.86743,-0.43371 -0.51067,-0.76602 -0.50472,-1.13789 -0.51503,-2.04658 -0.006,-0.24572 -0.0123,-0.49143 -0.0186,-0.74459 0.18514,-1.25672 0.90026,-1.65677 2.11265,-1.6459 z"
     fill="#1a6e0b"
     id="path755"
     style="stroke-width:0.216856" />
  <path
     d="m 69.218091,44.987846 c 0.27549,-0.007 0.27549,-0.007 0.55654,-0.0131 1.93208,10e-4 3.52775,0.69376 4.92161,2.03175 1.77853,2.03208 1.91579,4.11827 1.80176,6.71321 -0.16375,2.29592 -0.94808,3.93586 -2.69883,5.45867 -2.06718,1.33021 -4.34491,1.29988 -6.72253,1.08427 -1.69115,-0.41519 -2.97,-1.59104 -3.9034,-3.03598 -0.78797,-1.53649 -1.02257,-2.91964 -1.00296,-4.63529 0.002,-0.21903 0.004,-0.43807 0.006,-0.66375 0.0716,-2.32027 0.68767,-3.81947 2.39299,-5.44886 1.45937,-1.24974 2.78724,-1.50633 4.64884,-1.49089 z"
     fill="#eb5a27"
     id="path757"
     style="stroke-width:0.216856" />
  <path
     d="m 95.296681,45.184376 c 0.17172,-8.3e-4 0.34345,-0.002 0.52037,-0.003 0.36346,-5.9e-4 0.72693,10e-4 1.09038,0.005 0.54983,0.005 1.09905,6e-5 1.64886,-0.006 2.285619,-0.004 4.229579,0.0949 6.009279,1.6908 1.4703,1.60901 1.80448,3.26961 1.81616,5.38073 0.004,0.1961 0.009,0.39219 0.0136,0.59423 0.0121,2.12325 -0.43673,3.9969 -1.90257,5.59208 -1.87002,1.79539 -4.29278,1.717 -6.728459,1.70367 -0.52114,-0.002 -1.04179,0.004 -1.56288,0.0113 -0.33319,3.5e-4 -0.66638,2.3e-4 -0.99957,-4.2e-4 -0.15474,0.002 -0.30949,0.005 -0.46892,0.007 -0.73449,-0.0103 -1.13486,-0.0665 -1.73066,-0.5105 -0.47821,-0.67038 -0.45196,-1.17441 -0.44505,-1.98987 -0.002,-0.26389 -0.004,-0.52778 -0.007,-0.79966 0.13265,-0.82716 0.31928,-1.09073 0.98262,-1.58576 0.14313,0 0.28625,0 0.43372,0 0,-1.71749 0,-3.43499 0,-5.20453 -0.28625,-0.14313 -0.5725,-0.28625 -0.86743,-0.43371 -0.61796,-0.61797 -0.50608,-1.06367 -0.51503,-1.9246 -0.006,-0.2678 -0.0123,-0.5356 -0.0186,-0.81151 0.1,-0.73358 0.1,-0.73358 0.42969,-1.20594 0.74301,-0.54592 1.41384,-0.51976 2.30134,-0.51027 z"
     fill="#eb5a27"
     id="path759"
     style="stroke-width:0.216856" />
  <path
     d="m 35.227661,45.184376 c 0.17172,-8.3e-4 0.34344,-0.002 0.52037,-0.003 0.36346,-5.9e-4 0.72693,10e-4 1.09037,0.005 0.54984,0.005 1.09905,6e-5 1.64887,-0.006 2.28562,-0.004 4.22958,0.0949 6.00927,1.6908 1.47031,1.60901 1.80448,3.26961 1.81617,5.38073 0.004,0.1961 0.009,0.39219 0.0136,0.59423 0.0121,2.12325 -0.43672,3.9969 -1.90257,5.59208 -1.87001,1.79539 -4.29278,1.717 -6.72845,1.70367 -0.52115,-0.002 -1.04179,0.004 -1.56289,0.0113 -0.33319,3.5e-4 -0.66638,2.3e-4 -0.99957,-4.2e-4 -0.15474,0.002 -0.30948,0.005 -0.46891,0.007 -0.7345,-0.0103 -1.13486,-0.0665 -1.73067,-0.5105 -0.4782,-0.67038 -0.45195,-1.17441 -0.44504,-1.98987 -0.002,-0.26389 -0.004,-0.52778 -0.007,-0.79966 0.13266,-0.82716 0.31929,-1.09073 0.98263,-1.58576 0.14313,0 0.28625,0 0.43371,0 0,-1.71749 0,-3.43499 0,-5.20453 -0.28625,-0.14313 -0.5725,-0.28625 -0.86742,-0.43371 -0.61796,-0.61797 -0.50608,-1.06367 -0.51503,-1.9246 -0.006,-0.2678 -0.0123,-0.5356 -0.0186,-0.81151 0.1,-0.73358 0.1,-0.73358 0.42969,-1.20594 0.74301,-0.54592 1.41384,-0.51976 2.30134,-0.51027 z"
     fill="#eb5a27"
     id="path761"
     style="stroke-width:0.216856" />
  <path
     d="m 81.740661,45.184376 c 0.30476,-10e-4 0.30476,-10e-4 0.61568,-0.003 0.42927,-5.9e-4 0.85854,10e-4 1.28779,0.005 0.65595,0.005 1.31138,4e-5 1.96732,-0.006 0.41748,5.7e-4 0.83495,0.002 1.25243,0.003 0.19565,-0.002 0.3913,-0.004 0.59288,-0.005 0.90103,0.0134 1.40076,0.0476 2.18764,0.51998 0.71565,0.79939 0.56632,1.5938 0.52144,2.61789 -0.1025,0.6692 -0.1025,0.6692 -0.52265,1.38753 -0.66412,0.36595 -0.66412,0.36595 -2.61583,0.36595 0,1.71749 0,3.43499 0,5.20453 0.64407,0 1.28813,0 1.95171,0 0.65564,0.34646 0.65564,0.34646 1.08427,0.86743 0.14401,0.66327 0.14401,0.66327 0.13554,1.396 0.003,0.24125 0.006,0.48249 0.008,0.73105 -0.19276,0.92636 -0.47873,1.2012 -1.22828,1.77635 -0.68735,0.15792 -1.3572,0.15211 -2.06013,0.144 -0.19806,10e-4 -0.39611,0.002 -0.60017,0.003 -0.41776,7.3e-4 -0.83553,-0.001 -1.25327,-0.006 -0.63843,-0.006 -1.27603,-5e-5 -1.91443,0.007 -0.40661,-7.2e-4 -0.81321,-0.002 -1.21981,-0.004 -0.28535,0.003 -0.28535,0.003 -0.57645,0.007 -0.95762,-0.0183 -1.36372,-0.0587 -2.14606,-0.65855 -0.52311,-0.71466 -0.56119,-1.1207 -0.54388,-1.99951 -4.2e-4,-0.3627 -4.2e-4,-0.3627 -8.5e-4,-0.73273 0.12283,-0.66327 0.12283,-0.66327 0.42863,-1.18424 0.56162,-0.34646 0.56162,-0.34646 2.73018,-0.34646 0,-1.71749 0,-3.43499 0,-5.20453 -0.64406,0 -1.28812,0 -1.9517,0 -0.66412,-0.36595 -0.66412,-0.36595 -1.08428,-1.08428 -0.3294,-2.32345 -0.3294,-2.32345 0.31099,-3.28709 0.84387,-0.60581 1.62806,-0.52375 2.64282,-0.51466 z"
     fill="#196d0c"
     id="path763"
     style="stroke-width:0.216856" />
  <path
     d="m 51.766721,46.530826 c 0.22257,7.1e-4 0.22257,7.1e-4 0.44964,0.001 0.44603,6.8e-4 0.89173,-0.004 1.33772,-0.01 1.89893,-9.3e-4 3.54991,0.0264 5.06519,1.25751 0.7407,0.94902 0.73152,1.74704 0.65057,2.9411 -0.3595,1.11632 -0.7413,1.74853 -1.73485,2.38542 -0.14312,0 -0.28625,0 -0.43371,0 0.14089,0.21413 0.28178,0.42825 0.42694,0.64887 0.18302,0.28064 0.36599,0.56131 0.54891,0.84201 0.0931,0.14117 0.18618,0.28234 0.28208,0.42778 0.69377,1.06819 0.69377,1.06819 0.69377,1.55103 0.16549,-0.0134 0.33098,-0.0268 0.50148,-0.0407 0.5828,0.0407 0.5828,0.0407 0.9894,0.29817 0.24397,0.39305 0.24397,0.39305 0.20331,0.94875 -0.1762,0.52858 -0.1762,0.52858 -0.60991,0.96229 -0.89418,0.17776 -1.70885,0.18283 -2.60227,0 -0.69242,-0.53273 -1.07878,-1.20473 -1.51799,-1.9517 -0.29016,-0.47202 -0.5839,-0.94185 -0.88097,-1.40956 -0.13223,-0.22139 -0.26445,-0.44279 -0.40068,-0.6709 -0.4212,-0.58435 -0.4212,-0.58435 -1.15713,-0.70478 -0.19707,-0.0112 -0.39415,-0.0224 -0.5972,-0.0339 0,0.85875 0,1.7175 0,2.60227 0.28625,0.0716 0.5725,0.14312 0.86743,0.21685 0.21685,0.21686 0.21685,0.21686 0.27106,0.85387 -0.0268,0.32874 -0.0268,0.32874 -0.0542,0.66412 -0.66317,0.44212 -0.80466,0.48899 -1.55272,0.49132 -0.17206,5.6e-4 -0.34411,0.001 -0.52138,0.002 -0.17877,-0.002 -0.35754,-0.003 -0.54172,-0.005 -0.17961,0.002 -0.35921,0.003 -0.54426,0.005 -0.17178,-5.6e-4 -0.34355,-10e-4 -0.52054,-0.002 -0.15712,-4.9e-4 -0.31423,-9.8e-4 -0.47611,-10e-4 -0.39724,-0.0561 -0.39724,-0.0561 -0.83095,-0.48983 -0.0542,-0.65056 -0.0542,-0.65056 0,-1.30113 0.14313,-0.14313 0.28625,-0.28625 0.43371,-0.43371 0.21469,0 0.42938,0 0.65057,0 0,-2.57625 0,-5.15249 0,-7.80681 -0.28625,-0.0716 -0.5725,-0.14312 -0.86742,-0.21685 -0.21686,-0.21686 -0.21686,-0.21686 -0.25752,-0.85387 0.0955,-1.55996 1.5079,-1.16109 2.72976,-1.16772 z"
     fill="#eb5a27"
     id="path765"
     style="stroke-width:0.216856" />
  <path
     d="m 95.748181,43.904416 c 0.27818,-0.002 0.27818,-0.002 0.56197,-0.003 0.38981,-10e-4 0.77963,-10e-4 1.16944,7.4e-4 0.59159,0.002 1.18273,-0.004 1.77428,-0.0113 0.38105,-3.5e-4 0.762099,-2.2e-4 1.143149,4.3e-4 0.17423,-0.002 0.34845,-0.005 0.52795,-0.007 1.91526,0.0232 3.41087,0.79259 4.79773,2.08275 1.71746,1.84872 1.98692,3.75615 1.98632,6.21216 9.5e-4,0.43602 0.009,0.87155 0.017,1.30748 0.007,2.24641 -0.30617,4.04792 -1.84582,5.76023 -0.14564,0.16913 -0.29128,0.33825 -0.44133,0.51249 -2.21967,1.77753 -4.47036,1.75869 -7.199919,1.72966 -0.6559,-0.006 -1.31101,-2e-5 -1.96689,0.007 -0.41974,-7.1e-4 -0.83947,-0.002 -1.25921,-0.004 -0.19451,0.002 -0.38902,0.004 -0.58943,0.007 -0.94192,-0.0176 -1.57278,-0.0769 -2.32472,-0.67469 -0.51742,-0.56025 -0.51742,-0.56025 -0.51742,-0.99396 -0.32203,0.10735 -0.32203,0.10735 -0.65056,0.21686 0.005,-0.12571 0.009,-0.25141 0.0138,-0.38093 0.0181,-0.57325 0.0293,-1.14644 0.0405,-1.71986 0.007,-0.19778 0.0145,-0.39555 0.022,-0.59932 0.0134,-0.92294 0.0133,-1.48194 -0.45573,-2.29435 -0.47514,-0.41575 -0.81257,-0.63094 -1.40956,-0.81998 -0.26836,-0.085 -0.53672,-0.16996 -0.81321,-0.25752 0,-0.85875 0,-1.7175 0,-2.60227 0.48708,-0.19765 0.97415,-0.39531 1.46123,-0.59296 0.57009,-0.31901 0.79776,-0.58875 1.14104,-1.14188 0.0886,-0.50147 0.0886,-0.50147 0.0635,-1.03346 -0.002,-0.19288 -0.004,-0.38576 -0.006,-0.58449 -0.005,-0.19959 -0.0109,-0.39918 -0.0165,-0.60482 -0.003,-0.20295 -0.006,-0.4059 -0.009,-0.61499 -0.008,-0.49992 -0.0183,-0.99957 -0.0318,-1.49936 0.21468,0.0716 0.42937,0.14313 0.65056,0.21686 0.0358,-0.12971 0.0716,-0.25942 0.10843,-0.39305 0.85828,-1.25165 2.68073,-1.22399 4.05842,-1.21897 z m -2.75522,1.78975 c -0.46535,0.67217 -0.44264,1.18072 -0.43578,1.99083 -0.002,0.26388 -0.004,0.52777 -0.007,0.79965 0.13265,0.82716 0.31928,1.09073 0.98262,1.58576 0.14313,0 0.28625,0 0.43372,0 0,1.71749 0,3.43499 0,5.20453 -0.28625,0.14313 -0.5725,0.28625 -0.86743,0.43372 -0.61796,0.61796 -0.50608,1.06366 -0.51503,1.92459 -0.006,0.2678 -0.0123,0.5356 -0.0186,0.81151 0.0416,0.72873 0.0416,0.72873 0.43562,1.20642 0.71776,0.5326 1.34091,0.5157 2.20054,0.50217 0.16209,3.2e-4 0.32419,6.3e-4 0.4912,9.6e-4 0.34305,-3.6e-4 0.6861,-0.003 1.02912,-0.007 0.51836,-0.006 1.03624,-0.004 1.55462,-0.002 2.554239,-0.003 4.626289,-0.14927 6.551419,-1.99617 1.42221,-1.67473 1.54497,-3.64234 1.56712,-5.74752 0.006,-0.19596 0.0126,-0.39192 0.0191,-0.59382 0.0192,-2.05056 -0.66782,-3.55189 -2.05209,-5.04951 -1.34342,-1.19717 -2.84225,-1.49381 -4.593779,-1.51037 -0.17511,-0.002 -0.35023,-0.003 -0.53065,-0.005 -0.37021,-0.003 -0.74043,-0.005 -1.11064,-0.007 -0.56596,-0.004 -1.13164,-0.0133 -1.69752,-0.0228 -0.35987,-0.002 -0.71975,-0.004 -1.07962,-0.006 -0.16899,-0.004 -0.33798,-0.008 -0.51209,-0.0115 -0.76832,0.003 -1.2163,0.0391 -1.845,0.49843 z"
     fill="#3a266d"
     id="path767"
     style="stroke-width:0.216856" />
  <path
     d="m 20.723741,46.451626 c 0.2829,-0.0187 0.56579,-0.0375 0.85726,-0.0568 0.90063,0.22516 0.98916,0.29734 1.4858,1.02075 0.21976,0.375 0.43211,0.75439 0.63871,1.1368 0.12048,0.21397 0.24096,0.42794 0.36509,0.64839 0.3828,0.68815 0.75549,1.38092 1.12579,2.07586 0.19288,0.35914 0.19288,0.35914 0.38966,0.72553 0.31373,0.58445 0.62628,1.16954 0.93858,1.75475 0.0716,-1.64593 0.14312,-3.29187 0.21686,-4.98768 -0.42938,0 -0.85875,0 -1.30114,0 -0.43371,-0.43371 -0.43371,-0.43371 -0.48792,-1.08427 0.0542,-0.65057 0.0542,-0.65057 0.48792,-1.08428 0.43705,-0.0561 0.43705,-0.0561 0.96823,-0.0576 0.19134,-5.5e-4 0.38269,-10e-4 0.57983,-0.002 0.20029,0.002 0.40058,0.003 0.60694,0.005 0.19946,-0.002 0.39891,-0.003 0.60441,-0.005 0.28743,8.4e-4 0.28743,8.4e-4 0.58068,0.002 0.2633,7.4e-4 0.2633,7.4e-4 0.53192,10e-4 0.46511,0.0561 0.46511,0.0561 1.11567,0.48983 0.0813,0.65057 0.0813,0.65057 0,1.30113 -0.65056,0.43371 -0.65056,0.43371 -1.30113,0.43371 4.8e-4,0.12449 9.6e-4,0.24898 0.001,0.37725 0.005,1.29092 0.008,2.58184 0.0105,3.87278 10e-4,0.48234 0.003,0.96469 0.004,1.44704 0.003,0.69167 0.004,1.38333 0.005,2.07501 0.001,0.21708 0.002,0.43416 0.003,0.65781 10e-6,0.1997 3e-5,0.3994 5e-5,0.60515 4.8e-4,0.17673 9.6e-4,0.35346 0.001,0.53554 -0.0261,0.40478 -0.0261,0.40478 -0.24294,0.62164 -0.41761,0.0593 -0.41761,0.0593 -0.93519,0.0813 -0.16912,0.0106 -0.33824,0.0213 -0.51249,0.0322 -0.74388,-0.16753 -0.9286,-0.58683 -1.37144,-1.19779 -0.29219,-0.49077 -0.57217,-0.97983 -0.84371,-1.48156 -0.0758,-0.13806 -0.15157,-0.27611 -0.22965,-0.41834 -0.23955,-0.4369 -0.47764,-0.87456 -0.7157,-1.31227 -0.16311,-0.29809 -0.32632,-0.59613 -0.48962,-0.89411 -0.39828,-0.72682 -0.79459,-1.45468 -1.19101,-2.18253 -0.0716,1.64593 -0.14313,3.29187 -0.21686,4.98768 0.42938,0 0.85875,0 1.30114,0 0.43371,0.43371 0.43371,0.43371 0.50147,1.08428 -0.0224,0.21468 -0.0447,0.42937 -0.0678,0.65056 -0.68628,0.45752 -0.86177,0.48913 -1.6476,0.49132 -0.28743,8.4e-4 -0.28743,8.4e-4 -0.58068,0.002 -0.19945,-0.002 -0.3989,-0.003 -0.6044,-0.005 -0.20029,0.002 -0.40058,0.003 -0.60694,0.005 -0.28702,-8.4e-4 -0.28702,-8.4e-4 -0.57984,-0.002 -0.17529,-4.9e-4 -0.35058,-9.8e-4 -0.53118,-0.001 -0.43704,-0.0561 -0.43704,-0.0561 -0.87075,-0.48983 -0.0542,-0.65056 -0.0542,-0.65056 0,-1.30113 0.14312,-0.14313 0.28624,-0.28625 0.43371,-0.43371 0.28625,0 0.5725,0 0.86742,0 0,-2.57625 0,-5.15249 0,-7.80681 -0.35781,-0.0716 -0.71562,-0.14312 -1.08428,-0.21685 -0.13553,-0.73189 -0.13553,-0.73189 -0.21685,-1.51799 0.6289,-0.62891 1.12907,-0.54412 2.00591,-0.5828 z"
     fill="#ec5a27"
     id="path769"
     style="stroke-width:0.216856" />
  <path
     d="m 7.8479313,46.505836 c 0.23901,-0.007 0.47802,-0.0143 0.72427,-0.0216 0.23006,-0.002 0.46012,-0.003 0.69716,-0.005 0.3161,-0.004 0.3161,-0.004 0.6386,-0.009 0.5693497,0.12998 0.5693497,0.12998 1.0317597,0.55839 0.51426,0.83277 0.8332,1.6748 1.15384,2.59655 0.0662,0.18516 0.13232,0.37032 0.20049,0.56109 0.13873,0.3895 0.27646,0.77937 0.41323,1.16958 0.21,0.59897 0.42301,1.1968 0.63659,1.79451 0.13458,0.37901 0.26899,0.75808 0.40322,1.13722 0.0955,0.26903 0.0955,0.26903 0.19299,0.5435 0.44063,1.25991 0.44063,1.25991 0.44063,1.7445 0.17444,0.0313 0.34887,0.0626 0.52859,0.0949 0.55569,0.12198 0.55569,0.12198 0.77255,0.33884 0.0542,0.63701 0.0542,0.63701 0,1.30113 -0.69739,0.46493 -0.89135,0.48919 -1.69504,0.49132 -0.30211,8.4e-4 -0.30211,8.4e-4 -0.61033,0.002 -0.20979,-0.002 -0.41959,-0.003 -0.63574,-0.005 -0.31595,0.003 -0.31595,0.003 -0.63828,0.005 -0.20113,-5.6e-4 -0.40226,-0.001 -0.60949,-0.002 -0.18437,-4.9e-4 -0.36875,-9.8e-4 -0.55871,-10e-4 -0.45695,-0.0561 -0.45695,-0.0561 -0.89066,-0.48983 -0.0542,-0.65056 -0.0542,-0.65056 0,-1.30113 0.43371,-0.43371 0.43371,-0.43371 1.00296,-0.46082 0.16996,0.009 0.33992,0.0179 0.51503,0.0271 -0.10735,-0.64406 -0.10735,-0.64406 -0.21686,-1.30114 -1.5028097,0 -3.0056197,0 -4.5539697,0 -0.0716,0.42938 -0.14312,0.85875 -0.21685,1.30114 0.21021,0.0313 0.42043,0.0626 0.63701,0.0949 0.66412,0.12198 0.66412,0.12198 0.88098,0.33884 -0.0678,0.75899 -0.0678,0.75899 -0.21686,1.51799 -0.76681,0.3834 -1.64934,0.2569 -2.49384,0.25752 -0.19092,0.003 -0.38185,0.005 -0.57856,0.008 -0.18254,4.2e-4 -0.36508,8.4e-4 -0.55315,0.001 -0.16759,8.9e-4 -0.33517,0.002 -0.50784,0.003 -0.42058,-0.0527 -0.42058,-0.0527 -0.85429,-0.48639 -0.0542,-0.65056 -0.0542,-0.65056 0,-1.30113 0.14313,-0.14313 0.28625,-0.28625 0.43371,-0.43371 0.28625,0 0.5725,0 0.86743,0 0.0352,-0.13902 0.0703,-0.27804 0.10657,-0.42127 0.43037,-1.64382 0.9749,-3.22963 1.5605,-4.82393 0.13523,-0.37172 0.13523,-0.37172 0.27319,-0.75095 0.21982,-0.60387 0.4405,-1.2074 0.662,-1.81066 -0.36228,0.0134 -0.36228,0.0134 -0.73188,0.0271 -0.78611,-0.0271 -0.78611,-0.0271 -1.21982,-0.46082 -0.0542,-0.65056 -0.0542,-0.65056 0,-1.30113 0.77463,-0.77463 1.96069,-0.52311 3.00887,-0.52859 z"
     fill="#ea5a27"
     id="path771"
     style="stroke-width:0.216856" />
  <path
     d="m 50.557491,45.184376 c 0.28002,-10e-4 0.28002,-10e-4 0.56569,-0.003 0.395,-5.9e-4 0.79,10e-4 1.18499,0.005 0.59932,0.005 1.19807,5e-5 1.79737,-0.006 0.385,5.7e-4 0.77001,0.002 1.15501,0.003 0.17694,-0.002 0.35389,-0.004 0.53619,-0.005 1.64575,0.0264 3.05906,0.50973 4.24565,1.67917 0.8876,1.30676 0.78031,3.21907 0.52858,4.73017 -0.2327,0.70982 -0.54205,1.35029 -0.94874,1.97881 -0.1947,0.43748 -0.1947,0.43748 0.0949,0.97585 0.47997,0.58834 0.80374,0.69239 1.50444,0.94874 0.59535,0.47278 0.8398,0.72891 0.99025,1.48326 -2.8e-4,0.22167 -5.6e-4,0.44335 -8.5e-4,0.67174 0.005,0.22112 0.01,0.44224 0.0144,0.67005 -0.19134,0.9044 -0.46309,1.19929 -1.22066,1.72892 -0.72755,0.15492 -1.42716,0.15165 -2.16855,0.13553 -0.28933,0.006 -0.28933,0.006 -0.5845,0.0127 -0.93593,-0.007 -1.57704,-0.0166 -2.26173,-0.69885 -0.13418,-0.17611 -0.26836,-0.35222 -0.40661,-0.53367 -0.15598,0.17639 -0.31197,0.35278 -0.47268,0.53452 -1.0601,0.88113 -2.36557,0.69838 -3.67468,0.67174 -0.25578,0.002 -0.51156,0.005 -0.77509,0.007 -1.87245,-0.016 -1.87245,-0.016 -2.52296,-0.52567 -0.51156,-0.66662 -0.47686,-1.15805 -0.46982,-1.98892 -0.002,-0.26389 -0.004,-0.52778 -0.007,-0.79966 0.11521,-0.71833 0.11521,-0.71833 0.54892,-1.1224 0.54636,-0.5837 0.5452,-0.86763 0.54891,-1.65606 10e-4,-0.22811 0.002,-0.45621 0.003,-0.69123 -0.003,-0.23705 -0.007,-0.4741 -0.0102,-0.71833 0.003,-0.23705 0.007,-0.47411 0.0102,-0.71834 -10e-4,-0.2281 -0.002,-0.45621 -0.003,-0.69123 -9.7e-4,-0.20797 -0.002,-0.41595 -0.003,-0.63023 -0.14231,-0.71316 -0.45705,-0.94301 -0.97966,-1.4299 -0.11521,-0.71833 -0.11521,-0.71833 -0.10843,-1.51798 -0.002,-0.26389 -0.004,-0.52778 -0.007,-0.79966 0.27466,-1.71258 1.42934,-1.71534 2.89621,-1.70096 z m -1.47987,1.85005 c -0.0723,0.65057 -0.0723,0.65057 0,1.30113 0.14313,0.14313 0.28625,0.28625 0.43371,0.43371 0.21469,0 0.42938,0 0.65057,0 0,2.57625 0,5.15249 0,7.80681 -0.42938,0.10734 -0.42938,0.10734 -0.86742,0.21685 -0.28883,0.24108 -0.28883,0.24108 -0.25752,0.85387 -0.0315,0.68775 -0.0315,0.68775 0.47437,1.09783 0.40895,0.067 0.40895,0.067 0.87335,0.0576 0.17178,5.6e-4 0.34356,0.001 0.52054,0.002 0.17961,-0.002 0.35921,-0.003 0.54426,-0.005 0.17877,0.002 0.35753,0.003 0.54172,0.005 0.17205,-5.6e-4 0.34411,-10e-4 0.52138,-0.002 0.23605,-7.4e-4 0.23605,-7.4e-4 0.47686,-10e-4 0.495,-0.0335 0.495,-0.0335 1.07586,-0.48983 0.0904,-0.65056 0.0904,-0.65056 0,-1.30113 -0.14312,-0.14313 -0.28625,-0.28625 -0.43371,-0.43371 -0.21469,0 -0.42937,0 -0.65057,0 0,-0.85875 0,-1.7175 0,-2.60227 0.81908,0.11539 1.31158,0.20877 1.88023,0.82846 0.35572,0.5087 0.68495,1.0261 1.00666,1.55695 0.22472,0.35712 0.44975,0.71403 0.67514,1.07073 0.0971,0.1585 0.19417,0.317 0.2942,0.4803 0.26373,0.42948 0.26373,0.42948 0.69774,0.83438 0.60578,0.0777 0.60578,0.0777 1.28758,0.0678 0.23006,0.004 0.46013,0.007 0.69716,0.011 0.61677,-0.0289 0.61677,-0.0289 1.02752,-0.37356 0.29782,-0.36132 0.29782,-0.36132 0.19992,-0.91148 -0.14286,-0.5599 -0.14286,-0.5599 -0.60991,-0.96229 -0.56026,-0.0362 -0.56026,-0.0362 -1.08428,0 -0.0553,-0.15291 -0.1107,-0.30582 -0.16772,-0.46336 -0.29104,-0.67939 -0.64924,-1.26219 -1.05209,-1.88139 -0.13698,-0.21162 -0.27395,-0.42323 -0.41508,-0.64125 -0.10455,-0.15962 -0.20909,-0.31924 -0.31681,-0.48369 0.16884,-0.0609 0.33769,-0.12188 0.51164,-0.18467 0.82146,-0.35726 1.27061,-0.90969 1.6027,-1.73993 0.15687,-1.33332 0.093,-2.31818 -0.59635,-3.49679 -1.58796,-1.29782 -3.50855,-1.12469 -5.43976,-1.12447 -0.45686,-4.7e-4 -0.9136,-0.004 -1.37044,-0.009 -0.29013,-6.4e-4 -0.58026,-10e-4 -0.87039,-10e-4 -0.39507,-10e-4 -0.39507,-10e-4 -0.79812,-0.003 -0.65668,-0.0132 -0.65668,-0.0132 -1.06294,0.48639 z"
     fill="#1b6d0c"
     id="path773"
     style="stroke-width:0.216856" />
  <path
     d="m 7.3641413,45.150756 c 0.48117,-2.6e-4 0.96091,-0.0132 1.44186,-0.0269 0.30805,-0.002 0.61611,-0.003 0.92417,-0.003 0.4175897,-0.004 0.4175897,-0.004 0.8435997,-0.007 1.0764,0.25982 1.49525,0.78511 2.0721,1.70408 0.30146,0.59565 0.52816,1.20189 0.74374,1.83311 0.0911,0.25438 0.0911,0.25438 0.18404,0.51391 0.12651,0.35517 0.25144,0.71092 0.37483,1.06719 0.1892,0.5461 0.38312,1.09034 0.57793,1.63446 0.12282,0.34665 0.24538,0.69339 0.36764,1.04023 0.0576,0.16265 0.11517,0.32529 0.17449,0.49287 0.22504,0.65194 0.39645,1.18074 0.39645,1.8756 0.25494,0.0939 0.25494,0.0939 0.51503,0.18975 0.56925,0.24397 0.56925,0.24397 1.00296,0.67768 0.0805,0.67598 0.0805,0.67598 0.0949,1.49088 0.013,0.4017 0.013,0.4017 0.0263,0.81151 -0.12113,0.73359 -0.12113,0.73359 -0.57967,1.2069 -0.75769,0.47722 -1.19453,0.50032 -2.08443,0.49407 -0.27731,-8.4e-4 -0.55461,-0.002 -0.84032,-0.003 -0.21479,-0.004 -0.21479,-0.004 -0.43392,-0.008 -0.43883,-0.008 -0.87727,-0.009 -1.31617,-0.009 -2.1482997,-0.0195 -2.1482997,-0.0195 -2.8902797,-0.51418 -0.21469,0.14312 -0.42937,0.28625 -0.65057,0.43371 -0.96811,0.10207 -1.94108,0.0803 -2.914,0.0813 -0.26905,0.005 -0.53811,0.0106 -0.81532,0.0161 -0.38765,10e-4 -0.38765,10e-4 -0.78314,0.003 -0.23661,0.002 -0.47323,0.004 -0.71701,0.005 -0.77283,-0.13015 -1.02541,-0.35402 -1.49305,-0.97278 -0.11521,-0.71834 -0.11521,-0.71834 -0.10843,-1.51799 -0.002,-0.26389 -0.004,-0.52778 -0.007,-0.79966 0.13315,-0.83019 0.30847,-1.09723 0.98263,-1.58576 0.21469,0 0.42937,0 0.65057,0 0.0492,-0.25941 0.0984,-0.51882 0.14908,-0.7861 0.31676,-1.44507 0.85331,-2.81813 1.36891,-4.20158 -0.17639,-0.14731 -0.35278,-0.29463 -0.53452,-0.44641 -0.67449,-0.78258 -0.69025,-1.15134 -0.67174,-2.16941 -2.8e-4,-0.26193 -5.6e-4,-0.52386 -8.5e-4,-0.79372 0.3565,-2.06282 2.27849,-1.73231 3.94904,-1.72696 z m -2.52508,1.88367 c -0.0723,0.65057 -0.0723,0.65057 0,1.30113 0.42425,0.52289 0.42425,0.52289 1.21982,0.46082 0.24152,-0.009 0.48304,-0.0179 0.73188,-0.0271 -0.0788,0.22109 -0.15766,0.44217 -0.23888,0.66995 -0.29166,0.81854 -0.58243,1.6374 -0.87293,2.45635 -0.12597,0.35474 -0.25218,0.70939 -0.37865,1.06395 -0.18149,0.50899 -0.36211,1.01827 -0.54256,1.52763 -0.0569,0.15904 -0.11384,0.31808 -0.17249,0.48193 -0.29425,0.78426 -0.29425,0.78426 -0.39675,1.607 -0.17444,0.0313 -0.34887,0.0626 -0.52859,0.0949 -0.53857,0.0659 -0.53857,0.0659 -0.77255,0.33884 -0.0542,0.6415 -0.0542,0.6415 0,1.30113 0.61152,0.61152 1.06889,0.49652 1.90469,0.5036 0.18995,-7e-4 0.37989,-0.001 0.5756,-0.002 0.28366,0.005 0.28366,0.005 0.57306,0.0106 0.18184,1.4e-4 0.36368,2.8e-4 0.55103,4.2e-4 0.16645,6.5e-4 0.3329,10e-4 0.50439,0.002 0.56181,-0.10188 0.75287,-0.28203 1.09577,-0.7313 0.10846,-0.55138 0.10846,-0.55138 0,-1.08428 -0.64055,-0.51391 -0.64055,-0.51391 -1.51799,-0.43371 0.0716,-0.42938 0.14312,-0.85875 0.21685,-1.30114 1.50281,0 3.00562,0 4.5539697,0 0.10735,0.64407 0.10735,0.64407 0.21686,1.30114 -0.16996,-0.009 -0.33992,-0.0179 -0.51503,-0.0271 -0.6042,-0.0352 -0.6042,-0.0352 -1.00296,0.46082 -0.0723,0.65057 -0.0723,0.65057 0,1.30113 0.53874,0.53874 0.70701,0.48935 1.44937,0.49132 0.20113,5.6e-4 0.40226,10e-4 0.60949,0.002 0.31595,-0.003 0.31595,-0.003 0.63828,-0.005 0.2098,0.002 0.41959,0.003 0.63574,0.005 0.20141,-5.6e-4 0.40282,-0.001 0.61033,-0.002 0.27693,-7.4e-4 0.27693,-7.4e-4 0.55946,-10e-4 0.54675,-0.026 0.54675,-0.026 1.13558,-0.48983 0.10842,-0.65056 0.10842,-0.65056 0,-1.30113 -0.61047,-0.49386 -0.61047,-0.49386 -1.30114,-0.43371 -0.0333,-0.11676 -0.0666,-0.23352 -0.10086,-0.35382 -0.47162,-1.61498 -1.01243,-3.2042 -1.57029,-4.79095 -0.10628,-0.30349 -0.21159,-0.60732 -0.31597,-0.91147 -0.15296,-0.44564 -0.30876,-0.89021 -0.46521,-1.33464 -0.13688,-0.39324 -0.13688,-0.39324 -0.27652,-0.79442 -0.3181,-0.73101 -0.60032,-1.23622 -1.17455,-1.79006 -0.5757997,-0.15502 -0.5757997,-0.15502 -1.2079497,-0.12114 -0.3451,0.002 -0.3451,0.002 -0.69716,0.005 -0.35851,0.0107 -0.35851,0.0107 -0.72427,0.0216 -0.36102,0.002 -0.36102,0.002 -0.72934,0.004 -1.26263,-0.065 -1.26263,-0.065 -2.27953,0.52478 z"
     fill="#1a6d0c"
     id="path775"
     style="stroke-width:0.216856" />
  <path
     d="m 95.296681,45.184376 c 0.17172,-8.3e-4 0.34345,-0.002 0.52037,-0.003 0.36346,-5.9e-4 0.72693,10e-4 1.09038,0.005 0.54983,0.005 1.09905,6e-5 1.64886,-0.006 2.285619,-0.004 4.229579,0.0949 6.009279,1.6908 1.4703,1.60901 1.80448,3.26961 1.81616,5.38073 0.004,0.1961 0.009,0.39219 0.0136,0.59423 0.0121,2.12325 -0.43673,3.9969 -1.90257,5.59208 -1.87002,1.79539 -4.29278,1.717 -6.728459,1.70367 -0.52114,-0.002 -1.04179,0.004 -1.56288,0.0113 -0.33319,3.5e-4 -0.66638,2.3e-4 -0.99957,-4.2e-4 -0.15474,0.002 -0.30949,0.005 -0.46892,0.007 -0.73449,-0.0103 -1.13486,-0.0665 -1.73066,-0.5105 -0.47821,-0.67038 -0.45196,-1.17441 -0.44505,-1.98987 -0.002,-0.26389 -0.004,-0.52778 -0.007,-0.79966 0.13265,-0.82716 0.31928,-1.09073 0.98262,-1.58576 0.14313,0 0.28625,0 0.43372,0 0,-1.71749 0,-3.43499 0,-5.20453 -0.28625,-0.14313 -0.5725,-0.28625 -0.86743,-0.43371 -0.61796,-0.61797 -0.50608,-1.06367 -0.51503,-1.9246 -0.006,-0.2678 -0.0123,-0.5356 -0.0186,-0.81151 0.1,-0.73358 0.1,-0.73358 0.42969,-1.20594 0.74301,-0.54592 1.41384,-0.51976 2.30134,-0.51027 z m -1.32993,1.85005 c 0.0701,0.77998 0.0701,0.77998 0.21685,1.51799 0.35781,0.0716 0.71563,0.14312 1.08428,0.21685 0,2.57625 0,5.15249 0,7.80681 -0.53672,0.10734 -0.53672,0.10734 -1.08428,0.21685 -0.28882,0.24108 -0.28882,0.24108 -0.25751,0.85387 -0.0315,0.68775 -0.0315,0.68775 0.47437,1.09783 0.8688,0.0919 1.7391,0.0806 2.61238,0.0804 0.43023,9.4e-4 0.86044,0.009 1.2906,0.0171 2.048079,0.006 3.361939,-0.32058 5.055869,-1.43921 1.52937,-1.60051 1.74886,-3.62101 1.72722,-5.75176 -0.0871,-1.0331 -0.38213,-1.79123 -0.92757,-2.66495 -0.0869,-0.14061 -0.17387,-0.28122 -0.26344,-0.42609 -0.87442,-1.19884 -2.01529,-1.60989 -3.4231,-1.95932 -1.056199,-0.10597 -2.097499,-0.10237 -3.157959,-0.0813 -0.27521,2.8e-4 -0.55042,5.5e-4 -0.83397,8.4e-4 -1.38479,-0.0907 -1.38479,-0.0907 -2.51374,0.51419 z"
     fill="#1a6d0c"
     id="path777"
     style="stroke-width:0.216856" />
  <path
     d="m 35.227661,45.184376 c 0.17172,-8.3e-4 0.34344,-0.002 0.52037,-0.003 0.36346,-5.9e-4 0.72693,10e-4 1.09037,0.005 0.54984,0.005 1.09905,6e-5 1.64887,-0.006 2.28562,-0.004 4.22958,0.0949 6.00927,1.6908 1.47031,1.60901 1.80448,3.26961 1.81617,5.38073 0.004,0.1961 0.009,0.39219 0.0136,0.59423 0.0121,2.12325 -0.43672,3.9969 -1.90257,5.59208 -1.87001,1.79539 -4.29278,1.717 -6.72845,1.70367 -0.52115,-0.002 -1.04179,0.004 -1.56289,0.0113 -0.33319,3.5e-4 -0.66638,2.3e-4 -0.99957,-4.2e-4 -0.15474,0.002 -0.30948,0.005 -0.46891,0.007 -0.7345,-0.0103 -1.13486,-0.0665 -1.73067,-0.5105 -0.4782,-0.67038 -0.45195,-1.17441 -0.44504,-1.98987 -0.002,-0.26389 -0.004,-0.52778 -0.007,-0.79966 0.13266,-0.82716 0.31929,-1.09073 0.98263,-1.58576 0.14313,0 0.28625,0 0.43371,0 0,-1.71749 0,-3.43499 0,-5.20453 -0.28625,-0.14313 -0.5725,-0.28625 -0.86742,-0.43371 -0.61796,-0.61797 -0.50608,-1.06367 -0.51503,-1.9246 -0.006,-0.2678 -0.0123,-0.5356 -0.0186,-0.81151 0.1,-0.73358 0.1,-0.73358 0.42969,-1.20594 0.74301,-0.54592 1.41384,-0.51976 2.30134,-0.51027 z m -1.32994,1.85005 c 0.0701,0.77998 0.0701,0.77998 0.21686,1.51799 0.35781,0.0716 0.71562,0.14312 1.08428,0.21685 0,2.57625 0,5.15249 0,7.80681 -0.53672,0.10734 -0.53672,0.10734 -1.08428,0.21685 -0.28883,0.24108 -0.28883,0.24108 -0.25752,0.85387 -0.0315,0.68775 -0.0315,0.68775 0.47437,1.09783 0.8688,0.0919 1.73911,0.0806 2.61238,0.0804 0.43024,9.4e-4 0.86044,0.009 1.2906,0.0171 2.04808,0.006 3.36194,-0.32058 5.05587,-1.43921 1.52938,-1.60051 1.74887,-3.62101 1.72723,-5.75176 -0.0871,-1.0331 -0.38213,-1.79123 -0.92757,-2.66495 -0.0869,-0.14061 -0.17387,-0.28122 -0.26345,-0.42609 -0.87441,-1.19884 -2.01528,-1.60989 -3.4231,-1.95932 -1.05619,-0.10597 -2.09749,-0.10237 -3.15796,-0.0813 -0.27521,2.8e-4 -0.55041,5.5e-4 -0.83396,8.4e-4 -1.38479,-0.0907 -1.38479,-0.0907 -2.51375,0.51419 z"
     fill="#1a6d0c"
     id="path779"
     style="stroke-width:0.216856" />
  <path
     d="m 69.218091,44.987846 c 0.27549,-0.007 0.27549,-0.007 0.55654,-0.0131 1.93208,10e-4 3.52775,0.69376 4.92161,2.03175 1.77853,2.03208 1.91579,4.11827 1.80176,6.71321 -0.16375,2.29592 -0.94808,3.93586 -2.69883,5.45867 -2.06718,1.33021 -4.34491,1.29988 -6.72253,1.08427 -1.69115,-0.41519 -2.97,-1.59104 -3.9034,-3.03598 -0.78797,-1.53649 -1.02257,-2.91964 -1.00296,-4.63529 0.002,-0.21903 0.004,-0.43807 0.006,-0.66375 0.0716,-2.32027 0.68767,-3.81947 2.39299,-5.44886 1.45937,-1.24974 2.78724,-1.50633 4.64884,-1.49089 z m -4.18802,3.22573 c -1.34997,1.76564 -1.60818,3.62459 -1.37145,5.80174 0.26662,1.54851 0.95202,2.83303 2.17957,3.83224 1.56542,1.06826 2.81948,1.28092 4.70814,1.11393 1.34061,-0.36038 2.57031,-1.10565 3.46969,-2.16856 1.07041,-1.87076 1.37619,-3.8357 0.98432,-5.96437 -0.4455,-1.50684 -1.27421,-2.68635 -2.50231,-3.6586 -2.54573,-1.37894 -5.46837,-1.16723 -7.46796,1.04362 z"
     fill="#1c6d0d"
     id="path781"
     style="stroke-width:0.216856" />
  <path
     d="m 57.751851,31.637666 c 2.33529,0.6455 3.91219,1.8344 5.20453,3.90341 0.58805,1.19431 1.07543,2.37071 1.30114,3.68654 0.1789,0.0134 0.35781,0.0268 0.54214,0.0407 1.86785,0.43361 1.86785,0.43361 2.49384,1.26048 0.15268,1.10283 0.10014,2.14706 0,3.25283 -0.14704,0.04 -0.29408,0.0799 -0.44557,0.12114 -1.54896,0.48271 -2.52603,1.16124 -3.67554,2.30155 -0.43286,0.39644 -0.43286,0.39644 -0.86657,0.39644 -0.4982,-1.59857 -0.99594,-3.19728 -1.49312,-4.79617 -0.23094,-0.74266 -0.46204,-1.48527 -0.69349,-2.22777 -0.22394,-0.71839 -0.44746,-1.43691 -0.6707,-2.15552 -0.12547,-0.40351 -0.25136,-0.80688 -0.37725,-1.21026 -0.47079,-1.51684 -0.914,-3.03768 -1.31941,-4.57333 z"
     fill="#862e1d"
     id="path783"
     style="stroke-width:0.216856" />
  <path
     d="m 81.711351,46.540446 c 0.24261,10e-4 0.24261,10e-4 0.49013,0.003 0.24946,-6.2e-4 0.24946,-6.2e-4 0.50397,-0.001 0.352,-3e-4 0.704,5e-4 1.056,0.002 0.53879,0.002 1.07742,3e-5 1.6162,-0.003 0.3418,2.9e-4 0.68361,8.4e-4 1.02541,0.002 0.1613,-8.7e-4 0.3226,-0.002 0.48879,-0.003 0.81342,0.007 1.17623,0.0312 1.87036,0.49398 -0.0554,0.50812 -0.12853,1.01454 -0.21686,1.51799 -0.43371,0.21685 -0.43371,0.21685 -2.81912,0.21685 0,2.57625 0,5.15249 0,7.80681 0.78719,0 1.57437,0 2.38541,0 0.21469,0.14312 0.42938,0.28625 0.65057,0.43371 -0.0554,0.50812 -0.12853,1.01454 -0.21686,1.51799 -0.67183,0.33591 -1.38351,0.25672 -2.12112,0.2609 -0.16682,10e-4 -0.33364,0.002 -0.50552,0.004 -0.35291,0.002 -0.70582,0.003 -1.05874,0.004 -0.54119,0.002 -1.0822,0.009 -1.62334,0.0157 -0.34251,10e-4 -0.68502,0.003 -1.02753,0.003 -0.24363,0.004 -0.24363,0.004 -0.49219,0.008 -0.45613,-0.002 -0.45613,-0.002 -1.19522,-0.0793 -0.46605,-0.69908 -0.51673,-0.92533 -0.43371,-1.73484 0.14313,-0.14313 0.28625,-0.28625 0.43371,-0.43371 0.85875,0 1.7175,0 2.60227,0 0,-2.57625 0,-5.15249 0,-7.80681 -0.85875,0 -1.7175,0 -2.60227,0 -0.46605,-0.69908 -0.51673,-0.92533 -0.43371,-1.73484 0.5448,-0.5448 0.87987,-0.48719 1.62337,-0.49398 z"
     fill="#ec5a27"
     id="path785"
     style="stroke-width:0.216856" />
  <path
     d="m 70.329481,48.552416 c 0.96942,0.57447 1.50572,1.20457 1.8492,2.29054 0.31361,1.61728 0.37034,3.29621 -0.50741,4.73778 -0.51808,0.69362 -0.92469,1.13109 -1.79922,1.30114 -0.94068,0.0616 -1.40689,-0.0355 -2.22616,-0.53621 -1.22115,-1.36652 -1.33024,-2.49496 -1.28081,-4.28883 0.11355,-1.27586 0.41963,-2.08651 1.28081,-3.07071 0.93637,-0.55489 1.62095,-0.66605 2.68359,-0.43371 z"
     fill="#1f6d0c"
     id="path787"
     style="stroke-width:0.216856" />
  <path
     d="m 39.319111,26.649986 c -0.0788,0.10064 -0.15766,0.20127 -0.23888,0.30496 -2.01893,2.77473 -2.78924,6.41948 -3.74584,9.67041 -0.11932,0.40212 -0.23876,0.8042 -0.35832,1.20626 -0.28846,0.97095 -0.57541,1.94234 -0.86149,2.91399 -0.0716,0 -0.14313,0 -0.21686,0 0,-4.57999 0,-9.15998 0,-13.87876 1.28813,-0.0716 2.57625,-0.14312 3.90341,-0.21686 0.86742,-0.21685 0.86742,-0.21685 1.51798,0 z"
     fill="#1e450b"
     id="path789"
     style="stroke-width:0.216856" />
  <path
     d="m 97.870151,48.769266 c 2.454799,0 2.454799,0 3.686539,1.08428 0.89261,1.14365 0.77797,2.51845 0.65057,3.9034 -0.18198,1.08652 -0.53315,1.73927 -1.43667,2.38542 -1.001779,0.64249 -1.537529,0.43371 -2.900439,0.43371 0,-2.57625 0,-5.15249 0,-7.80681 z"
     fill="#1c6e0c"
     id="path791"
     style="stroke-width:0.216856" />
  <path
     d="m 37.801131,48.769266 c 2.4548,0 2.4548,0 3.68654,1.08428 0.89261,1.14365 0.77796,2.51845 0.65057,3.9034 -0.18198,1.08652 -0.53315,1.73927 -1.43667,2.38542 -1.00179,0.64249 -1.53754,0.43371 -2.90044,0.43371 0,-2.57625 0,-5.15249 0,-7.80681 z"
     fill="#1c6e0c"
     id="path793"
     style="stroke-width:0.216856" />
  <path
     d="m 43.005661,18.192616 c 2.25322,0.35751 4.10806,0.88088 5.50271,2.79456 0.59358,0.8853 0.86279,1.55575 1.00296,2.62683 -0.16828,-0.005 -0.33657,-0.0101 -0.50995,-0.0152 -2.59557,-0.0434 -5.05446,0.24955 -7.51371,1.09952 0.0758,-0.15961 0.15151,-0.31923 0.22956,-0.48369 0.0987,-0.21161 0.19736,-0.42322 0.29903,-0.64125 0.0981,-0.20881 0.19623,-0.41763 0.29733,-0.63277 0.44763,-1.08753 0.52076,-2.12927 0.5972,-3.29773 0.0182,-0.272 0.0363,-0.54399 0.0551,-0.82423 0.0131,-0.20658 0.0263,-0.41316 0.0398,-0.626 z"
     fill="#6a5215"
     id="path795"
     style="stroke-width:0.216856" />
  <path
     d="m 92.231901,44.432156 c 0.14313,0.0716 0.28625,0.14312 0.43371,0.21686 -0.17611,0.1789 -0.35222,0.35781 -0.53367,0.54213 -0.64625,0.77825 -0.71399,1.50616 -0.68614,2.49385 -0.004,0.14871 -0.008,0.29743 -0.0127,0.45065 0.008,0.87964 0.11494,1.24517 0.69123,1.92036 0.72667,0.89269 0.69711,1.51536 0.66327,2.63022 0.002,0.17122 0.005,0.34244 0.007,0.51884 -0.014,1.11608 -0.18785,1.67925 -0.9966,2.50359 -0.504,1.008 -0.30682,2.37266 -0.21686,3.46969 0.4608,0.98986 1.0725,1.53357 1.9517,2.16855 -0.92989,-0.10332 -1.35892,-0.35977 -1.9517,-1.08428 0,-0.14312 0,-0.28625 0,-0.43371 -0.32203,0.10735 -0.32203,0.10735 -0.65056,0.21686 0.005,-0.12571 0.009,-0.25141 0.0138,-0.38093 0.0181,-0.57325 0.0293,-1.14644 0.0405,-1.71986 0.007,-0.19778 0.0145,-0.39555 0.022,-0.59932 0.0134,-0.92294 0.0133,-1.48194 -0.45573,-2.29435 -0.47514,-0.41575 -0.81257,-0.63094 -1.40956,-0.81998 -0.26836,-0.085 -0.53672,-0.16996 -0.81321,-0.25752 0,-0.85875 0,-1.7175 0,-2.60227 0.48708,-0.19765 0.97415,-0.39531 1.46123,-0.59296 0.57009,-0.31901 0.79776,-0.58875 1.14104,-1.14188 0.0886,-0.50147 0.0886,-0.50147 0.0635,-1.03346 -0.002,-0.19288 -0.004,-0.38576 -0.006,-0.58449 -0.005,-0.19959 -0.0109,-0.39918 -0.0165,-0.60482 -0.003,-0.20295 -0.006,-0.4059 -0.009,-0.61499 -0.008,-0.49992 -0.0183,-0.99957 -0.0318,-1.49936 0.21468,0.0716 0.42937,0.14313 0.65056,0.21686 0.0671,-0.13865 0.13418,-0.27731 0.20331,-0.42016 0.2304,-0.44726 0.2304,-0.44726 0.44726,-0.66412 z"
     fill="#3c287a"
     id="path797"
     style="stroke-width:0.216856" />
  <path
     d="m 6.5739113,19.276896 c 0.85875,0 1.71749,0 2.60227,0 0.29745,0.5949 0.31176,1.14236 0.38034,1.80431 0.0286,0.27255 0.0573,0.5451 0.0868,0.82591 0.0295,0.28886 0.059,0.57772 0.0885,0.86658 0.0303,0.29056 0.0606,0.58111 0.0911,0.87166 0.0743,0.71233 0.14783,1.42473 0.2206697,2.13721 -1.5034497,-0.57212 -2.2248797,-1.51466 -2.8868897,-2.96821 -0.51707,-1.22832 -0.60487,-2.2135 -0.5828,-3.53746 z"
     fill="#052002"
     id="path799"
     style="stroke-width:0.216856" />
  <path
     d="m 69.353631,49.907766 c 0.54214,0.16264 0.54214,0.16264 1.03006,0.70478 0.52933,1.05865 0.78975,1.89862 0.42185,3.03089 -0.55548,1.27721 -0.55548,1.27721 -0.90977,1.6315 -0.51504,0.0678 -0.51504,0.0678 -1.08428,0 -0.71286,-0.68645 -1.07297,-1.60304 -1.09275,-2.5921 0.0934,-1.16497 0.39835,-2.40411 1.63489,-2.77507 z"
     fill="#3a286a"
     id="path801"
     style="stroke-width:0.216856" />
  <path
     d="m 64.691231,19.276896 c 0.85875,0 1.7175,0 2.60227,0 0,2.07531 0,4.15062 0,6.28882 -1.27882,-0.63941 -1.83457,-1.74683 -2.34814,-3.06224 -0.3039,-1.07883 -0.28878,-2.11788 -0.25413,-3.22658 z"
     fill="#783020"
     id="path803"
     style="stroke-width:0.216856" />
  <path
     d="m 52.764171,48.769266 c 0.44726,-0.0134 0.89453,-0.0268 1.35534,-0.0407 0.37738,-0.0113 0.37738,-0.0113 0.76239,-0.0229 0.75683,0.0686 1.05218,0.16479 1.56881,0.7141 0.16212,1.29692 0.16212,1.29692 -0.29817,1.92459 -0.72847,0.50433 -1.23419,0.48374 -2.11435,0.47438 -0.42042,-0.004 -0.84085,-0.009 -1.27402,-0.0136 0,-1.00187 0,-2.00374 0,-3.03598 z"
     fill="#1d6d0d"
     id="path805"
     style="stroke-width:0.216856" />
  <path
     d="m 77.485711,49.419836 c 0.28625,0.35781 0.5725,0.71562 0.86743,1.08428 0.7715,0.5539 1.19964,0.67364 2.16855,0.86742 0,0.85875 0,1.7175 0,2.60227 -0.41648,0.0847 -0.83297,0.16942 -1.24946,0.25413 -0.63507,0.206 -0.63507,0.206 -1.56966,1.047 -0.0716,-1.93218 -0.14312,-3.86436 -0.21686,-5.8551 z"
     fill="#7b58fc"
     id="path807"
     style="stroke-width:0.216856" />
  <path
     d="m 64.257521,39.227616 c 0.98957,0.0742 1.85887,0.32171 2.69545,0.85133 0.74889,0.98922 0.44743,2.52229 0.34053,3.70264 -0.50094,0.14313 -1.00188,0.28625 -1.51799,0.43371 -0.2535,-0.79045 -0.50632,-1.58113 -0.759,-2.37185 -0.0724,-0.22573 -0.1448,-0.45146 -0.21939,-0.68403 -0.0685,-0.21455 -0.13698,-0.4291 -0.20754,-0.65015 -0.0636,-0.19873 -0.12719,-0.39747 -0.19272,-0.60223 -0.13934,-0.46256 -0.13934,-0.46256 -0.13934,-0.67942 z"
     fill="#621f14"
     id="path809"
     style="stroke-width:0.216856" />
  <path
     d="m 46.909061,40.095046 c 0.56106,0.56106 0.66479,1.05885 0.89453,1.81616 0.0766,0.24768 0.15319,0.49535 0.23211,0.75053 0.1745,0.68614 0.1745,0.68614 0.1745,1.55356 -0.32579,0.25497 -0.65204,0.50943 -0.98263,0.75815 -0.57313,0.58685 -0.61819,1.27024 -0.75222,2.06098 -0.55569,-0.33884 -0.55569,-0.33884 -1.08428,-0.86742 0.0704,-1.33785 0.50421,-2.61093 0.88098,-3.88985 0.0916,-0.31553 0.0916,-0.31553 0.18509,-0.63744 0.14973,-0.51517 0.30039,-1.03004 0.45192,-1.54467 z"
     fill="#a0431a"
     id="path811"
     style="stroke-width:0.216856" />
  <path
     d="m 8.9593213,48.986126 c 0.56523,0.56523 0.74604,1.1995 1.00296,1.93815 0.0498,0.13739 0.0995,0.27479 0.1507797,0.41634 0.21853,0.61851 0.36425,1.10475 0.36425,1.76577 -0.9303097,0 -1.8606197,0 -2.8191197,0 0.28185,-1.45627 0.71547,-2.75845 1.30113,-4.12026 z"
     fill="#256d0c"
     id="path813"
     style="stroke-width:0.216856" />
  <path
     d="m 99.171281,50.287256 c 1.084279,0.43371 1.084279,0.43371 1.490879,1.00296 0.36104,1.08311 0.20953,1.88909 -0.13553,2.98177 -0.27107,0.35239 -0.27107,0.35239 -1.355349,0.7861 0,-1.57437 0,-3.14875 0,-4.77083 z"
     fill="#372667"
     id="path815"
     style="stroke-width:0.216856" />
  <path
     d="m 39.102261,50.287256 c 1.08428,0.43371 1.08428,0.43371 1.49088,1.00296 0.36104,1.08311 0.20952,1.88909 -0.13553,2.98177 -0.27107,0.35239 -0.27107,0.35239 -1.35535,0.7861 0,-1.57437 0,-3.14875 0,-4.77083 z"
     fill="#372667"
     id="path817"
     style="stroke-width:0.216856" />
  <path
     d="m 31.946021,50.720966 c 0.21469,0.0716 0.42938,0.14313 0.65057,0.21686 0.0234,0.56497 0.0406,1.12897 0.0542,1.69419 0.007,0.16003 0.0145,0.32007 0.022,0.48496 0.008,0.46801 0.008,0.46801 -0.0762,1.29054 -0.4371,0.43625 -0.4371,0.43625 -0.86742,0.65057 -0.006,-0.68219 -0.0101,-1.36437 -0.0136,-2.04658 -0.002,-0.1947 -0.004,-0.3894 -0.006,-0.59 -7e-4,-0.18519 -0.001,-0.37039 -0.002,-0.5612 -0.002,-0.25722 -0.002,-0.25722 -0.003,-0.51963 0.0246,-0.40285 0.0246,-0.40285 0.24147,-0.61971 z"
     fill="#eab531"
     id="path819"
     style="stroke-width:0.216856" />
  <path
     d="m 88.328501,51.371536 c 0.28625,0 0.5725,0 0.86742,0 0.031,1.85876 0.031,1.85876 -0.21685,2.60227 -0.21469,0 -0.42938,0 -0.65057,0 0,-0.85875 0,-1.7175 0,-2.60227 z"
     fill="#564ba8"
     id="path821"
     style="stroke-width:0.216856" />
  <path
     d="m 3.7547813,44.215296 c -0.32332,0.82302 -0.81472,1.21666 -1.51799,1.73485 0.60954,-1.73485 0.60954,-1.73485 1.51799,-1.73485 z"
     fill="#473187"
     id="path823"
     style="stroke-width:0.216856" />
</svg>
